<svg id="Layer_1" data-name="Layer 1" xmlns="http://www.w3.org/2000/svg" width="117" height="118" viewBox="0 0 117 118"><defs><style>.cls-1{fill:#e03838;}.cls-2{fill:#fff;}</style></defs><path class="cls-1" d="M54.54,97.75A150.7,150.7,0,0,0,35.83,78.12c-2.8-2.45-4.7-3.93-6.37-5.24a63.7,63.7,0,0,1-6.61-5.73l-.07-.08C16.17,60.52,8.67,53.09,6,42.38c-1.2-4.8-4.33-21.1,5.84-29.49A20.94,20.94,0,0,1,25.37,8.38a30.85,30.85,0,0,1,19.8,7.49A27.49,27.49,0,0,1,53,28.64l.54,1.84L54,28.61a25.72,25.72,0,0,1,7.84-13.73A26.5,26.5,0,0,1,79.46,8.65c6.89,0,13.51,2.32,17.7,6.22,4.83,4.48,7.57,11.43,7.54,19.06a34.63,34.63,0,0,1-11.54,25.2Z"/><path class="cls-2" d="M25.37,7.88v1a30.3,30.3,0,0,1,19.46,7.36,27,27,0,0,1,7.71,12.54l1.08,3.68.86-3.74a25.26,25.26,0,0,1,7.68-13.47,26,26,0,0,1,17.3-6.1c6.77,0,13.26,2.27,17.36,6.08,4.72,4.4,7.41,11.21,7.38,18.7A34.14,34.14,0,0,1,92.79,58.79L54.59,97A151.51,151.51,0,0,0,36.16,77.75c-2.81-2.47-4.72-4-6.4-5.26a65.38,65.38,0,0,1-6.56-5.7l-.07-.07c-6.57-6.51-14-13.89-16.66-24.46-1.18-4.73-4.28-20.78,5.67-29A20.46,20.46,0,0,1,25.37,8.88v-1m0,0A21.5,21.5,0,0,0,11.5,12.5C.3,21.75,4.86,40,5.5,42.5c2.73,10.88,10.2,18.26,17,25,4.88,4.84,6.59,5.38,13,11a150,150,0,0,1,19,20l39-39c15-13.67,14.76-35,4-45-4.35-4-11.1-6.35-18-6.35a27.07,27.07,0,0,0-18,6.35,26.4,26.4,0,0,0-8,14,28,28,0,0,0-8-13A31.14,31.14,0,0,0,25.37,7.88ZM54.5,98.5v0Z"/></svg>