<svg xmlns="http://www.w3.org/2000/svg" xmlns:xlink="http://www.w3.org/1999/xlink" width="102" height="49" viewBox="0 0 102 49"><defs><style>.cls-1{fill:url(#linear-gradient);}.cls-2{fill:#f9f9f9;}</style><linearGradient id="linear-gradient" x1="51.17" y1="45.87" x2="52.84" y2="1.93" gradientUnits="userSpaceOnUse"><stop offset="0" stop-color="#040404"/><stop offset="1" stop-color="#3fa9f5"/></linearGradient></defs><g id="Layer_2" data-name="Layer 2"><rect class="cls-1" x="2" y="1" width="100" height="46" rx="12"/><path class="cls-2" d="M20.45,20.66A4.68,4.68,0,0,0,20,19.5c-.22-.38-.36-.48-1.13-.48h-1.4v6.82c0,1.09.11,1.25,1.44,1.33v.39H14.84v-.39c1.3-.08,1.41-.22,1.41-1.33V19H15c-.77,0-1,.08-1.24.5a6.94,6.94,0,0,0-.46,1.14h-.42c.08-.86.17-1.74.21-2.52h.32c.21.33.37.32.76.32H19.7a.71.71,0,0,0,.71-.32h.34c0,.66.05,1.66.12,2.48Z"/><path class="cls-2" d="M30.32,27.68c-.18,0-.33,0-.52,0a2.49,2.49,0,0,1-2.18-1.21c-.52-.71-1-1.59-1.47-2.31-.28-.45-.46-.53-1.18-.53h-.49v2.2c0,1.19.16,1.26,1.28,1.37v.39H22v-.39c1.16-.12,1.26-.18,1.26-1.37V20.21c0-1.19-.16-1.23-1.26-1.36v-.39h3.57a4,4,0,0,1,2.24.48,2.09,2.09,0,0,1,1,1.84A2.59,2.59,0,0,1,27,23.19c.25.44.85,1.38,1.27,2a12.21,12.21,0,0,0,1.11,1.44,1.92,1.92,0,0,0,1,.64Zm-5.17-4.56a2.32,2.32,0,0,0,1.55-.4A2,2,0,0,0,27.47,21,1.89,1.89,0,0,0,25.39,19a1.33,1.33,0,0,0-.74.14c-.13.1-.17.24-.17.6v3.43Z"/><path class="cls-2" d="M38.43,18.85c-1,.11-1.15.27-1.71,1.16s-1.15,2-1.84,3.24a1.56,1.56,0,0,0-.21.83V25.8c0,1.16.13,1.25,1.43,1.37v.39h-4v-.39c1.28-.17,1.38-.19,1.38-1.37V24a1.47,1.47,0,0,0-.28-.81c-.49-.91-1-1.79-1.73-3.11-.54-.95-.68-1.12-1.64-1.22v-.39h3.45v.39c-1,.14-.95.32-.7.8.59,1.08,1.25,2.34,1.83,3.39.51-.94,1.31-2.47,1.7-3.24s.28-.84-.83-.95v-.39h3.17Z"/><path class="cls-2" d="M46.41,27.56v-.39c.91-.11,1-.25.82-.78s-.46-1.25-.75-2.13h-3c-.22.63-.43,1.18-.63,1.75-.31.91-.11,1,1,1.16v.39H40.62v-.39c.88-.11,1.11-.21,1.6-1.47l2.9-7.35.45-.09c.88,2.4,1.85,5,2.73,7.47.45,1.22.57,1.33,1.57,1.44v.39ZM45,20.1c-.45,1.2-.93,2.48-1.35,3.58h2.62Z"/><path class="cls-2" d="M59.48,23.74c-.86.11-.92.2-.92,1v1.18a7.72,7.72,0,0,0,.08,1.33,14,14,0,0,1-3.18.5c-3.17,0-5.11-2-5.11-4.79s2.41-4.72,5.21-4.72a14.48,14.48,0,0,1,2.92.35c0,.52.09,1.38.21,2.26l-.42.08c-.34-1.19-.75-1.69-1.63-2a4.8,4.8,0,0,0-1.3-.18c-2.14,0-3.53,1.47-3.53,4,0,2.22,1.15,4.44,3.86,4.44a2.83,2.83,0,0,0,1.2-.24c.29-.17.47-.32.47-.9V25c0-1-.11-1.13-1.46-1.23v-.41h3.6Z"/><path class="cls-2" d="M65.87,27.56v-.39c.91-.11,1-.25.82-.78s-.46-1.25-.75-2.13h-3c-.22.63-.43,1.18-.63,1.75-.31.91-.11,1,1,1.16v.39H60.08v-.39c.88-.11,1.11-.21,1.6-1.47l2.9-7.35.45-.09c.88,2.4,1.84,5,2.73,7.47.45,1.22.57,1.33,1.57,1.44v.39Zm-1.4-7.46c-.45,1.2-.93,2.48-1.35,3.58h2.62Z"/><path class="cls-2" d="M69.88,27.56v-.39c1.15-.12,1.26-.18,1.26-1.37V20.24c0-1.21-.11-1.26-1.26-1.39v-.39h3.76v.39c-1.17.13-1.28.18-1.28,1.39V25.8c0,1.2.11,1.25,1.28,1.37v.39Z"/><path class="cls-2" d="M84.73,18.85c-.9.1-1.19.24-1.24.88,0,.45,0,1,0,2.34v5.62h-.53l-6-7.33v3.51c0,1.26,0,1.89.07,2.29,0,.72.38.93,1.39,1v.39H75v-.39c.87-.07,1.2-.28,1.26-1,0-.45.07-1.08.07-2.36V20.28a1.21,1.21,0,0,0-.28-.92c-.27-.35-.56-.44-1.25-.51v-.39h2.1l5.94,7.05V22.07c0-1.3,0-1.9-.07-2.32,0-.63-.36-.83-1.48-.9v-.39h3.46Z"/></g></svg>