<svg xmlns="http://www.w3.org/2000/svg" xmlns:xlink="http://www.w3.org/1999/xlink" width="1920" height="1080" viewBox="0 0 1920 1080"><defs><style>.cls-1{fill:#def9df;}.cls-2{fill:#3d7c47;}.cls-3{fill:#827e7e;}.cls-4{fill:#9e9a9a;}.cls-5{fill:#726e6e;}.cls-6{fill:#686464;}.cls-7{fill:#332306;}.cls-8{fill:#7b85c6;}.cls-9{fill:#9a9a9b;}.cls-10{fill:#0b0c0c;}.cls-11{fill:#525656;}.cls-12{fill:#565b5b;}.cls-13{fill:#0e0f0f;}.cls-14{fill:#ea1845;}.cls-15{fill:url(#radial-gradient);}.cls-16{fill:#877e81;}.cls-17{fill:#070102;}.cls-18{fill:#f2f2f2;}.cls-19{fill:#0c0f11;}.cls-20{fill:#f2f3f4;}.cls-21{fill:#c13e54;}.cls-22{fill:#0c0c0c;}.cls-23{fill:#c66073;}.cls-24{fill:#80eaed;}.cls-25{fill:url(#radial-gradient-2);}.cls-26{fill:#1e1811;}.cls-27{fill:#e5ab76;}.cls-28{fill:#f2ba8c;}.cls-29{fill:#9b571f;}.cls-30{fill:#b27718;}.cls-31{fill:#bc7415;}.cls-32{fill:#ea9924;}.cls-33{fill:#f4a10c;}.cls-34{fill:#070707;}.cls-35{fill:#020202;}.cls-36{fill:#4f6aaf;}.cls-37{fill:#a39f9d;}.cls-38{fill:#b7b3b2;}.cls-39{fill:#952;}</style><radialGradient id="radial-gradient" cx="1794.46" cy="2771.76" r="46.61" gradientTransform="translate(-2084.21 -3114.37) scale(1.64 1.2)" gradientUnits="userSpaceOnUse"><stop offset="0.08" stop-color="#fff"/><stop offset="1" stop-color="#6ff"/></radialGradient><radialGradient id="radial-gradient-2" cx="659.61" cy="228.19" r="46.61" gradientTransform="translate(-2216.46 -352.85) scale(3.88 3.67)" xlink:href="#radial-gradient"/></defs><g id="Layer_5" data-name="Layer 5"><rect class="cls-1" width="1920" height="1080"/><rect class="cls-2" y="690" width="1920" height="390"/></g><g id="Layer_7" data-name="Layer 7"><rect class="cls-3" x="81.7" y="-9.51" width="15.2" height="466.94" transform="translate(226.9 421.95) rotate(166.94)"/><rect class="cls-4" x="88.06" y="-10.62" width="15.2" height="466.94" transform="translate(239.18 418.32) rotate(166.94)"/><rect class="cls-5" x="37.8" y="12.46" width="15" height="763" transform="translate(-44.26 7.65) rotate(-6.49)"/><rect class="cls-4" x="43" y="-2" width="15" height="763" transform="translate(-42.6 8.15) rotate(-6.49)"/><rect class="cls-6" x="13.52" y="80.27" width="73.14" height="20.25" transform="translate(-19.13 13.65) rotate(-13.06)"/><rect class="cls-6" x="24.65" y="157.39" width="73.14" height="20.25" transform="translate(-36.26 18.16) rotate(-13.06)"/><rect class="cls-6" x="40.65" y="224.39" width="73.14" height="20.25" transform="translate(-50.99 23.51) rotate(-13.06)"/><rect class="cls-6" x="44.06" y="304.51" width="90.2" height="16.9" transform="translate(-68.4 28.24) rotate(-13.06)"/><rect class="cls-6" x="50.99" y="385.27" width="90.2" height="16.9" transform="translate(-86.47 31.89) rotate(-13.06)"/><rect class="cls-6" x="60.98" y="471.66" width="90.2" height="16.9" transform="translate(-105.73 36.38) rotate(-13.06)"/><rect class="cls-6" x="67.98" y="544.66" width="90.2" height="16.9" transform="translate(-122.04 39.85) rotate(-13.06)"/></g><g id="Layer_4" data-name="Layer 4"><rect class="cls-7" x="622" y="102" width="511" height="329"/><rect class="cls-8" x="652" y="133" width="448" height="268"/><path class="cls-9" d="M1008,401l-280-1.24Q754.6,266.38,781.18,133H947Z"/><ellipse class="cls-10" cx="782.02" cy="332.09" rx="40.15" ry="27.44"/><ellipse class="cls-11" cx="790.26" cy="327.19" rx="23.04" ry="18.95"/><ellipse class="cls-10" cx="790.05" cy="329.64" rx="12.2" ry="9.03" transform="translate(-16.73 43.38) rotate(-3.11)"/><path class="cls-10" d="M992.08,334.87c.39,22.74-39.51,41-64.66,32.51-14.26-4.81-26.16-19-26.21-32.34v-.17c.08-13.65,18.95-32.51,45.44-32.51C971.91,302.36,991.81,319,992.08,334.87Z"/><ellipse class="cls-12" cx="959.33" cy="329.64" rx="36.56" ry="33.49"/><ellipse class="cls-13" cx="950.24" cy="321.15" rx="16.91" ry="15.19"/><path class="cls-14" d="M750.55,269.36q-1.59-68.49.68-68.57c.06,0,.11,0,.17.08,0-18.21,18.24-33.12,40.53-33.12H924.08c22.29,0,40.52,14.91,40.52,33.12q.43,34,.85,67.94Z"/><path class="cls-14" d="M990.39,272.63c0,13.44-1,28.75-7.61,29.73-5.88.87-10.47-10.29-23.24-10.78a17.13,17.13,0,0,0-7.19,1c-8.66,3.48-8.15,14.81-9.3,18.95-7.88,28.57-180.59,25.77-205.83,1.63-7.75-7.4-9.72-13.39-9.72-13.39-2.08-6.28-2.12-15.81-2.12-21.57h0c2.29-21.55,22-35.52,25.36-37.9,7.35-5.2,23.73-14.21,104-13.72,63.64.39,105.58,1.07,124.26,21.89A49.16,49.16,0,0,1,990.39,272.63Z"/><path class="cls-15" d="M947.28,236.69h0a27.31,27.31,0,0,1-6.76,3.59c-23.62,8.43-82.84,6.21-82.84,6.21-50.28-1.88-84.19,2.87-93.41-8.82a28.53,28.53,0,0,1-3.81-6.86,46.15,46.15,0,0,1-.9-13.35c.58-7.18,1.7-21.29,15.3-31.07,10-7.16,22.12-8.76,28.5-9.16H909.45c5.76.38,18,1.88,28.51,9.16,18.12,12.58,15.72,31.85,15,35.92A37.71,37.71,0,0,1,947.28,236.69Z"/><path class="cls-16" d="M963.75,310.81c-48.41,22.34-111.92,23.85-111.92,23.85-5.62.14-108.79,2.29-112.58-12.41a7,7,0,0,1,1.16-6.19c3.54-4,12.9-2.65,16.42-2.15,30.21,4.28,74.66,7,94.27,7a192.31,192.31,0,0,0,23.22-1.21c4.37-.51,8.12-1.13,11.53-1.76,24.36-4.53,43.21-8,62.83-16.72,6.28-2.78,13.78-6.6,20.07-4.45,2.47.85,5.07,2.73,5.33,4.95C974.54,305.82,966.6,309.49,963.75,310.81Z"/><path class="cls-17" d="M741.3,259.54l-3.6,5.82a96.35,96.35,0,0,0,31.86,17.27,116,116,0,0,0,29.53,5.43l3.6-5.81a131.13,131.13,0,0,1-29.27-6.07A111.22,111.22,0,0,1,741.3,259.54Z"/><path class="cls-18" d="M819.46,301.45c-6.8,6.28-27.36,3.21-33.3-5.72-1.93-2.89-3-7.38-.27-10.85,5-6.45,21.74-7.7,30.33-1C822.32,288.63,824.09,297.18,819.46,301.45Z"/><path class="cls-18" d="M816.23,312.19l-14.48-7.94c-1.7-.94-2.1-2.78-.89-4.1h0a4.58,4.58,0,0,1,5.3-.7l14.47,7.95c1.71.94,2.11,2.78.9,4.1h0A4.56,4.56,0,0,1,816.23,312.19Z"/><path class="cls-18" d="M827.18,307.11l-14.47-7.94c-1.7-.94-2.11-2.78-.9-4.1h0a4.59,4.59,0,0,1,5.31-.7l14.47,7.95c1.7.94,2.11,2.78.9,4.1h0A4.57,4.57,0,0,1,827.18,307.11Z"/><path class="cls-18" d="M831.41,299,816.94,291c-1.71-.94-2.11-2.78-.9-4.1h0a4.58,4.58,0,0,1,5.3-.7l14.48,7.95c1.7.94,2.11,2.78.89,4.1h0A4.58,4.58,0,0,1,831.41,299Z"/><rect class="cls-18" x="802.73" y="278.84" width="25.36" height="5.88" rx="0.67"/><ellipse class="cls-19" cx="831.89" cy="204.34" rx="18.6" ry="22.22"/><ellipse class="cls-19" cx="880.08" cy="204.34" rx="18.6" ry="22.22"/><ellipse class="cls-20" cx="838.02" cy="207.12" rx="11.62" ry="8.98"/><ellipse class="cls-20" cx="873.1" cy="207.12" rx="11.62" ry="8.98"/><path class="cls-21" d="M884,252.3c-14.5,9.7-21.74,14.55-30.85,14.38-15.82-.3-26.59-13.65-37.2-26.79-6.62-8.2-5.59-9.9-5.07-10.46,3.6-3.87,20.62,6.2,46.07,7.52,27.54,1.42,45.32-8.44,48.18-4.58S891.18,247.51,884,252.3Z"/><path class="cls-22" d="M850,227.07c4.12,4.64,20.49.36,20.68,1.07s-19.59,7.68-24.33,2.75c-4.13-4.3,5.9-14.82,6.33-14.67S846.76,223.41,850,227.07Z"/><path class="cls-23" d="M864.44,247.26c3.17,1,8,3.47,8.45,6.86.72,5.08-8.65,9.77-16.06,11.11-7.79,1.41-19.22.16-23.18-5.8-2.56-3.85-2.22-10,2.05-11.85,3-1.28,7.46-.27,10.14,1.64,4.94,3.51,3.85,10.21,4.55,10.2.85,0-.91-9.81,4.75-12.49C858.42,245.38,863,246.79,864.44,247.26Z"/><path class="cls-17" d="M907.09,285.71l1.88,6.58a96.1,96.1,0,0,0,34.22-11.92,115.59,115.59,0,0,0,23.9-18.16l-1.87-6.58A130.52,130.52,0,0,1,941,273.18,111.35,111.35,0,0,1,907.09,285.71Z"/><path class="cls-18" d="M878,294.5c2.23-9,21.08-17.74,31-13.56,3.2,1.36,6.55,4.53,6.2,8.92-.66,8.15-13.92,18.39-24.79,17.52C882.69,306.77,876.51,300.61,878,294.5Z"/><path class="cls-18" d="M894.23,286.1l-16.23-3c-1.91-.36-2.87-2-2.13-3.62h0a4.55,4.55,0,0,1,4.82-2.31l16.23,3a2.54,2.54,0,0,1,2.13,3.61h0A4.57,4.57,0,0,1,894.23,286.1Z"/><path class="cls-18" d="M884.1,294.35l-16.48.94c-1.94.11-3.26-1.24-2.93-3h0a4.56,4.56,0,0,1,4.12-3.4L885.3,288c1.94-.11,3.26,1.24,2.93,3h0A4.56,4.56,0,0,1,884.1,294.35Z"/><path class="cls-18" d="M880.44,302.81l-16.4,1.9c-1.93.22-3.33-1-3.11-2.82h0a4.58,4.58,0,0,1,3.92-3.64l16.4-1.9c1.94-.23,3.34,1,3.11,2.82h0A4.58,4.58,0,0,1,880.44,302.81Z"/><path class="cls-18" d="M891.67,308.76l-16,4.05a2.56,2.56,0,0,1-3.46-2.39h0a4.59,4.59,0,0,1,3.41-4.12l16-4.05a2.55,2.55,0,0,1,3.45,2.39h0A4.58,4.58,0,0,1,891.67,308.76Z"/></g><g id="Layer_1" data-name="Layer 1"><path class="cls-24" d="M719,897.15c-1.73,7.76-12,10-11.05,15.75s11.65,5.69,14.45,12.89c2.63,6.76-3.14,16.39-10.2,17.9-6.61,1.41-10.54-5.1-16.15-3.58-7.37,2-3.32,14-11.91,20.76s-18.41-.32-39.11,3.58c-18.84,3.55-20.47,11.32-34.86,12.89-19.64,2.14-25.25-16-42.51-14.32-14,1.39-14,12.52-30.6,17.18-17.78,5-25.42-5.62-50.17-6.44-29.2-1-32.48,13.35-58.66,12.89-31.19-.55-33.46-23-62.07-22.2-36.87,1.07-52.69,30-78.22,23.63-19.83-5-17.25-24.19-37.41-28.64-25.52-5.63-40.89,22.69-67.16,17.9-23.43-4.27-22.53-28.86-46.76-32.93-24.87-4.19-43.65,18.7-57,11.45-9.93-5.4-.62-19.33-12.75-30.07-12.71-11.25-32.11-4.31-38.26-14.32-4.09-6.66.22-16.7,6.8-22.19,9.45-7.89,21.46-4.64,40-7.88,21.53-3.77,33.82-13.19,42.51-17.9,46.91-25.4,129.24-15.45,248.26-24.34,106.25-7.94,171.66-25.66,198.1,2.86,6.92,7.46,16.77,24.12,34.86,25.78,17.38,1.59,29.72-13.81,39.11-9.31,9.11,4.37.93,20.07,10.2,25.78,12.75,7.84,37.46-16.18,57-7.88C714.1,880.12,720.59,889.83,719,897.15Z"/><ellipse class="cls-10" cx="164.87" cy="852.91" rx="95" ry="84"/><ellipse class="cls-11" cx="184.37" cy="837.91" rx="54.5" ry="58"/><ellipse class="cls-10" cx="183.87" cy="845.41" rx="29" ry="27.5" transform="translate(-268.76 108.09) rotate(-19.27)"/><path class="cls-10" d="M661.87,861.41c.92,69.58-93.48,125.49-153,99.5-33.72-14.73-61.87-58.21-62-99v-.5c.19-41.78,44.84-99.5,107.5-99.5C614.14,761.91,661.24,812.8,661.87,861.41Z"/><ellipse class="cls-12" cx="584.37" cy="845.41" rx="86.5" ry="102.5"/><ellipse class="cls-13" cx="562.87" cy="819.41" rx="40" ry="46.5"/><path class="cls-14" d="M90.42,660.91Q86.67,451.27,92,451c.13,0,.27.08.4.26,0-55.76,43.15-101.37,95.89-101.37H501c52.74,0,95.89,45.61,95.89,101.37l2,207.92Z"/><path class="cls-14" d="M657.87,670.91c0,41.13-2.37,88-18,91-13.91,2.66-24.77-31.49-55-33-3.45-.17-10.23-.51-17,3-20.49,10.63-19.29,45.34-22,58-18.66,87.45-427.27,78.86-487,5-18.32-22.66-23-41-23-41-4.9-19.22-5-48.39-5-66h0c5.42-66,52.08-108.74,60-116,17.39-15.94,56.14-43.51,246-42,150.59,1.19,249.82,3.28,294,67C654,630.24,657.87,670.91,657.87,670.91Z"/><path class="cls-25" d="M555.87,560.91h0a62.13,62.13,0,0,1-16,11c-55.88,25.79-196,19-196,19-119-5.76-199.18,8.77-221-27-5.68-9.33-9-21-9-21A181.88,181.88,0,0,1,111.75,502c1.35-22,4-65.16,36.18-95.08,23.58-21.92,52.35-26.81,67.44-28h251c13.62,1.17,42.65,5.78,67.45,28,42.87,38.49,37.19,97.47,35.61,110A135.78,135.78,0,0,1,555.87,560.91Z"/><path class="cls-16" d="M594.83,787.75c-114.53,68.39-264.78,73-264.78,73-13.31.41-257.4,7-266.36-38-2.3-11.55,2.74-19,2.74-19,8.37-12.3,30.52-8.09,38.85-6.56,71.47,13.11,176.64,21.55,223.05,21.5a352.25,352.25,0,0,0,54.93-3.68c10.32-1.57,19.21-3.46,27.28-5.4,57.63-13.86,102.22-24.58,148.64-51.19,14.85-8.5,32.6-20.19,47.48-13.6,5.85,2.59,12,8.35,12.61,15.14C620.38,772.49,601.58,783.72,594.83,787.75Z"/><path class="cls-17" d="M68.54,630.86,60,648.66a218.42,218.42,0,0,0,145.24,69.48l8.52-17.8A249.61,249.61,0,0,1,68.54,630.86Z"/><path class="cls-18" d="M253.47,759.11c-16.11,19.23-64.74,9.82-78.81-17.49-4.56-8.86-7-22.61-.64-33.24,11.91-19.74,51.44-23.54,71.78-3C260.21,719.89,264.41,746,253.47,759.11Z"/><rect class="cls-18" x="203.9" y="763.5" width="60" height="18" rx="9" transform="translate(490.6 7.27) rotate(35.39)"/><rect class="cls-18" x="229.82" y="747.95" width="60" height="18" rx="9" transform="translate(486.39 -10.61) rotate(35.39)"/><rect class="cls-18" x="239.82" y="722.95" width="60" height="18" rx="9" transform="matrix(0.82, 0.58, -0.58, 0.82, 473.76, -21.02)"/><rect class="cls-18" x="213.87" y="689.91" width="60" height="18" rx="9"/><ellipse class="cls-19" cx="282.87" cy="461.91" rx="44" ry="68"/><ellipse class="cls-19" cx="396.87" cy="461.91" rx="44" ry="68"/><circle class="cls-20" cx="297.37" cy="470.41" r="27.5"/><circle class="cls-20" cx="380.37" cy="470.41" r="27.5"/><path class="cls-21" d="M260.41,619.52c26.56-36.77,39.85-55.15,60.95-59.58,36.63-7.69,70.81,26.23,104.47,59.62,21,20.83,19.83,26.44,19,28.39-5.57,13.5-51.84-7.27-111.37,2.63C269.06,661.29,235,700.3,225.74,690.36S247.28,637.68,260.41,619.52Z"/><path class="cls-22" d="M325.75,531.46c9.74,14.2,48.46,1.1,48.93,3.29.52,2.44-46.37,23.5-57.57,8.41-9.77-13.17,14-45.36,15-44.91C332.89,498.61,318.06,520.27,325.75,531.46Z"/><path class="cls-23" d="M362.88,603.24c7.51,3,18.87,10.64,20,21,1.69,15.57-20.48,29.91-38,34-18.45,4.32-45.48.51-54.86-17.72-6.06-11.79-5.25-30.6,4.86-36.28,7-3.92,17.65-.84,24,5C330.56,620,328,640.5,329.64,640.47c2,0-2.16-30,11.24-38.23C348.63,597.49,359.34,601.82,362.88,603.24Z"/><path class="cls-17" d="M457.17,712.71l16.08,11.43A218.41,218.41,0,0,0,566.5,592.89l-16.09-11.43a249.57,249.57,0,0,1-93.24,131.25Z"/><path class="cls-18" d="M533.11,615.18c-16.64-18.77-.14-65.48,28.95-75.35,9.43-3.21,23.4-3.63,33,4.28,17.77,14.69,15.69,54.35-7.61,71.44C570.9,627.65,544.42,627.94,533.11,615.18Z"/><rect class="cls-18" x="511" y="544" width="60" height="18" rx="9" transform="translate(1194.14 138.4) rotate(101.96)"/><rect class="cls-18" x="543" y="527" width="60" height="18" rx="9" transform="translate(1341.81 379.29) rotate(125.39)"/><rect class="cls-18" x="573" y="530" width="60" height="18" rx="9" transform="translate(1410.52 493.75) rotate(135)"/><rect class="cls-18" x="577" y="561" width="60" height="18" rx="9" transform="translate(-225.41 548.91) rotate(-41.75)"/><path class="cls-26" d="M446.52,725.19c4.48,5.79,7.51,14.55,3.26,17.93-4.85,3.84-15.15-2.45-21.72,1.71-6.09,3.85.36,12.2-5.43,16.21-5.35,3.71-18.22,1.92-25-3.41-6.31-5-4.87-11.1-10.86-12.8-4.68-1.34-7.14,2-11.94.85-9-2.08-14-16.75-8.69-20.49,2.5-1.77,5.84-.05,7.6-1.7,4.11-3.86-11.61-15.53-7.6-20.49,2.56-3.17,12.65-2.94,19.54,0,7.62,3.25,7.77,8.3,11.95,8.54,8.78.5,15.83-21.42,20.63-20.49,3.17.62-.36,8.64,5.43,17.07C429.88,717.1,439.08,715.6,446.52,725.19Z"/><path class="cls-26" d="M625.38,703c4.48,5.78,7.51,14.54,3.26,17.92-4.85,3.85-15.15-2.45-21.72,1.71-6.09,3.85.36,12.2-5.43,16.22-5.35,3.7-18.22,1.91-25-3.42-6.31-5-4.87-11.09-10.86-12.8-4.68-1.34-7.14,2-11.94.85-9-2.08-14-16.75-8.69-20.48,2.5-1.77,5.84-.06,7.6-1.71,4.11-3.86-11.61-15.53-7.6-20.48,2.56-3.17,12.65-2.95,19.55,0,7.61,3.25,7.76,8.29,11.94,8.53,8.78.51,15.83-21.42,20.63-20.48,3.17.61-.36,8.63,5.43,17.07C608.74,694.88,617.94,693.39,625.38,703Z"/><path class="cls-26" d="M596.2,894.24c-2.71,4.25-4.53,10.68-2,13.16,2.93,2.83,9.15-1.8,13.11,1.26,3.68,2.83-.22,9,3.28,11.9,3.23,2.73,11,1.41,15.07-2.5,3.81-3.65,2.94-8.15,6.56-9.4,2.82-1,4.3,1.44,7.2.62,5.43-1.53,8.43-12.3,5.25-15-1.51-1.3-3.53,0-4.59-1.25-2.48-2.83,7-11.4,4.59-15-1.55-2.33-7.64-2.17-11.8,0-4.6,2.38-4.68,6.09-7.21,6.26-5.3.37-9.55-15.73-12.45-15-1.91.45.22,6.34-3.28,12.54C606.24,888.3,600.69,887.2,596.2,894.24Z"/></g><g id="Layer_2" data-name="Layer 2"><rect class="cls-27" x="1236" y="739" width="684" height="27"/><rect class="cls-28" x="1292" y="766" width="569" height="76"/><path class="cls-29" d="M1918.61,739h-682l56-117h569Z"/><rect class="cls-28" x="1292" y="493" width="569" height="153"/><rect class="cls-27" x="1230" y="466" width="684" height="27"/><path class="cls-29" d="M1912.5,466h-682q28-58.5,56-117h569Z"/><rect class="cls-28" x="1293" y="4" width="569" height="76"/><rect class="cls-27" x="1236" y="185" width="684" height="27"/><path class="cls-29" d="M1919,185H1237l56-117h569Z"/><rect class="cls-28" x="1287" y="212" width="569" height="153"/><rect class="cls-30" x="1425" y="337.8" width="252.11" height="88.2"/><path class="cls-31" d="M1731,402.79,1677.11,426V337.8l53.89-25Z"/><path class="cls-32" d="M1677.11,337.8H1425l58.58-25H1731Z"/><path class="cls-33" d="M1704,331.42c-.6.13-8.57,1.87-9.75,0a1.26,1.26,0,0,1,0-1.17,7.1,7.1,0,0,0,0,1.17,162.83,162.83,0,0,0,.86-20.27c-.06-4.45-.09-6.72-.57-8.85a35.75,35.75,0,0,0-7.17-13.74c-9.7-11.41-63.49-5.81-112.42-6.76,0,0-82.89-1.61-92.35,7.45a20.47,20.47,0,0,0-5.4,8.47,28.78,28.78,0,0,0-.56,3.75,86.58,86.58,0,0,0-.51,10.08s0,6.69.71,19.29l-7.43.58a140.6,140.6,0,0,1-1.43-22.6c.08-2.68.18-1.86.57-8.62.22-3.83.29-5.83,1.15-8.62a25.18,25.18,0,0,1,1.72-4.19,12.74,12.74,0,0,1,2.29-3.73c6.46-7.32,20.74-7.21,25.53-7.22,25.78,0,51.37-4.2,77.14-4.42,29.17-.26,58.31,2.78,87.47,2.33,4.88-.08,17.65-.37,28.11,6.29a31,31,0,0,1,7.17,6.28A73.82,73.82,0,0,1,1704,301.6,70.74,70.74,0,0,1,1704,331.42Z"/></g><g id="Layer_6" data-name="Layer 6"><path class="cls-34" d="M1743,739a84.16,84.16,0,0,1-18-37c-6.86-33.68,10.08-60.22,14-66l85.43,24.09A109.35,109.35,0,0,0,1829,671a29.67,29.67,0,0,1,2,5,28.91,28.91,0,0,1,1,5c-2.17-.74-52.31-17.48-73-10-3.81,1.38-10,3.62-12.94,9.23-1.66,3.18-3.11,9-3.11,14.95h0a41.77,41.77,0,0,0,3.93,15.82,21.16,21.16,0,0,0,1,2.14,31.78,31.78,0,0,0,3.3,4.89c2,2.42,33.86-2.77,76.81-15-2,8.09-3,12-3,12Z"/><rect class="cls-35" x="1625" y="667" width="109" height="34" rx="12"/><rect class="cls-36" x="1625" y="666.55" width="109" height="30" rx="12"/><path class="cls-37" d="M1742.49,730.41c-2.78-3.21-15.41-18.46-17.54-44.26-2.54-30.61,11.76-51.11,13.76-53.87L1824.62,654a65.23,65.23,0,0,0,4.23,17.38c.71,1.77,1.46,3.37,2.21,4.81,0,0-74-25.08-84.93-6.52a24,24,0,0,0-3.2,11.26,24.72,24.72,0,0,0,3.82,11.88A19.57,19.57,0,0,0,1751,698c4.89,4.42,37.12-.73,80.27-13.1q-.49,2.57-1,5.16-2,9.48-4.2,18.14Z"/><path class="cls-22" d="M1482.26,685.06a10.58,10.58,0,0,0,1,9.81c10.56,15.94,64-12.47,70.74-1.87,5.31,8.4-16.28,45.2-48.74,46-26.17.64-52-22.3-52-51,0-31.17,30.58-48.4,52-51,18.14-2.19,43.7,4.44,49.74,21,.94,2.58,3.28,9,.26,14.31C1545.11,690.28,1489.6,669.41,1482.26,685.06Z"/><rect class="cls-35" x="1371" y="675" width="94" height="35" rx="12"/><rect class="cls-36" x="1371" y="673" width="94" height="30" rx="12"/><path class="cls-37" d="M1482,676c-1.91,4.77.83,9.7,1,10,10.55,18.39,65.85-4.44,71.26,6.69,4.08,8.41-19.27,38.09-49.26,38.31-26.25.19-52-22.21-52-52,0-30.42,26.9-51.46,52-52,29.27-.63,53.68,26.67,50,36C1549.89,676,1489.24,657.88,1482,676Z"/><path class="cls-38" d="M1746,168c-6.69,1.57-10.85.4-13.42-1-4.33-2.35-5.11-5.82-8.58-6-4.23-.23-5.44,4.79-9.75,4.65s-4.67-5-9.25-5.65c-5-.73-7,4.82-12.12,4.06-4.38-.64-4.77-4.93-8.88-5.06-4.26-.14-5.76,4.4-9.24,3.72s-3.71-5.49-6.76-5.72-4.11,4.6-7.53,4.66-4.34-5.09-8.47-5.66c-3.89-.54-4.88,3.79-9.42,4.33-6.36.77-8.44-7.23-15.58-7.33-5.71-.08-6.43,5-12.79,5.23s-7-4.58-14.21-5.23-8.45,4-15.13,3.06c-7-1-8-6.51-13.87-6.06-5.09.39-6.11,4.73-10.62,4.24s-5-5-9.38-5.24-5.8,4.36-9.82,3.82-4.2-5.21-8.18-5.82c-4.24-.66-5.66,4.41-10.39,4.44-5.63,0-6.77-7.07-12.61-7.44-5.48-.35-6.85,5.75-12.74,5.56-5.62-.18-6.77-5.83-12.26-5.56-4.76.23-6,4.57-9.88,3.92s-4.35-5.54-8.12-5.92-4.86,4.47-9.09,4.65c-5.12.22-6.7-6.75-11.91-6.65-4.48.08-5.56,5.27-9.82,5s-4.7-5.42-9.18-6-6.06,4.63-11.39,4.5c-4.89-.12-5.65-4.57-10.61-4.5-4.53.07-5.4,3.8-9.47,3.34s-4.79-4.43-8.53-4.34c-3.33.08-4.06,3.26-7,3-3.18-.29-3.75-4.14-7-5-1.83-.48-4.66-.06-9,4q5.51-25.5,11-51h396Z"/><path class="cls-4" d="M1748.69,168.31c-6.77,1.44-11,.37-13.59-.91-4.37-2.14-5.16-5.32-8.68-5.49-4.28-.21-5.5,4.38-9.87,4.25s-4.72-4.57-9.36-5.17c-5.12-.66-7.07,4.41-12.27,3.72-4.43-.59-4.83-4.51-9-4.63-4.31-.13-5.82,4-9.36,3.4s-3.74-5-6.84-5.23-4.16,4.21-7.62,4.26-4.39-4.65-8.57-5.18c-3.94-.49-4.94,3.47-9.53,4-6.44.7-8.55-6.62-15.78-6.72-5.77-.07-6.51,4.59-12.94,4.79s-7.14-4.19-14.39-4.79-8.55,3.67-15.32,2.8c-7.13-.91-8.14-5.95-14-5.54-5.15.36-6.18,4.33-10.74,3.88s-5.1-4.58-9.5-4.8-5.87,4-10,3.5-4.25-4.77-8.27-5.33c-4.3-.6-5.73,4-10.52,4.07-5.7,0-6.85-6.47-12.77-6.81-5.54-.32-6.93,5.26-12.89,5.09-5.7-.17-6.85-5.34-12.41-5.09-4.82.21-6,4.18-10,3.59s-4.4-5.08-8.21-5.43-4.92,4.09-9.2,4.26c-5.19.2-6.79-6.18-12.06-6.09-4.54.08-5.63,4.83-9.94,4.59s-4.76-5-9.3-5.5-6.13,4.24-11.53,4.12c-4.94-.12-5.72-4.19-10.74-4.12-4.58.06-5.47,3.48-9.58,3.06s-4.85-4.06-8.64-4c-3.37.08-4.11,3-7.08,2.75-3.23-.26-3.8-3.79-7.09-4.58-1.85-.44-4.71-.05-9.11,3.66q5.57-23.34,11.14-46.68H1774Q1761.34,132.15,1748.69,168.31Z"/><rect class="cls-36" x="1744" y="83" width="92" height="92" rx="12.52"/><path class="cls-39" d="M1810.72,162h-40.44A11.28,11.28,0,0,1,1759,150.72V104.28A11.28,11.28,0,0,1,1770.28,93h40.44c5.45-1,10,.88,11.28,4a5.88,5.88,0,0,1,0,4,11.14,11.14,0,0,0-3,4c-.18.42-2.2,5.17,0,9,1.29,2.24,3,2.46,3,4s-1.86,1.71-3,4c-1.46,2.93-.24,6.32,0,7,1.1,3.06,2.71,2.94,3,5,.41,2.93-2.77,4.18-4,8-.59,1.84-.88,4.74,1,9,.34.38,2.66,3,2,6C1820.25,160.36,1815.87,163.06,1810.72,162Z"/></g></svg>