<svg id="Layer_1" data-name="Layer 1" xmlns="http://www.w3.org/2000/svg" xmlns:xlink="http://www.w3.org/1999/xlink" width="150" height="137" viewBox="0 0 150 137"><defs><style>.cls-1{fill:#d62222;}.cls-2{fill:url(#radial-gradient);}.cls-3{fill:#0c0f11;}.cls-4{fill:#f2f3f4;}.cls-5{fill:#0c0c0c;}.cls-6{fill:#c13e54;}.cls-7{fill:#c66073;}.cls-8{fill:#070102;}.cls-9{fill:#f2f2f2;}</style><radialGradient id="radial-gradient" cx="307.36" cy="134.44" r="268.98" gradientTransform="translate(22.66 15.95) scale(0.17 0.17)" gradientUnits="userSpaceOnUse"><stop offset="0" stop-color="#fff"/><stop offset="1" stop-color="#73d8e0"/></radialGradient></defs><path class="cls-1" d="M143,131H7.4a2.08,2.08,0,0,1-2.07-2.09c0-9.52-.12-18.52-.13-32.28,0-6.35,0-19.66.08-24.1,0-.18,0-1,0-2.23,0-2,0-3.62,0-4.87A184.92,184.92,0,0,1,34,22.85,181.48,181.48,0,0,1,51.79,5.6c10,0,87.37-.19,89.14,0a2.43,2.43,0,0,1,1.46.61,2,2,0,0,1,.55,1,1.74,1.74,0,0,1,.06.47Z"/><path class="cls-2" d="M135.78,65.25,15.32,64.73A195.51,195.51,0,0,1,32.87,35.86,193.42,193.42,0,0,1,46.8,19a30.54,30.54,0,0,1,4-4,6.27,6.27,0,0,1,3-1.51,4,4,0,0,1,.47-.06h78.64a2,2,0,0,1,1.46.62,2.51,2.51,0,0,1,.61,1.47C135,16.73,135.39,37.25,135.78,65.25Z"/><rect class="cls-3" x="114.95" y="71.86" width="20.82" height="4.87" rx="2.3"/><ellipse class="cls-3" cx="73.65" cy="28.9" rx="7.57" ry="11.83"/><ellipse class="cls-4" cx="73.56" cy="30.73" rx="4.73" ry="4.78"/><ellipse class="cls-3" cx="94.99" cy="28.9" rx="7.57" ry="11.83"/><ellipse class="cls-4" cx="94.9" cy="30.73" rx="4.73" ry="4.78"/><path class="cls-5" d="M82.9,42.07c1.67,2.47,8.33.19,8.42.57s-8,4.09-9.91,1.47c-1.68-2.29,2.4-7.89,2.57-7.81S81.57,40.12,82.9,42.07Z"/><path class="cls-6" d="M96,55.17c-5.9,5.16-8.85,7.74-12.56,7.65C77,62.66,72.63,55.55,68.31,48.56,65.62,44.19,66,43.29,66.25,43c1.47-2.06,8.4,3.3,18.76,4,11.21.76,18.45-4.49,19.61-2.43S98.94,52.61,96,55.17Z"/><path class="cls-7" d="M89.14,52.9c1.29.53,3.24,1.85,3.44,3.66.29,2.7-3.53,5.2-6.54,5.91-3.17.75-7.83.09-9.44-3.08-1-2-.9-5.33.84-6.31,1.2-.68,3-.15,4.13.87,2,1.87,1.56,5.43,1.85,5.43s-.37-5.22,1.93-6.65C86.69,51.9,88.53,52.66,89.14,52.9Z"/><path class="cls-8" d="M40,89.45l1.62,3a37.49,37.49,0,0,0,15-5.18A38,38,0,0,0,66,79.17l-1.62-3A42.89,42.89,0,0,1,40,89.45Z"/><path class="cls-8" d="M96.54,76.18,94.9,79.24a37.49,37.49,0,0,0,12.46,9.88,36.85,36.85,0,0,0,11.88,3.49l1.64-3.06a42.17,42.17,0,0,1-11.75-3.82A42.63,42.63,0,0,1,96.54,76.18Z"/><path class="cls-9" d="M45.08,93c.39,4.34-6.66,9.18-11.7,7.56a6.15,6.15,0,0,1-4.13-4c-1-3.89,3.38-9.23,8.35-9.22C41.12,87.35,44.82,90,45.08,93Z"/><ellipse class="cls-9" cx="123.64" cy="94.56" rx="6.8" ry="5.65"/><path class="cls-9" d="M31.63,93.69l-6.58,3A1.56,1.56,0,0,1,23,95.94h0a1.58,1.58,0,0,1,.77-2.07l6.58-3a1.55,1.55,0,0,1,2,.78h0A1.56,1.56,0,0,1,31.63,93.69Z"/><path class="cls-9" d="M29.91,86.31l7.26.72a1.55,1.55,0,0,1,1.39,1.69h0a1.58,1.58,0,0,1-1.72,1.39l-7.26-.71a1.54,1.54,0,0,1-1.39-1.7h0A1.58,1.58,0,0,1,29.91,86.31Z"/><path class="cls-9" d="M35.81,100.85l-6.58,3a1.56,1.56,0,0,1-2.05-.78h0A1.58,1.58,0,0,1,28,101l6.58-3a1.55,1.55,0,0,1,2,.78h0A1.56,1.56,0,0,1,35.81,100.85Z"/><path class="cls-9" d="M32,98.42l-6.58,3a1.54,1.54,0,0,1-2.05-.78h0a1.57,1.57,0,0,1,.77-2.07l6.58-3a1.54,1.54,0,0,1,2,.78h0A1.58,1.58,0,0,1,32,98.42Z"/><path class="cls-9" d="M130.72,91.2l6.05,4a1.59,1.59,0,0,1,.45,2.17h0a1.55,1.55,0,0,1-2.15.45l-6-4a1.58,1.58,0,0,1-.44-2.17h0A1.54,1.54,0,0,1,130.72,91.2Z"/><path class="cls-9" d="M129.52,95.2l6,4a1.57,1.57,0,0,1,.45,2.17h0a1.53,1.53,0,0,1-2.14.45l-6.05-4a1.59,1.59,0,0,1-.45-2.17h0A1.55,1.55,0,0,1,129.52,95.2Z"/><path class="cls-9" d="M129.45,104.1l-6-4a1.57,1.57,0,0,1-.45-2.17h0a1.53,1.53,0,0,1,2.14-.45l6,4a1.57,1.57,0,0,1,.45,2.17h0A1.54,1.54,0,0,1,129.45,104.1Z"/><rect class="cls-9" x="122.67" y="87.46" width="10.44" height="3.84" rx="1.71" transform="translate(-26.74 68.54) rotate(-27.28)"/></svg>