<svg id="Layer_1" data-name="Layer 1" xmlns="http://www.w3.org/2000/svg" xmlns:xlink="http://www.w3.org/1999/xlink" width="150" height="136" viewBox="0 0 150 136"><defs><style>.cls-1{fill:#0a0a0a;}.cls-2{fill:#68e9f2;}.cls-3{fill:#fff208;}.cls-4{fill:#0b0c0c;}.cls-5{fill:#525656;}.cls-6{fill:#565b5b;}.cls-7{fill:#0e0f0f;}.cls-8{fill:#ea1845;}.cls-9{fill:url(#radial-gradient);}.cls-10{fill:#877e81;}.cls-11{fill:#070102;}.cls-12{fill:#f2f2f2;}.cls-13{fill:#0c0f11;}.cls-14{fill:#f2f3f4;}.cls-15{fill:#c13e54;}.cls-16{fill:#0c0c0c;}.cls-17{fill:#c66073;}.cls-18{fill:#e2d20e;}.cls-19{fill:url(#linear-gradient);}.cls-20{fill:url(#linear-gradient-2);}.cls-21{fill:url(#linear-gradient-3);}.cls-22{fill:url(#linear-gradient-4);}.cls-23{fill:url(#linear-gradient-5);}.cls-24{fill:url(#linear-gradient-6);}.cls-25{fill:url(#linear-gradient-7);}.cls-26{fill:url(#linear-gradient-8);}</style><radialGradient id="radial-gradient" cx="-162.38" cy="1489.1" r="46.61" gradientTransform="translate(146.39 -783.37) scale(0.48 0.56)" gradientUnits="userSpaceOnUse"><stop offset="0.08" stop-color="#fff"/><stop offset="1" stop-color="#6ff"/></radialGradient><linearGradient id="linear-gradient" x1="92.61" y1="20.78" x2="92.82" y2="32.35" gradientUnits="userSpaceOnUse"><stop offset="0" stop-color="#fff"/><stop offset="1" stop-color="#66feff"/></linearGradient><linearGradient id="linear-gradient-2" x1="98.36" y1="25.1" x2="98.56" y2="36.67" xlink:href="#linear-gradient"/><linearGradient id="linear-gradient-3" x1="102.69" y1="34.06" x2="102.9" y2="45.63" xlink:href="#linear-gradient"/><linearGradient id="linear-gradient-4" x1="89.93" y1="17.2" x2="90.14" y2="28.77" xlink:href="#linear-gradient"/><linearGradient id="linear-gradient-5" x1="94.64" y1="34.06" x2="94.85" y2="45.63" xlink:href="#linear-gradient"/><linearGradient id="linear-gradient-6" x1="98.36" y1="42.42" x2="98.56" y2="53.98" xlink:href="#linear-gradient"/><linearGradient id="linear-gradient-7" x1="103.05" y1="50.15" x2="103.26" y2="61.71" xlink:href="#linear-gradient"/><linearGradient id="linear-gradient-8" x1="98.34" y1="56.53" x2="98.55" y2="68.09" xlink:href="#linear-gradient"/></defs><path class="cls-1" d="M134.35,95.93l-3.7,1.21c1-2.74,9.63-28.69-.79-56.82C121.74,18.38,107.48,9.9,104.3,8.12l2.35-3.26c4.65,2.73,18.64,11.86,26.78,32.24C144.59,65.05,135.78,91.78,134.35,95.93Z"/><path class="cls-2" d="M137.13,88.25c-.12,4.21-2.91,4.38-4.09,10-1.28,6.15,1.41,8.9-.37,11.85s-5.1.87-10.16,3.94c-3.14,1.91-3.22,3.56-6.57,7-2,2.07-8.76,9-15.86,8.36s-8.86-8.25-13.64-6.84-4.63,9.32-9.29,10.33c-3.81.82-5-4.23-10.78-6.08-5.64-1.79-7.44,2-16.86,3.35-4,.55-10.25,1.33-17-1.83-.54-.25-12.84-6.2-12.89-14.73,0-4.83,3.89-7.41,2.85-9.87-1.48-3.52-9.9.56-11.89-3.5-1.14-2.3.17-6.49,1.86-8.81,1.94-2.67,4.05-2.37,4.46-4.4.5-2.52-2.5-4-2.23-7.14a6.58,6.58,0,0,1,3.71-5c3.38-1.56,7.14,1.19,8.06,1.83,2.17,1.49,5.1,2.47,44,2,0,0,33.8-.43,42.88-3.34a17.85,17.85,0,0,1,3.35-.76,22.48,22.48,0,0,1,6.81.3c3.37.56,5.05.84,6.32,1.52C133.36,78.3,137.28,83.17,137.13,88.25Z"/><path class="cls-3" d="M94.93,22.18l-2.65-4.54h0l.31-.41L103.94,2.9a1,1,0,0,1,1.54.41,9.11,9.11,0,0,1,3.77,3.84,12.17,12.17,0,0,1,1.41,5,1.82,1.82,0,0,1,.22,1,1.31,1.31,0,0,1-.41.88Z"/><ellipse class="cls-4" cx="46.54" cy="103.29" rx="11.77" ry="12.76"/><ellipse class="cls-5" cx="48.95" cy="101.01" rx="6.75" ry="8.81"/><ellipse class="cls-4" cx="48.89" cy="102.15" rx="4.21" ry="3.57" transform="translate(-57.64 140.56) rotate(-84.25)"/><path class="cls-4" d="M108.13,104.58c.12,10.57-11.58,19.06-19,15.11-4.18-2.23-7.67-8.84-7.68-15v-.08c0-6.35,5.55-15.11,13.32-15.11C102.22,89.47,108.05,97.2,108.13,104.58Z"/><ellipse class="cls-6" cx="98.53" cy="102.15" rx="10.72" ry="15.57"/><ellipse class="cls-7" cx="95.86" cy="98.2" rx="4.96" ry="7.06"/><path class="cls-8" d="M37.31,74.13q-.47-31.84.2-31.89s0,0,.05,0c0-8.47,5.35-15.4,11.88-15.4H88.19c6.54,0,11.89,6.93,11.89,15.4q.12,15.8.25,31.59Z"/><path class="cls-8" d="M107.64,75.64c0,6.25-.3,13.37-2.23,13.83-1.73.4-3.07-4.79-6.82-5a3.43,3.43,0,0,0-2.11.46c-2.54,1.62-2.39,6.89-2.72,8.81-2.32,13.28-53,12-60.36.76a20,20,0,0,1-2.85-6.23,56.7,56.7,0,0,1-.62-10h0a30,30,0,0,1,7.44-17.62c2.15-2.42,7-6.61,30.48-6.38,18.67.18,31,.49,36.44,10.17A30.88,30.88,0,0,1,107.64,75.64Z"/><path class="cls-9" d="M95,58.94h0a8.07,8.07,0,0,1-2,1.67c-6.92,3.91-24.29,2.88-24.29,2.88C54,62.62,44,64.83,41.33,59.39a17.22,17.22,0,0,1-1.11-3.19A33.51,33.51,0,0,1,40,50c.17-3.34.5-9.9,4.49-14.44a12.66,12.66,0,0,1,8.36-4.26H83.9a13,13,0,0,1,8.36,4.26c5.32,5.85,4.61,14.81,4.42,16.7A24.7,24.7,0,0,1,95,58.94Z"/><path class="cls-10" d="M99.82,93.39C85.63,103.78,67,104.48,67,104.48c-1.65.07-31.9,1.07-33-5.77a4.72,4.72,0,0,1,.34-2.88c1-1.87,3.78-1.23,4.81-1A158.22,158.22,0,0,0,66.8,98.1a35.27,35.27,0,0,0,6.8-.56A32.36,32.36,0,0,0,77,96.72C84.13,94.62,89.65,93,95.41,89c1.84-1.29,4-3.07,5.88-2.07a3,3,0,0,1,1.56,2.3C103,91.07,100.66,92.78,99.82,93.39Z"/><path class="cls-11" d="M34.6,69.56l-1.06,2.7a28.16,28.16,0,0,0,9.35,8,22.89,22.89,0,0,0,8.65,2.53l1.06-2.71A26.44,26.44,0,0,1,44,77.29,31.67,31.67,0,0,1,34.6,69.56Z"/><path class="cls-12" d="M57.52,89c-2,2.92-8,1.49-9.77-2.65a6.53,6.53,0,0,1-.08-5c1.48-3,6.38-3.58,8.9-.46C58.35,83.08,58.87,87.06,57.52,89Z"/><path class="cls-12" d="M56.57,94l-4.25-3.7a1.58,1.58,0,0,1-.26-1.9h0a1,1,0,0,1,1.56-.33l4.24,3.7a1.56,1.56,0,0,1,.26,1.9h0A1,1,0,0,1,56.57,94Z"/><path class="cls-12" d="M59.78,91.68,55.54,88a1.59,1.59,0,0,1-.27-1.91h0a1,1,0,0,1,1.56-.32l4.24,3.7a1.58,1.58,0,0,1,.27,1.9h0A1,1,0,0,1,59.78,91.68Z"/><path class="cls-12" d="M61,87.88l-4.24-3.7a1.58,1.58,0,0,1-.27-1.9h0A1,1,0,0,1,58.07,82l4.24,3.7a1.59,1.59,0,0,1,.27,1.91h0A1,1,0,0,1,61,87.88Z"/><rect class="cls-12" x="52.61" y="78.53" width="7.44" height="2.73" rx="0.67"/><ellipse class="cls-13" cx="61.16" cy="43.9" rx="5.45" ry="10.33"/><ellipse class="cls-13" cx="75.29" cy="43.9" rx="5.45" ry="10.33"/><ellipse class="cls-14" cx="62.96" cy="45.19" rx="3.41" ry="4.18"/><ellipse class="cls-14" cx="73.25" cy="45.19" rx="3.41" ry="4.18"/><path class="cls-15" d="M76.45,66.19c-4.25,4.51-6.38,6.77-9,6.69-4.64-.14-7.8-6.35-10.91-12.46-1.94-3.81-1.64-4.6-1.48-4.86,1.05-1.8,6,2.88,13.5,3.49,8.08.66,13.29-3.92,14.13-2.12S78.55,64,76.45,66.19Z"/><path class="cls-16" d="M66.48,54.46c1.2,2.16,6,.17,6.06.5s-5.75,3.57-7.13,1.28c-1.22-2,1.73-6.89,1.85-6.82S65.52,52.76,66.48,54.46Z"/><path class="cls-17" d="M70.71,63.85A4.37,4.37,0,0,1,73.18,67c.21,2.36-2.53,4.54-4.71,5.16s-5.63.08-6.79-2.69c-.75-1.79-.65-4.65.6-5.51.86-.6,2.19-.13,3,.76,1.45,1.63,1.13,4.75,1.34,4.74s-.27-4.56,1.39-5.8C68.94,63,70.27,63.63,70.71,63.85Z"/><path class="cls-18" d="M105.77,16.69a7.69,7.69,0,0,0,.2-7.32,5.07,5.07,0,0,0-5.26-2.67L104.05,3h0l1.68,0a5.09,5.09,0,0,1,2.09,1.14,7.35,7.35,0,0,1,1.65,2.64,16.53,16.53,0,0,1,1.23,4.12,18.3,18.3,0,0,1,.22,1.86,1.6,1.6,0,0,1,0,.54,1.57,1.57,0,0,1-.57.91Z"/><path class="cls-19" d="M94.87,25.21c.68,2.17.6,2.91.5,3.35-.3,1.31-1.37,2.81-2.79,2.73A3,3,0,0,1,90.16,29c-.11-.38-.3-1.24.5-3.8a24.66,24.66,0,0,1,2.11-4.86A24.72,24.72,0,0,1,94.87,25.21Z"/><path class="cls-20" d="M100.61,29.53c.68,2.17.6,2.91.5,3.34-.3,1.31-1.37,2.81-2.79,2.74a3,3,0,0,1-2.42-2.28c-.11-.38-.3-1.24.5-3.8a24.41,24.41,0,0,1,2.11-4.86A24.72,24.72,0,0,1,100.61,29.53Z"/><path class="cls-21" d="M105,38.49c.68,2.17.59,2.91.5,3.35-.3,1.31-1.37,2.81-2.79,2.73a3,3,0,0,1-2.42-2.28c-.11-.38-.3-1.24.5-3.8a24.52,24.52,0,0,1,2.1-4.86A24.86,24.86,0,0,1,105,38.49Z"/><path class="cls-22" d="M92.19,21.63c.68,2.17.59,2.91.49,3.34-.29,1.31-1.36,2.81-2.79,2.74a3,3,0,0,1-2.41-2.28c-.12-.38-.3-1.24.49-3.8a25,25,0,0,1,2.11-4.86A25.49,25.49,0,0,1,92.19,21.63Z"/><path class="cls-23" d="M96.9,38.49c.68,2.17.59,2.91.49,3.35-.29,1.31-1.37,2.81-2.79,2.73a3,3,0,0,1-2.41-2.28c-.12-.38-.3-1.24.49-3.8a25.28,25.28,0,0,1,2.11-4.86A25.49,25.49,0,0,1,96.9,38.49Z"/><path class="cls-24" d="M100.61,46.85c.68,2.17.6,2.91.5,3.34-.3,1.31-1.37,2.81-2.79,2.73a3,3,0,0,1-2.42-2.27c-.11-.39-.3-1.24.5-3.8A24.41,24.41,0,0,1,98.51,42,24.72,24.72,0,0,1,100.61,46.85Z"/><path class="cls-25" d="M105.31,54.58c.68,2.17.59,2.91.49,3.34-.29,1.31-1.36,2.81-2.78,2.73a3,3,0,0,1-2.42-2.28c-.12-.38-.3-1.23.49-3.79a24.76,24.76,0,0,1,2.11-4.86A25.49,25.49,0,0,1,105.31,54.58Z"/><path class="cls-26" d="M100.6,61c.68,2.17.59,2.91.49,3.34-.29,1.31-1.36,2.81-2.78,2.73a3,3,0,0,1-2.42-2.28c-.12-.38-.3-1.23.49-3.79a24.76,24.76,0,0,1,2.11-4.86A25.49,25.49,0,0,1,100.6,61Z"/><path class="cls-11" d="M85,82.48l2.16,1.86a28.67,28.67,0,0,0,10.64-6.17,23.5,23.5,0,0,0,5.3-7.3L101,69a27,27,0,0,1-5.54,7.14A32,32,0,0,1,85,82.48Z"/><path class="cls-12" d="M78.15,89c-2.35-2.64.5-8.14,4.95-8.83A6.52,6.52,0,0,1,88,81.29c2.55,2.16,1.92,7.06-1.72,8.74C83.73,91.23,79.75,90.77,78.15,89Z"/><rect class="cls-12" x="76.38" y="79.78" width="7.44" height="2.73" rx="0.67" transform="translate(137.58 179.62) rotate(-165.64)"/><path class="cls-12" d="M80.4,84.35l-5.32,1.83a1.58,1.58,0,0,1-1.78-.72h0A1,1,0,0,1,73.8,84l5.32-1.84a1.58,1.58,0,0,1,1.78.73h0A1,1,0,0,1,80.4,84.35Z"/><path class="cls-12" d="M80.56,88.05l-5.32,1.84a1.58,1.58,0,0,1-1.78-.73h0a1,1,0,0,1,.5-1.51l5.32-1.83a1.58,1.58,0,0,1,1.78.73h0A1,1,0,0,1,80.56,88.05Z"/><path class="cls-12" d="M82.56,91.05l-5.32,1.84a1.58,1.58,0,0,1-1.78-.73h0a1,1,0,0,1,.5-1.51l5.32-1.83a1.58,1.58,0,0,1,1.78.73h0A1,1,0,0,1,82.56,91.05Z"/></svg>