<svg id="Layer_1" data-name="Layer 1" xmlns="http://www.w3.org/2000/svg" width="150" height="136" viewBox="0 0 150 136"><defs><style>.cls-1{fill:#f91536;}.cls-2{fill:#fffdfd;}.cls-3{fill:#050505;}.cls-4{fill:#0c0f11;}.cls-5{fill:#f2f3f4;}</style></defs><polygon class="cls-1" points="76.5 2.81 111.75 65.9 147 129 76.5 129 6 129 41.25 65.9 76.5 2.81"/><polygon class="cls-2" points="125.37 116.49 74.91 115.74 24.44 114.99 50.27 69.7 76.09 24.41 100.73 70.45 125.37 116.49"/><path class="cls-3" d="M75.65,103.75l-3.21-.1c-1.3-18.91-2.29-31.84-2.71-33.54A2.81,2.81,0,0,1,70,67.89a3.46,3.46,0,0,1,1.48-1.21,7.22,7.22,0,0,1,7,0A3.14,3.14,0,0,1,80,67.89a2.17,2.17,0,0,1,.25,1.21C80.11,70.28,78.25,84.42,75.65,103.75Z"/><ellipse class="cls-3" cx="73.54" cy="108.87" rx="3.92" ry="4.21"/><ellipse class="cls-4" cx="65.58" cy="50.31" rx="9.33" ry="15.47"/><ellipse class="cls-4" cx="84.88" cy="50.31" rx="9.33" ry="15.47"/><ellipse class="cls-5" cx="62.09" cy="54.29" rx="5.83" ry="6.25"/><ellipse class="cls-5" cx="81.59" cy="54.29" rx="5.83" ry="6.25"/></svg>