<svg id="Layer_1" data-name="Layer 1" xmlns="http://www.w3.org/2000/svg" width="150" height="136" viewBox="0 0 150 136"><defs><style>.cls-1{fill:#0f0f0e;}.cls-2{fill:#070606;}.cls-3{fill:#c67514;}.cls-4{fill:#ce5e11;}.cls-5{fill:#0c0f11;}.cls-6{fill:#f2f3f4;}.cls-7{fill:#0c0c0c;}.cls-8{fill:#c13e54;}.cls-9{fill:#fcfcfc;}.cls-10{fill:#f9f9f9;}</style></defs><path class="cls-1" d="M132,125.12l-3.71,2.55c-5.33,3.67-13.17,2.92-17.44-1.65L55.52,66.74c-4.27-4.57-3.41-11.3,1.92-15l3.71-2.55c5.33-3.67,13.17-2.92,17.44,1.65l55.34,59.28C138.2,114.72,137.34,121.45,132,125.12Z"/><path class="cls-2" d="M105.47,45.43,44.55,87.34c-6.46,4.45-16,3.54-21.16-2l-18.68-20C-.47,59.78.58,51.61,7,47.16L68,5.25c6.46-4.44,16-3.54,21.16,2l18.68,20C113,32.81,111.94,41,105.47,45.43Z"/><path class="cls-3" d="M130.91,123.8h0c-5.32,3.67-13.17,2.92-17.44-1.65L55.79,60.37c-4.26-4.57-3.4-11.31,1.92-15h0c5.33-3.66,13.18-2.92,17.44,1.65l57.69,61.78C137.1,113.4,136.24,120.14,130.91,123.8Z"/><path class="cls-4" d="M103.57,43.46,45.36,83.51c-6.46,4.45-16,3.55-21.16-2l-16.78-18C2.24,58,3.29,49.82,9.75,45.37L68,5.32c6.46-4.44,16-3.54,21.16,2l16.78,18C111.08,30.84,110,39,103.57,43.46Z"/><ellipse class="cls-5" cx="37.78" cy="27.54" rx="8.33" ry="11.06"/><ellipse class="cls-5" cx="56.72" cy="21.85" rx="8.33" ry="11.06"/><ellipse class="cls-6" cx="34.65" cy="32.01" rx="5.21" ry="4.47"/><ellipse class="cls-6" cx="53.59" cy="26.32" rx="5.21" ry="4.47"/><path class="cls-7" d="M48.15,37.78c1.84,2.31,9.18.18,9.26.53s-8.78,3.82-10.9,1.37c-1.85-2.14,2.64-7.37,2.83-7.3S46.69,36,48.15,37.78Z"/><path class="cls-8" d="M63.7,49.57C58.57,55.49,56,58.45,52,59.13c-7,1.17-13.35-4.41-19.64-9.91-3.93-3.44-3.69-4.34-3.53-4.66,1.08-2.18,9.8,1.29,21.09-.19,12.23-1.61,18.77-7.88,20.51-6.24S66.23,46.65,63.7,49.57Z"/><path class="cls-9" d="M58.39,46.38c-1.21.44.39,4.86-.91,5.38s-3.9-3.82-6.34-3.38-2.79,5.24-4.08,5.17-1.4-4.47-2.74-4.58c-1.52-.13-2.82,5.36-4.27,5.23-1.28-.11-1.43-5-2.45-5-.75,0-.88,2.63-2.28,2.89-.86.15-1.72-.71-3.41-2.44-2-2-3.71-3.84-3-5a1.63,1.63,0,0,1,.76-.65c3-1.45,13.85.5,19.41.52,11.45,0,19.82-8,21.31-6.38.41.47,0,1.5-.76,3.58-.62,1.64-.93,2.46-1.71,2.76-1.65.65-3.59-1.5-4.54-1-1.35.75,1.34,5.72.38,6.18S59.72,45.9,58.39,46.38Z"/><path class="cls-10" d="M60.7,51.6c.08.06-4.76,8-11.39,7.87-4.42-.07-8.14-3.66-7.93-4s2.67,1,3.08.46-1.74-2.18-1.38-2.57,3.63,1.56,4.43.9-1-3-.64-3.18,2.52,3.07,3.6,2.76.61-3.23,1-3.25.55,2.76,1.28,2.83,1.13-2.07,1.75-2,.33,2.56,1.5,3C57.51,55.08,60.64,51.55,60.7,51.6Z"/></svg>