<svg xmlns="http://www.w3.org/2000/svg" xmlns:xlink="http://www.w3.org/1999/xlink" width="102" height="54" viewBox="0 0 102 54"><defs><style>.cls-1{fill:url(#linear-gradient);}.cls-2{fill:#f9f9f9;}</style><linearGradient id="linear-gradient" x1="51.12" y1="48.71" x2="52.89" y2="2.08" gradientUnits="userSpaceOnUse"><stop offset="0" stop-color="#040404"/><stop offset="1" stop-color="#3fa9f5"/></linearGradient></defs><g id="Layer_2" data-name="Layer 2"><rect class="cls-1" x="2" y="1" width="100" height="49" rx="12"/><path class="cls-2" d="M15.82,20.85c-1.16.11-1.27.18-1.27,1.36v5.62c0,1.17.12,1.22,1.27,1.34v.39H12.07v-.39c1.16-.14,1.27-.17,1.27-1.34V25H8.55v2.8c0,1.16.11,1.2,1.26,1.34v.39H6.07v-.39c1.14-.12,1.26-.17,1.26-1.34V22.21c0-1.18-.12-1.25-1.26-1.36v-.39H9.81v.39c-1.12.1-1.26.2-1.26,1.36v2.23h4.79V22.21c0-1.16-.15-1.26-1.27-1.36v-.39h3.75Z"/><path class="cls-2" d="M21.88,20.26a4.51,4.51,0,0,1,4.54,4.63,4.64,4.64,0,1,1-9.28.21A4.68,4.68,0,0,1,21.88,20.26Zm-.28.52c-1.57,0-3,1.32-3,3.94S20,29.24,22,29.24c1.69,0,3-1.26,3-4C25,22.34,23.43,20.78,21.6,20.78Z"/><path class="cls-2" d="M40.38,20.85c-1,.14-1.12.25-1.5,1.4-.46,1.4-1.59,5-2.36,7.47h-.47c-.73-2.19-1.67-4.89-2.4-7-.81,2.41-1.64,4.8-2.36,7h-.47c-.7-2.41-1.5-5-2.25-7.48-.37-1.14-.52-1.29-1.43-1.39v-.39H30.6v.39c-1,.11-1.06.27-.87,1,.55,1.89,1.11,3.75,1.68,5.73.77-2.23,1.61-4.67,2.33-7h.45c.78,2.38,1.56,4.59,2.38,7C37.16,25.7,38,23.21,38.26,22c.21-.82.1-1-1.09-1.14v-.39h3.21Z"/><path class="cls-2" d="M51.39,22.66a4.68,4.68,0,0,0-.45-1.16c-.22-.38-.36-.48-1.13-.48h-1.4v6.82c0,1.09.11,1.25,1.44,1.33v.39H45.77v-.39c1.31-.08,1.42-.22,1.42-1.33V21H45.91c-.77,0-1,.08-1.23.5a6.15,6.15,0,0,0-.46,1.14H43.8c.08-.86.17-1.74.21-2.52h.32c.21.33.37.32.76.32h5.55a.71.71,0,0,0,.71-.32h.34c0,.66.05,1.66.12,2.48Z"/><path class="cls-2" d="M57.69,20.26a4.51,4.51,0,0,1,4.54,4.63A4.64,4.64,0,1,1,53,25.1,4.67,4.67,0,0,1,57.69,20.26Zm-.28.52c-1.57,0-3,1.32-3,3.94s1.43,4.52,3.42,4.52c1.69,0,3-1.26,3-4C60.8,22.34,59.24,20.78,57.41,20.78Z"/><path class="cls-2" d="M70.39,20.46a3.93,3.93,0,0,1,2.36.6,2.37,2.37,0,0,1,.93,2,2.9,2.9,0,0,1-3.08,2.87,1.81,1.81,0,0,1-.38,0l-1-.25v2.19c0,1.17.1,1.2,1.39,1.34v.39H66.77v-.39C68,29.05,68,29,68,27.8V22.24c0-1.25-.15-1.28-1.26-1.39v-.39Zm-1.14,4.69a2.46,2.46,0,0,0,1,.18,2,2,0,0,0,2.11-2.24,2,2,0,0,0-2.19-2.15,1.29,1.29,0,0,0-.78.16c-.12.1-.16.27-.16.65Z"/><path class="cls-2" d="M81.87,27.24c-.09.43-.51,1.89-.65,2.32H74.71v-.39C76,29.05,76.1,29,76.1,27.79V22.22C76.1,21,76,21,74.84,20.85v-.39h3.75v.39c-1.12.11-1.27.17-1.27,1.37v5.71c0,.85.11,1.05.91,1.06h1.1c.72,0,.93-.08,1.25-.43a4.65,4.65,0,0,0,.85-1.44Z"/><path class="cls-2" d="M88.38,29.56v-.39c.91-.11,1-.25.82-.78s-.46-1.25-.75-2.13h-3c-.22.63-.43,1.18-.63,1.75-.31.91-.11,1,1,1.16v.39H82.59v-.39c.89-.11,1.11-.21,1.6-1.47l2.9-7.35.45-.09c.88,2.4,1.85,5,2.73,7.47.45,1.22.57,1.33,1.57,1.44v.39ZM87,22.1c-.45,1.2-.93,2.48-1.35,3.58h2.62Z"/><path class="cls-2" d="M99.26,20.85c-1,.11-1.15.27-1.71,1.16s-1.15,2-1.84,3.24a1.47,1.47,0,0,0-.21.83V27.8c0,1.16.13,1.25,1.43,1.37v.39h-4v-.39c1.28-.17,1.37-.19,1.37-1.37V26a1.39,1.39,0,0,0-.28-.81c-.49-.91-1-1.79-1.72-3.11-.55-.95-.69-1.12-1.64-1.22v-.39h3.45v.39c-1,.14-1,.32-.7.8C94,22.73,94.63,24,95.22,25c.51-.94,1.31-2.47,1.7-3.24s.28-.84-.83-.95v-.39h3.17Z"/></g></svg>