<svg xmlns="http://www.w3.org/2000/svg" xmlns:xlink="http://www.w3.org/1999/xlink" width="1920" height="1080" viewBox="0 0 1920 1080"><defs><style>.cls-1{fill:url(#radial-gradient);}.cls-2{fill:#d62222;}.cls-3{fill:url(#radial-gradient-2);}.cls-4{fill:#0c0f11;}.cls-5{fill:#f2f3f4;}.cls-6{fill:#0c0c0c;}.cls-7{fill:#c13e54;}.cls-8{fill:#c66073;}.cls-9{fill:#070102;}.cls-10{fill:#f2f2f2;}.cls-11{fill:#111110;}.cls-12{fill:#592807;}.cls-13{fill:#ad4b09;}.cls-14{fill:#f21645;}.cls-15{fill:#f9f7f7;}.cls-16{fill:#161514;}.cls-17{fill:#63605c;}.cls-18{fill:#cc6825;}.cls-19{fill:#e89f6d;}.cls-20{fill:#edd7c8;}.cls-21{fill:#0a0a0a;}.cls-22{fill:#68e9f2;}.cls-23{fill:#fff208;}.cls-24{fill:#0b0c0c;}.cls-25{fill:#525656;}.cls-26{fill:#565b5b;}.cls-27{fill:#0e0f0f;}.cls-28{fill:#ea1845;}.cls-29{fill:url(#radial-gradient-3);}.cls-30{fill:#877e81;}.cls-31{fill:#e2d20e;}.cls-32{fill:url(#linear-gradient);}.cls-33{fill:url(#linear-gradient-2);}.cls-34{fill:url(#linear-gradient-3);}.cls-35{fill:url(#linear-gradient-4);}.cls-36{fill:url(#linear-gradient-5);}.cls-37{fill:url(#linear-gradient-6);}.cls-38{fill:url(#linear-gradient-7);}.cls-39{fill:url(#linear-gradient-8);}.cls-40{fill:#f91536;}.cls-41{fill:#fffdfd;}.cls-42{fill:#050505;}.cls-43{fill:#f9f90b;}.cls-44{fill:#f7a30d;}.cls-45{fill:#f90623;}.cls-46{fill:#ba1111;}.cls-47{fill:#0f0f0e;}.cls-48{fill:#070606;}.cls-49{fill:#c67514;}.cls-50{fill:#ce5e11;}.cls-51{fill:#fcfcfc;}.cls-52{fill:#f9f9f9;}.cls-53{fill:#0a0003;}</style><radialGradient id="radial-gradient" cx="960" cy="540" r="778.85" gradientUnits="userSpaceOnUse"><stop offset="0" stop-color="#fff"/><stop offset="1" stop-color="#9df4c4"/></radialGradient><radialGradient id="radial-gradient-2" cx="12169.47" cy="13972.88" r="268.98" gradientTransform="translate(-2264.31 -3979.04) scale(0.27 0.31)" gradientUnits="userSpaceOnUse"><stop offset="0" stop-color="#fff"/><stop offset="1" stop-color="#73d8e0"/></radialGradient><radialGradient id="radial-gradient-3" cx="3399.88" cy="3896.84" r="46.61" gradientTransform="translate(-1206.75 -3375.08) scale(0.82 0.95)" gradientUnits="userSpaceOnUse"><stop offset="0.08" stop-color="#fff"/><stop offset="1" stop-color="#6ff"/></radialGradient><linearGradient id="linear-gradient" x1="1633.54" y1="274.3" x2="1633.89" y2="293.96" gradientUnits="userSpaceOnUse"><stop offset="0" stop-color="#fff"/><stop offset="1" stop-color="#66feff"/></linearGradient><linearGradient id="linear-gradient-2" x1="1643.37" y1="281.64" x2="1643.73" y2="301.29" xlink:href="#linear-gradient"/><linearGradient id="linear-gradient-3" x1="1650.8" y1="296.87" x2="1651.16" y2="316.52" xlink:href="#linear-gradient"/><linearGradient id="linear-gradient-4" x1="1628.94" y1="268.22" x2="1629.29" y2="287.87" xlink:href="#linear-gradient"/><linearGradient id="linear-gradient-5" x1="1637" y1="296.87" x2="1637.36" y2="316.52" xlink:href="#linear-gradient"/><linearGradient id="linear-gradient-6" x1="1643.37" y1="311.07" x2="1643.73" y2="330.72" xlink:href="#linear-gradient"/><linearGradient id="linear-gradient-7" x1="1651.42" y1="324.2" x2="1651.77" y2="343.86" xlink:href="#linear-gradient"/><linearGradient id="linear-gradient-8" x1="1643.35" y1="335.04" x2="1643.7" y2="354.7" xlink:href="#linear-gradient"/></defs><g id="Layer_8" data-name="Layer 8"><rect class="cls-1" width="1920" height="1080"/></g><g id="Layer_1" data-name="Layer 1"><path class="cls-2" d="M1151,477H936.75a3.51,3.51,0,0,1-3.26-3.69c0-16.82-.19-32.72-.21-57,0-11.22-.06-34.74.13-42.58,0-.31.05-1.85.08-3.94,0-3.46,0-6.4,0-8.61a332,332,0,0,1,45.28-75.23,305,305,0,0,1,28.13-30.48c15.81,0,138-.32,140.84,0a3.75,3.75,0,0,1,2.3,1.08,3.85,3.85,0,0,1,.87,1.76,3.74,3.74,0,0,1,.09.84Z"/><path class="cls-3" d="M1139.59,360.83l-190.32-.92a352.63,352.63,0,0,1,27.73-51,336.85,336.85,0,0,1,22-29.81,50.45,50.45,0,0,1,6.26-7.07,9.54,9.54,0,0,1,4.7-2.67c.31-.06.57-.08.75-.1H1135a3.06,3.06,0,0,1,2.3,1.09,4.62,4.62,0,0,1,1,2.6C1138.43,275.11,1139,311.35,1139.59,360.83Z"/><rect class="cls-4" x="1106.68" y="372.51" width="32.9" height="8.6" rx="2.3"/><ellipse class="cls-4" cx="1041.43" cy="296.61" rx="11.96" ry="20.9"/><ellipse class="cls-5" cx="1041.29" cy="299.83" rx="7.48" ry="8.45"/><ellipse class="cls-4" cx="1075.14" cy="296.61" rx="11.96" ry="20.9"/><ellipse class="cls-5" cx="1075.01" cy="299.83" rx="7.48" ry="8.45"/><path class="cls-6" d="M1056,319.88c2.65,4.36,13.17.33,13.3,1s-12.61,7.22-15.65,2.58c-2.66-4.05,3.79-13.94,4.07-13.8S1054,316.44,1056,319.88Z"/><path class="cls-7" d="M1076.77,343c-9.32,9.12-14,13.69-19.84,13.52-10.18-.28-17.11-12.84-23.93-25.2-4.26-7.71-3.6-9.3-3.26-9.83,2.31-3.65,13.26,5.83,29.63,7.07,17.72,1.33,29.16-7.94,31-4.31S1081.38,338.5,1076.77,343Z"/><path class="cls-8" d="M1065.9,339c2,.93,5.13,3.26,5.44,6.45.46,4.78-5.57,9.19-10.34,10.45-5,1.32-12.36.15-14.91-5.45-1.65-3.62-1.43-9.4,1.32-11.15,1.9-1.2,4.8-.26,6.52,1.54,3.18,3.31,2.48,9.6,2.93,9.59s-.59-9.22,3.06-11.74C1062,337.25,1064.94,338.58,1065.9,339Z"/><path class="cls-9" d="M988.32,403.59l2.54,5.34a55.17,55.17,0,0,0,23.68-9.17,62.26,62.26,0,0,0,14.84-14.34l-2.55-5.34a70.17,70.17,0,0,1-15.16,13.85A63.32,63.32,0,0,1,988.32,403.59Z"/><path class="cls-9" d="M1077.59,380.14l-2.59,5.4A61,61,0,0,0,1094.7,403a53.73,53.73,0,0,0,18.76,6.16l2.59-5.4a61.79,61.79,0,0,1-18.56-6.75A69,69,0,0,1,1077.59,380.14Z"/><path class="cls-10" d="M996.29,409.85c.62,7.68-10.52,16.23-18.48,13.37a10.27,10.27,0,0,1-6.53-7.07c-1.52-6.87,5.33-16.31,13.19-16.29C990,399.88,995.88,404.63,996.29,409.85Z"/><ellipse class="cls-10" cx="1120.41" cy="412.62" rx="10.74" ry="9.99"/><path class="cls-10" d="M975,411.08l-10.39,5.34a2.35,2.35,0,0,1-3.24-1.37h0a2.93,2.93,0,0,1,1.21-3.66l10.4-5.34a2.34,2.34,0,0,1,3.24,1.37h0A2.92,2.92,0,0,1,975,411.08Z"/><path class="cls-10" d="M981.14,427.39l4.62-11.81a2.36,2.36,0,0,1,3.23-1.41h0a2.94,2.94,0,0,1,1.25,3.65l-4.62,11.81a2.36,2.36,0,0,1-3.23,1.41h0A2.94,2.94,0,0,1,981.14,427.39Z"/><path class="cls-10" d="M981.65,423.74l-10.4,5.34A2.35,2.35,0,0,1,968,427.7h0a2.94,2.94,0,0,1,1.22-3.66l10.39-5.34a2.34,2.34,0,0,1,3.24,1.37h0A2.94,2.94,0,0,1,981.65,423.74Z"/><path class="cls-10" d="M975.67,419.43l-10.4,5.34A2.34,2.34,0,0,1,962,423.4h0a2.92,2.92,0,0,1,1.22-3.66l10.39-5.34a2.34,2.34,0,0,1,3.24,1.37h0A2.93,2.93,0,0,1,975.67,419.43Z"/><path class="cls-10" d="M1131.6,406.67l9.56,7.06a3,3,0,0,1,.71,3.83h0a2.28,2.28,0,0,1-3.39.8l-9.56-7.06a3,3,0,0,1-.71-3.83h0A2.29,2.29,0,0,1,1131.6,406.67Z"/><path class="cls-10" d="M1129.69,413.74l9.56,7.06a3,3,0,0,1,.71,3.83h0a2.28,2.28,0,0,1-3.38.8l-9.56-7.06a3,3,0,0,1-.71-3.83h0A2.28,2.28,0,0,1,1129.69,413.74Z"/><path class="cls-10" d="M1129.59,429.48l-9.56-7.07a3,3,0,0,1-.71-3.82h0a2.29,2.29,0,0,1,3.39-.81l9.55,7.07a3,3,0,0,1,.71,3.82h0A2.28,2.28,0,0,1,1129.59,429.48Z"/><rect class="cls-10" x="1105.26" y="418.1" width="18.44" height="6.06" rx="1.71" transform="translate(693.35 1535.61) rotate(-90)"/><path class="cls-11" d="M1421.64,466.7c-82.57.71-143.09.12-150-1.26-.6-.12-6.77-1.48-9.66-7.34a19.65,19.65,0,0,1-1.43-4.32,32.8,32.8,0,0,1,.47-15.16l31.11-81.81c48.94-.21,88.91.2,118,.26,6.48,0,21.62,0,26.5,13.84,2.73,7.73,1.13,16.61-4.25,43.33C1429.36,429.53,1425.75,447.15,1421.64,466.7Z"/><path class="cls-12" d="M1416.79,454.67c-79.37.63-137.54.11-144.15-1.13-.58-.1-6.51-1.31-9.28-6.53a15.88,15.88,0,0,1-1.13-11.27l30.1-79c47.05-.18,85.47.18,113.45.24,6.23,0,20.78,0,25.48,12.33,2.62,6.89,1.08,14.81-4.09,38.62C1424.21,421.54,1420.74,437.24,1416.79,454.67Z"/><path class="cls-13" d="M1292.39,385.88l8,5.22-7.89-123.89c0-21,16.66-38.21,37-38.21h37.34c20.36,0,37,17.19,37,38.21V406.94l-33.09,29.82Z"/><path class="cls-9" d="M1272.76,343.36l1.47,4a27.61,27.61,0,0,0,13.65-6.94,43.13,43.13,0,0,0,8.55-10.86l-1.47-4a47.6,47.6,0,0,1-8.74,10.49A32.2,32.2,0,0,1,1272.76,343.36Z"/><path class="cls-9" d="M1294.28,367.43c1.37.4,2.5,5.11,2.5,5.11h0c-2.45,6.21-3.45,9.08-3.45,9.08-1.21,3.48-1.84,5.83-2.19,7-2.41,7.92-10,20-16.61,17.91-3.49-1.11-5.53-5.75-6.27-7.44-3.92-8.93-1.76-19.73-.09-28s5.09-19.3,7.2-18.69c1,.29,1.68,3.29,1.66,5.54a13.24,13.24,0,0,1-2,6.74c-4,6.94-7.14,21.83-4.08,29.78,1.2,3.12,3.58,5.77,6,5.82,4.78.11,8.33-10.3,9.12-12.61,1.08-3.16.64-3.18,2.1-7.88C1289,376.92,1292.09,366.79,1294.28,367.43Z"/><path class="cls-14" d="M1276.63,361l-3.53,1.12a2.33,2.33,0,0,1-1.41-.39c-1.59-1-2-3.7-2-4.05a80.89,80.89,0,0,0,2.66-28.84c-1.52-17.44-8.22-28.51-10.6-32.11a4.12,4.12,0,0,1,.27-2.1,2,2,0,0,1,1.18-1.21l1.32-4.37a36,36,0,0,1,4.44,5.39C1283,315.37,1278,352.21,1276.63,361Z"/><path class="cls-14" d="M1274.21,358.56l-18.12-10.43v-24.9l18.12-6.69Z"/><path class="cls-15" d="M1271.38,349.51l-12.48-5.89V329.56l12.48-3.78Z"/><path class="cls-16" d="M1397.56,377.66l-18.18,12.57V355.79l18.18-8.14Z"/><path class="cls-17" d="M1395.05,373l-15.67,9.54V355.79l15.67-7Z"/><path class="cls-18" d="M1294.51,417.85c-.9-25.84-2.44-76.31-2.59-131.85,0-12.18.1-31.09,8.67-41.95,6.68-8.46,15.62-8.41,20.82-7.61h26.45c13.63,0,24.78,16.91,24.78,37.57l-.15,162.75Z"/><path class="cls-19" d="M1302.11,407.67c-3.39-61.09-4.3-107.41-3.29-126.32.34-6.4,1.2-15.31,5.49-23a26.38,26.38,0,0,1,11.75-11.4l29.38-.13c11.43,0,20.78,15.13,20.78,33.62l-.13,145.65Z"/><path class="cls-20" d="M1309,399.53q-2.43-45.19-4.23-95.85c-.53-15.15-1.11-36.51,6.89-43.51a9.43,9.43,0,0,1,8.15-2.09l23.18,0c9.32,0,17,13.41,17,29.8L1359.84,417Z"/><ellipse class="cls-4" cx="1317.47" cy="289.72" rx="6.9" ry="15.82"/><ellipse class="cls-4" cx="1337.38" cy="289.72" rx="6.9" ry="15.82"/><ellipse class="cls-5" cx="1334.79" cy="293.33" rx="4.31" ry="6.4"/><ellipse class="cls-5" cx="1314.89" cy="293.33" rx="4.31" ry="6.4"/><path class="cls-6" d="M1324.61,307.51c1.53,3.3,7.6.25,7.67.76s-7.27,5.47-9,2c-1.53-3.07,2.19-10.55,2.34-10.45S1323.41,304.9,1324.61,307.51Z"/><path class="cls-7" d="M1337.25,330.36c-5.38,6.9-8.07,10.36-11.45,10.23-5.86-.21-9.85-9.72-13.79-19.08-2.45-5.83-2.07-7-1.88-7.44,1.34-2.76,7.65,4.42,17.09,5.35,10.21,1,16.8-6,17.86-3.26S1339.9,326.94,1337.25,330.36Z"/><path class="cls-8" d="M1330.61,327.69a6.65,6.65,0,0,1,3.14,4.89c.26,3.62-3.21,6.95-6,7.91a6.65,6.65,0,0,1-8.6-4.13c-1-2.74-.82-7.12.76-8.43,1.1-.92,2.77-.2,3.77,1.16,1.83,2.5,1.42,7.27,1.68,7.26s-.34-7,1.76-8.89C1328.38,326.35,1330.06,327.36,1330.61,327.69Z"/><path class="cls-9" d="M1360.84,351.74l1.47,4a27.75,27.75,0,0,0,13.65-6.94,43.2,43.2,0,0,0,8.56-10.86l-1.47-4a47.42,47.42,0,0,1-8.75,10.48A32.31,32.31,0,0,1,1360.84,351.74Z"/><path class="cls-10" d="M1364.48,355.3c.35,5.81-6.07,12.28-10.66,10.12a7.26,7.26,0,0,1-3.76-5.35c-.88-5.21,3.07-12.35,7.6-12.33C1360.87,347.75,1364.23,351.35,1364.48,355.3Z"/><path class="cls-10" d="M1359.55,365l-4.66,6.9a1.11,1.11,0,0,1-2,0h0a2.86,2.86,0,0,1,0-3l4.65-6.91a1.13,1.13,0,0,1,2,0A2.93,2.93,0,0,1,1359.55,365Z"/><path class="cls-10" d="M1355.25,363.75l-5,6.35a1.13,1.13,0,0,1-2-.24h0a2.84,2.84,0,0,1,.15-2.95l5-6.34a1.13,1.13,0,0,1,2,.23h0A2.86,2.86,0,0,1,1355.25,363.75Z"/><path class="cls-10" d="M1353.34,358.78l-5,6.34a1.13,1.13,0,0,1-2-.23h0a2.84,2.84,0,0,1,.15-2.95l5-6.35a1.13,1.13,0,0,1,2,.23h0A2.88,2.88,0,0,1,1353.34,358.78Z"/><path class="cls-10" d="M1354.12,353.23l-6.19,3.31c-.73.39-1.54-.18-1.8-1.26h0a2.47,2.47,0,0,1,.84-2.68l6.2-3.31c.73-.39,1.54.17,1.8,1.26h0A2.47,2.47,0,0,1,1354.12,353.23Z"/><path class="cls-10" d="M1275.91,338.14l-4,.62c-.47.07-.92-.8-1-1.93h0c-.08-1.13.24-2.12.72-2.19l4-.62c.47-.07.93.8,1,1.93S1276.38,338.07,1275.91,338.14Z"/><path class="cls-10" d="M1275.93,342.91l-4,.62c-.48.07-.93-.79-1-1.93h0c-.08-1.13.25-2.12.72-2.19l4-.62c.47-.07.92.8,1,1.93S1276.41,342.84,1275.93,342.91Z"/><path class="cls-10" d="M1276,348.28l-4,.61c-.47.08-.92-.79-1-1.93h0c-.08-1.13.24-2.12.72-2.19l4-.61c.48-.08.93.79,1,1.92S1276.46,348.21,1276,348.28Z"/><path class="cls-21" d="M1705,402l-6.33,2.05c1.64-4.66,16.49-48.75-1.36-96.55-13.91-37.28-38.34-51.71-43.79-54.72l4-5.55c8,4.65,32,20.15,45.89,54.79C1722.57,349.54,1707.48,395,1705,402Z"/><path class="cls-22" d="M1709.8,389c-.21,7.14-5,7.44-7,17-2.2,10.46,2.4,15.13-.64,20.14s-8.75,1.48-17.41,6.71c-5.37,3.24-5.52,6-11.25,11.87-3.46,3.52-15,15.27-27.18,14.2s-15.17-14-23.35-11.62S1615,463.13,1607,464.85c-6.52,1.4-8.53-7.18-18.47-10.33-9.65-3-12.74,3.47-28.87,5.68-6.86.94-17.57,2.26-29.09-3.1-.94-.43-22-10.54-22.08-25,0-8.2,6.66-12.58,4.88-16.77-2.53-6-17,1-20.38-5.94-1.94-3.92.3-11,3.18-15,3.34-4.55,6.94-4,7.65-7.49.87-4.27-4.29-6.74-3.82-12.13.34-4,3.63-7.26,6.37-8.52,5.78-2.66,12.21,2,13.8,3.1,3.72,2.53,8.73,4.2,75.37,3.35,0,0,57.91-.73,73.46-5.67a31,31,0,0,1,5.73-1.29,38.37,38.37,0,0,1,11.68.51c5.77.95,8.65,1.42,10.83,2.58C1703.34,372.05,1710.06,380.31,1709.8,389Z"/><path class="cls-23" d="M1637.5,276.67,1633,269h0l.52-.7,19.45-24.34a1.73,1.73,0,0,1,2.64.68,15.73,15.73,0,0,1,6.45,6.54,20.6,20.6,0,0,1,2.42,8.55,3,3,0,0,1,.38,1.77,2.27,2.27,0,0,1-.71,1.49Z"/><ellipse class="cls-24" cx="1554.6" cy="414.51" rx="20.17" ry="21.68"/><ellipse class="cls-25" cx="1558.74" cy="410.64" rx="11.57" ry="14.97"/><ellipse class="cls-24" cx="1558.64" cy="412.58" rx="7.15" ry="6.11" transform="translate(984.18 1919.08) rotate(-83.95)"/><path class="cls-24" d="M1660.12,416.71c.2,18-19.85,32.39-32.48,25.68-7.16-3.8-13.14-15-13.17-25.56v-.12c0-10.79,9.52-25.69,22.83-25.69C1650,391,1660,404.16,1660.12,416.71Z"/><ellipse class="cls-26" cx="1643.67" cy="412.58" rx="18.37" ry="26.46"/><ellipse class="cls-27" cx="1639.1" cy="405.86" rx="8.49" ry="12"/><path class="cls-28" d="M1538.79,365q-.8-54.1.35-54.18s0,0,.08.07c0-14.39,9.16-26.17,20.36-26.17H1626c11.2,0,20.36,11.78,20.36,26.17q.21,26.84.43,53.67Z"/><path class="cls-28" d="M1659.27,367.53c0,10.62-.5,22.72-3.82,23.49-3,.69-5.26-8.13-11.68-8.52a5.8,5.8,0,0,0-3.61.78c-4.35,2.74-4.09,11.7-4.67,15-4,22.57-90.71,20.36-103.39,1.29a34,34,0,0,1-4.89-10.58c-1-5-1.06-12.49-1.06-17h0A50.89,50.89,0,0,1,1538.89,342c3.69-4.12,11.92-11.23,52.23-10.84,32,.3,53,.84,62.42,17.29C1658.45,357,1659.27,367.53,1659.27,367.53Z"/><path class="cls-29" d="M1637.62,339.14h0a13.76,13.76,0,0,1-3.4,2.84c-11.87,6.65-41.61,4.9-41.61,4.9-25.26-1.49-42.3,2.27-46.93-7a29.31,29.31,0,0,1-1.91-5.42,57.18,57.18,0,0,1-.45-10.55c.29-5.67.85-16.82,7.68-24.54a21.76,21.76,0,0,1,14.32-7.24h53.29a22.36,22.36,0,0,1,14.32,7.24c9.11,9.94,7.9,25.16,7.56,28.38A40.54,40.54,0,0,1,1637.62,339.14Z"/><path class="cls-30" d="M1645.89,397.69c-24.32,17.66-56.22,18.85-56.22,18.85-2.83.11-54.65,1.81-56.55-9.8a8,8,0,0,1,.58-4.9c1.78-3.17,6.48-2.09,8.25-1.69,15.17,3.38,37.5,5.56,47.35,5.55a62.52,62.52,0,0,0,11.67-.95,58.91,58.91,0,0,0,5.79-1.4c12.24-3.57,21.7-6.34,31.56-13.21,3.15-2.2,6.92-5.21,10.08-3.51a5.17,5.17,0,0,1,2.68,3.91C1651.31,393.75,1647.32,396.65,1645.89,397.69Z"/><path class="cls-9" d="M1534.15,357.19l-1.81,4.6a48.24,48.24,0,0,0,16,13.64,39.68,39.68,0,0,0,14.84,4.3l1.8-4.6a45.9,45.9,0,0,1-14.7-4.79A54.12,54.12,0,0,1,1534.15,357.19Z"/><path class="cls-10" d="M1573.41,390.3c-3.42,5-13.74,2.53-16.73-4.51-1-2.29-1.5-5.84-.14-8.58,2.53-5.1,10.92-6.08,15.24-.79C1574.84,380.18,1575.73,386.93,1573.41,390.3Z"/><path class="cls-10" d="M1571.78,398.79l-7.27-6.28a2.69,2.69,0,0,1-.45-3.24h0a1.72,1.72,0,0,1,2.67-.55L1574,395a2.68,2.68,0,0,1,.45,3.24h0A1.72,1.72,0,0,1,1571.78,398.79Z"/><path class="cls-10" d="M1577.29,394.78,1570,388.5a2.66,2.66,0,0,1-.45-3.24h0a1.71,1.71,0,0,1,2.66-.55l7.27,6.28a2.66,2.66,0,0,1,.45,3.24h0A1.71,1.71,0,0,1,1577.29,394.78Z"/><path class="cls-10" d="M1579.41,388.32l-7.27-6.28a2.67,2.67,0,0,1-.45-3.24h0a1.71,1.71,0,0,1,2.67-.54l7.26,6.27a2.68,2.68,0,0,1,.46,3.24h0A1.71,1.71,0,0,1,1579.41,388.32Z"/><rect class="cls-10" x="1565" y="372.44" width="12.74" height="4.65" rx="0.67"/><ellipse class="cls-4" cx="1579.65" cy="313.58" rx="9.34" ry="17.55"/><ellipse class="cls-4" cx="1603.86" cy="313.58" rx="9.34" ry="17.55"/><ellipse class="cls-5" cx="1582.73" cy="315.78" rx="5.84" ry="7.1"/><ellipse class="cls-5" cx="1600.36" cy="315.78" rx="5.84" ry="7.1"/><path class="cls-7" d="M1605.84,351.47c-7.28,7.67-10.92,11.5-15.5,11.36-7.94-.24-13.36-10.78-18.68-21.17-3.33-6.47-2.81-7.81-2.55-8.26,1.81-3.06,10.36,4.9,23.14,5.94,13.84,1.12,22.77-6.66,24.2-3.61S1609.44,347.69,1605.84,351.47Z"/><path class="cls-6" d="M1588.76,331.54c2.07,3.66,10.29.28,10.39.85s-9.85,6.06-12.23,2.17c-2.07-3.4,3-11.71,3.18-11.6S1587.12,328.65,1588.76,331.54Z"/><path class="cls-8" d="M1596,347.49c1.6.78,4,2.74,4.25,5.42.36,4-4.35,7.71-8.07,8.77-3.91,1.12-9.65.13-11.64-4.57-1.29-3.05-1.12-7.9,1-9.37,1.48-1,3.74-.21,5.09,1.29,2.48,2.78,1.93,8.07,2.29,8.06s-.46-7.74,2.38-9.86C1593,346,1595.25,347.12,1596,347.49Z"/><path class="cls-31" d="M1656.07,267.35a13,13,0,0,0,.35-12.44,8.72,8.72,0,0,0-9-4.54l5.72-6.29h0L1656,244a8.63,8.63,0,0,1,3.58,1.94,12.5,12.5,0,0,1,2.84,4.48,28.74,28.74,0,0,1,2.1,7c.22,1.29.32,2.38.38,3.16a2.78,2.78,0,0,1,0,.91,2.65,2.65,0,0,1-1,1.55Z"/><path class="cls-32" d="M1637.4,281.83c1.17,3.69,1,4.95.85,5.68-.5,2.23-2.34,4.78-4.77,4.65-2-.11-3.58-2-4.14-3.87-.2-.65-.52-2.11.85-6.46a41,41,0,0,1,3.61-8.26A42.55,42.55,0,0,1,1637.4,281.83Z"/><path class="cls-33" d="M1647.24,289.17c1.16,3.69,1,4.95.85,5.68-.51,2.23-2.34,4.78-4.78,4.65-2-.11-3.57-2-4.14-3.88-.2-.64-.51-2.1.85-6.45a42.14,42.14,0,0,1,3.61-8.26A42.69,42.69,0,0,1,1647.24,289.17Z"/><path class="cls-34" d="M1654.67,304.4c1.17,3.69,1,5,.85,5.68-.51,2.23-2.34,4.78-4.78,4.65-2-.11-3.57-2-4.14-3.88-.19-.65-.51-2.1.85-6.45a42.14,42.14,0,0,1,3.61-8.26A42.69,42.69,0,0,1,1654.67,304.4Z"/><path class="cls-35" d="M1632.8,275.75c1.17,3.69,1,4.94.85,5.68-.5,2.22-2.34,4.77-4.78,4.64-2-.1-3.57-2-4.14-3.87-.19-.65-.51-2.1.85-6.45a42.14,42.14,0,0,1,3.61-8.26A42.69,42.69,0,0,1,1632.8,275.75Z"/><path class="cls-36" d="M1640.87,304.4c1.16,3.69,1,5,.85,5.68-.51,2.23-2.34,4.78-4.78,4.65-2-.11-3.57-2-4.14-3.88-.2-.65-.51-2.1.85-6.45a42.14,42.14,0,0,1,3.61-8.26A42.69,42.69,0,0,1,1640.87,304.4Z"/><path class="cls-37" d="M1647.24,318.6c1.16,3.68,1,4.94.85,5.68-.51,2.22-2.34,4.77-4.78,4.64-2-.1-3.57-2-4.14-3.87-.2-.65-.51-2.1.85-6.45a41.88,41.88,0,0,1,3.61-8.26A42.69,42.69,0,0,1,1647.24,318.6Z"/><path class="cls-38" d="M1655.28,331.73c1.17,3.69,1,4.95.85,5.68-.5,2.23-2.34,4.78-4.78,4.65-2-.11-3.57-2-4.14-3.87-.19-.65-.51-2.11.85-6.46a42.14,42.14,0,0,1,3.61-8.26A42.69,42.69,0,0,1,1655.28,331.73Z"/><path class="cls-39" d="M1647.21,342.57c1.17,3.69,1,4.95.85,5.68-.5,2.23-2.34,4.78-4.77,4.65-2-.11-3.58-2-4.14-3.87-.2-.65-.52-2.11.85-6.46a41.39,41.39,0,0,1,3.6-8.26A42.07,42.07,0,0,1,1647.21,342.57Z"/><polygon class="cls-40" points="1591.23 573.03 1650.62 690.59 1710 808.14 1591.23 808.14 1472.46 808.14 1531.85 690.59 1591.23 573.03"/><polygon class="cls-41" points="1673.57 784.83 1588.55 783.44 1503.53 782.04 1547.03 697.66 1590.53 613.27 1632.05 699.05 1673.57 784.83"/><path class="cls-42" d="M1589.79,761.1l-5.39-.18c-2.2-35.24-3.87-59.34-4.57-62.51a5.65,5.65,0,0,1,.42-4.12,6,6,0,0,1,2.49-2.26,11.19,11.19,0,0,1,11.83,0,5.38,5.38,0,0,1,2.49,2.26,4.15,4.15,0,0,1,.41,2.25C1597.32,698.74,1594.18,725.09,1589.79,761.1Z"/><ellipse class="cls-42" cx="1586.24" cy="770.64" rx="6.61" ry="7.84"/><ellipse class="cls-4" cx="1572.84" cy="661.53" rx="15.72" ry="28.81"/><ellipse class="cls-4" cx="1605.34" cy="661.53" rx="15.72" ry="28.81"/><ellipse class="cls-5" cx="1566.95" cy="668.95" rx="9.82" ry="11.65"/><ellipse class="cls-5" cx="1599.81" cy="668.95" rx="9.82" ry="11.65"/><polygon class="cls-43" points="1141.35 706.85 1152.57 729.78 1177.64 733.46 1159.5 751.31 1163.78 776.52 1141.35 764.62 1118.92 776.52 1123.21 751.31 1105.06 733.46 1130.14 729.78 1141.35 706.85"/><polygon class="cls-43" points="1017.75 642.69 1028.96 665.62 1054.04 669.3 1035.9 687.15 1040.18 712.36 1017.75 700.46 995.32 712.36 999.61 687.15 981.46 669.3 1006.54 665.62 1017.75 642.69"/><polygon class="cls-43" points="981.45 703.98 992.66 726.91 1017.73 730.59 999.59 748.45 1003.87 773.65 981.45 761.75 959.02 773.65 963.3 748.45 945.16 730.59 970.23 726.91 981.45 703.98"/><polygon class="cls-43" points="1117.24 642.83 1128.45 665.77 1153.53 669.45 1135.38 687.3 1139.67 712.51 1117.24 700.61 1094.81 712.51 1099.09 687.3 1080.95 669.45 1106.03 665.77 1117.24 642.83"/><rect class="cls-44" x="1055.82" y="597.74" width="10.95" height="66.51" rx="1.51"/><polygon class="cls-45" points="1061.2 577.45 1068.08 590.93 1086 586.68 1076.66 599.25 1092.13 607.44 1073.6 609.63 1074.96 624.09 1061.2 614.25 1047.43 624.09 1048.8 609.63 1030.27 607.44 1045.73 599.25 1036.4 586.68 1054.32 590.93 1061.2 577.45"/><path class="cls-10" d="M1147.36,734l9.37,6a2.32,2.32,0,0,1,.68,3.25h0a2.44,2.44,0,0,1-3.33.67l-9.36-6a2.34,2.34,0,0,1-.69-3.26A2.45,2.45,0,0,1,1147.36,734Z"/><path class="cls-10" d="M1145.55,739.63l7.89,7.79a2.32,2.32,0,0,1,0,3.32h0a2.45,2.45,0,0,1-3.4,0l-7.88-7.78a2.32,2.32,0,0,1,0-3.32A2.46,2.46,0,0,1,1145.55,739.63Z"/><path class="cls-10" d="M1137.75,740.6l7.59,8.06a2.32,2.32,0,0,1-.14,3.32h0a2.46,2.46,0,0,1-3.4-.14l-7.59-8.06a2.32,2.32,0,0,1,.15-3.32A2.45,2.45,0,0,1,1137.75,740.6Z"/><path class="cls-10" d="M1141.72,731.94l10.76,3.1a2.57,2.57,0,0,0,3.06-1.86h0A2.49,2.49,0,0,0,1154,730l-10.75-3.11a2.58,2.58,0,0,0-3.07,1.87A2.51,2.51,0,0,0,1141.72,731.94Z"/><path class="cls-46" d="M1089.32,801.19a79.84,79.84,0,0,1-56,0,13.74,13.74,0,0,1-9.34-3.8,12.75,12.75,0,0,1-3.88-9.12V663.09a13.11,13.11,0,0,1,13.22-12.92,50.27,50.27,0,0,1,56,0,13.66,13.66,0,0,1,9.33,3.8,12.72,12.72,0,0,1,3.89,9.12V788.27A13.12,13.12,0,0,1,1089.32,801.19Z"/><ellipse class="cls-4" cx="1076.11" cy="677.56" rx="11.75" ry="17.74"/><ellipse class="cls-4" cx="1047.01" cy="677.56" rx="11.75" ry="17.74"/><ellipse class="cls-5" cx="1072.24" cy="684.73" rx="7.34" ry="7.17"/><ellipse class="cls-5" cx="1043.94" cy="684.73" rx="7.34" ry="7.17"/><path class="cls-6" d="M1059.26,701.11c2.6,3.7,12.93.29,13.06.86s-12.38,6.13-15.37,2.19c-2.61-3.43,3.73-11.83,4-11.71S1057.2,698.19,1059.26,701.11Z"/><path class="cls-7" d="M1083.08,731.75c-4.14,1.16-5.92-1.4-12.28-2.61-1.43-.27-8.57-1.63-15.49,1s-8.36,7.35-11.48,6.52-5.34-6.62-4.27-11.21c2.12-9.11,16.62-12,19.49-12.52,10.44-2.07,24.61-.24,29.1,7.56a7.81,7.81,0,0,1,1.07,5.74C1088.44,729.17,1085.51,731.06,1083.08,731.75Z"/><path class="cls-8" d="M1070.19,718.65c1.27.39,3.12,1.52,3.11,3.33,0,2.72-4.19,5.67-7.36,6.73-3.33,1.12-8,1-9.31-2.08-.84-2-.33-5.3,1.56-6.5a3.59,3.59,0,0,1,4.13.42c1.85,1.68,1,5.35,1.29,5.32s.2-5.27,2.73-7A4.54,4.54,0,0,1,1070.19,718.65Z"/><path class="cls-9" d="M990.65,737.14l2.5,4.53a59.78,59.78,0,0,0,23.25-7.78A58.09,58.09,0,0,0,1031,721.72l-2.5-4.53a66.81,66.81,0,0,1-14.89,11.75A68,68,0,0,1,990.65,737.14Z"/><path class="cls-9" d="M1096.92,712.3l-2.78,4.38a58.36,58.36,0,0,0,18.45,15.85,59.31,59.31,0,0,0,18.05,6.32l2.78-4.37a67.72,67.72,0,0,1-17.83-6.8A66.42,66.42,0,0,1,1096.92,712.3Z"/><path class="cls-10" d="M998.22,740c.6,6.52-10.34,13.77-18.15,11.35-2.54-.79-5.61-2.86-6.41-6-1.49-5.83,5.23-13.84,13-13.82C992.07,731.57,997.81,735.6,998.22,740Z"/><path class="cls-10" d="M1148.52,740.64c-2.43,6.09-15.54,7.83-21.43,2.25-1.91-1.8-3.71-5-3-8.15,1.33-5.88,11-10.12,17.9-6.75C1146.87,730.38,1150.17,736.49,1148.52,740.64Z"/><path class="cls-10" d="M988.41,749.62l-7.93,7.75a2.46,2.46,0,0,1-3.4,0h0a2.32,2.32,0,0,1,0-3.32L985,746.3a2.46,2.46,0,0,1,3.4,0A2.32,2.32,0,0,1,988.41,749.62Z"/><path class="cls-10" d="M983.07,747l-7.93,7.75a2.46,2.46,0,0,1-3.4,0h0a2.32,2.32,0,0,1,0-3.32l7.93-7.75a2.46,2.46,0,0,1,3.4,0A2.32,2.32,0,0,1,983.07,747Z"/><path class="cls-10" d="M979.06,742.06l-7.93,7.74a2.43,2.43,0,0,1-3.39,0h0a2.31,2.31,0,0,1,0-3.32l7.93-7.74a2.43,2.43,0,0,1,3.39,0A2.31,2.31,0,0,1,979.06,742.06Z"/><path class="cls-10" d="M982.16,738.52,971,739.62a2.39,2.39,0,0,1-2.63-2.1h0a2.36,2.36,0,0,1,2.14-2.57l11.16-1.1a2.39,2.39,0,0,1,2.63,2.09A2.37,2.37,0,0,1,982.16,738.52Z"/><path class="cls-47" d="M1416.89,800.9l-6.26,4.76a21.73,21.73,0,0,1-29.38-3.07L1288,692.15a19.23,19.23,0,0,1,3.24-27.89l6.26-4.76a21.74,21.74,0,0,1,29.38,3.07L1420.13,773A19.23,19.23,0,0,1,1416.89,800.9Z"/><path class="cls-48" d="M1372.18,652.44l-102.64,78.08c-10.88,8.29-26.93,6.61-35.65-3.73l-31.47-37.27a23.33,23.33,0,0,1,3.93-33.84L1309,577.59c10.88-8.28,26.93-6.6,35.65,3.73l31.47,37.27A23.34,23.34,0,0,1,1372.18,652.44Z"/><path class="cls-49" d="M1415,798.46h0a21.72,21.72,0,0,1-29.37-3.08l-97.18-115.1a19.22,19.22,0,0,1,3.24-27.89h0a21.74,21.74,0,0,1,29.38,3.07l97.17,115.11A19.22,19.22,0,0,1,1415,798.46Z"/><path class="cls-50" d="M1369,648.78l-98.06,74.61c-10.89,8.28-26.93,6.6-35.66-3.73L1207,686.18a23.32,23.32,0,0,1,3.93-33.85L1309,577.72c10.89-8.28,26.93-6.6,35.65,3.74l28.27,33.48A23.31,23.31,0,0,1,1369,648.78Z"/><ellipse class="cls-4" cx="1258.13" cy="619.11" rx="14.04" ry="20.6"/><ellipse class="cls-4" cx="1290.04" cy="608.51" rx="14.04" ry="20.6"/><ellipse class="cls-5" cx="1252.87" cy="627.44" rx="8.77" ry="8.33"/><ellipse class="cls-5" cx="1284.78" cy="616.84" rx="8.77" ry="8.33"/><path class="cls-6" d="M1275.6,638.19c3.11,4.3,15.46.33,15.61,1s-14.79,7.11-18.36,2.54c-3.12-4,4.45-13.74,4.77-13.6S1273.15,634.8,1275.6,638.19Z"/><path class="cls-7" d="M1301.8,660.16c-8.63,11-13,16.55-19.7,17.81-11.72,2.18-22.48-8.23-33.08-18.47-6.61-6.39-6.22-8.09-6-8.68,1.83-4.06,16.51,2.41,35.54-.35,20.6-3,31.61-14.68,34.54-11.63S1306.06,654.71,1301.8,660.16Z"/><path class="cls-51" d="M1292.86,654.22c-2,.82.66,9-1.54,10s-6.56-7.13-10.67-6.3-4.71,9.76-6.88,9.63-2.36-8.33-4.62-8.54c-2.55-.23-4.75,10-7.19,9.75-2.15-.21-2.42-9.27-4.13-9.31-1.27,0-1.48,4.9-3.84,5.37-1.44.29-2.9-1.31-5.75-4.54-3.37-3.81-6.25-7.15-5.1-9.39a3,3,0,0,1,1.27-1.21c5-2.7,23.35.93,32.71,1,19.29.09,33.39-14.95,35.89-11.87.7.86,0,2.79-1.27,6.66-1,3.06-1.56,4.59-2.87,5.15-2.79,1.19-6-2.8-7.66-1.82-2.28,1.4,2.25,10.66.64,11.51S1295.1,653.32,1292.86,654.22Z"/><path class="cls-52" d="M1296.74,663.94c.14.11-8,14.84-19.18,14.66-7.44-.12-13.71-6.83-13.36-7.39s4.5,1.77,5.19.85-2.93-4-2.32-4.79,6.11,2.91,7.46,1.68-1.64-5.61-1.08-5.92,4.25,5.72,6.06,5.15c1.62-.51,1-6,1.6-6.06s.94,5.13,2.15,5.27c1,.11,1.91-3.86,3-3.76s.57,4.77,2.53,5.63C1291.38,670.42,1296.64,663.85,1296.74,663.94Z"/><polygon class="cls-53" points="1640.38 705.1 1509.53 850.19 1520.15 864.43 1651 719.34 1640.38 705.1"/><polygon class="cls-53" points="1645.61 858.05 1526.6 698.53 1514.92 711.48 1633.93 871 1645.61 858.05"/><polygon class="cls-53" points="1386.35 704.04 1242.78 843.94 1254.43 857.66 1398 717.76 1386.35 704.04"/><polygon class="cls-53" points="1392.09 851.52 1261.51 697.7 1248.69 710.18 1379.28 864 1392.09 851.52"/><polygon class="cls-53" points="1131.27 700.73 986.78 833.9 998.51 846.97 1143 713.8 1131.27 700.73"/><polygon class="cls-53" points="1137.05 841.12 1005.63 694.7 992.73 706.58 1124.15 853 1137.05 841.12"/></g></svg>