<svg xmlns="http://www.w3.org/2000/svg" xmlns:xlink="http://www.w3.org/1999/xlink" width="1920" height="1080" viewBox="0 0 1920 1080"><defs><style>.cls-1{fill:url(#radial-gradient);}.cls-2{fill:#191312;}.cls-3{fill:#040505;}.cls-4{fill:#d62222;}.cls-5{fill:url(#radial-gradient-2);}.cls-6{fill:#0c0f11;}.cls-7{fill:#f2f3f4;}.cls-8{fill:#0c0c0c;}.cls-9{fill:#c13e54;}.cls-10{fill:#c66073;}.cls-11{fill:#070102;}.cls-12{fill:#f2f2f2;}.cls-13{fill:#111110;}.cls-14{fill:#592807;}.cls-15{fill:#ad4b09;}.cls-16{fill:#f21645;}.cls-17{fill:#f9f7f7;}.cls-18{fill:#cc6825;}.cls-19{fill:#e89f6d;}.cls-20{fill:#edd7c8;}.cls-21{fill:#0a0a0a;}.cls-22{fill:#68e9f2;}.cls-23{fill:#fff208;}.cls-24{fill:#0b0c0c;}.cls-25{fill:#525656;}.cls-26{fill:#565b5b;}.cls-27{fill:#0e0f0f;}.cls-28{fill:#ea1845;}.cls-29{fill:url(#radial-gradient-3);}.cls-30{fill:#877e81;}.cls-31{fill:#e2d20e;}.cls-32{fill:url(#linear-gradient);}.cls-33{fill:url(#linear-gradient-2);}.cls-34{fill:url(#linear-gradient-3);}.cls-35{fill:url(#linear-gradient-4);}.cls-36{fill:url(#linear-gradient-5);}.cls-37{fill:url(#linear-gradient-6);}.cls-38{fill:url(#linear-gradient-7);}.cls-39{fill:url(#linear-gradient-8);}.cls-40{fill:#f91536;}.cls-41{fill:#fffdfd;}.cls-42{fill:#050505;}.cls-43{fill:#f9f90b;}.cls-44{fill:#f7a30d;}.cls-45{fill:#f90623;}.cls-46{fill:#ba1111;}.cls-47{fill:#0f0f0e;}.cls-48{fill:#070606;}.cls-49{fill:#c67514;}.cls-50{fill:#ce5e11;}.cls-51{fill:#fcfcfc;}.cls-52{fill:#f9f9f9;}</style><radialGradient id="radial-gradient" cx="960" cy="540" r="778.85" gradientUnits="userSpaceOnUse"><stop offset="0" stop-color="#fff"/><stop offset="1" stop-color="#9df4c4"/></radialGradient><radialGradient id="radial-gradient-2" cx="10773.37" cy="13837.44" r="268.98" gradientTransform="translate(-1805.75 -4152.67) scale(0.28 0.33)" gradientUnits="userSpaceOnUse"><stop offset="0" stop-color="#fff"/><stop offset="1" stop-color="#73d8e0"/></radialGradient><radialGradient id="radial-gradient-3" cx="3518.42" cy="4011.71" r="46.61" gradientTransform="translate(-2096.84 -4377.8) scale(1.07 1.19)" gradientUnits="userSpaceOnUse"><stop offset="0.08" stop-color="#fff"/><stop offset="1" stop-color="#6ff"/></radialGradient><linearGradient id="linear-gradient" x1="1733.41" y1="346.3" x2="1733.86" y2="371" gradientUnits="userSpaceOnUse"><stop offset="0" stop-color="#fff"/><stop offset="1" stop-color="#66feff"/></linearGradient><linearGradient id="linear-gradient-2" x1="1746.23" y1="355.52" x2="1746.68" y2="380.23" xlink:href="#linear-gradient"/><linearGradient id="linear-gradient-3" x1="1755.92" y1="374.66" x2="1756.37" y2="399.37" xlink:href="#linear-gradient"/><linearGradient id="linear-gradient-4" x1="1727.41" y1="338.65" x2="1727.86" y2="363.35" xlink:href="#linear-gradient"/><linearGradient id="linear-gradient-5" x1="1737.93" y1="374.66" x2="1738.38" y2="399.37" xlink:href="#linear-gradient"/><linearGradient id="linear-gradient-6" x1="1746.23" y1="392.51" x2="1746.68" y2="417.21" xlink:href="#linear-gradient"/><linearGradient id="linear-gradient-7" x1="1756.72" y1="409.02" x2="1757.17" y2="433.72" xlink:href="#linear-gradient"/><linearGradient id="linear-gradient-8" x1="1746.2" y1="422.65" x2="1746.65" y2="447.35" xlink:href="#linear-gradient"/></defs><g id="Layer_8" data-name="Layer 8"><rect class="cls-1" width="1920" height="1080"/></g><g id="Layer_4" data-name="Layer 4"><path class="cls-2" d="M70.06,379H84.8l8.65,14.49L102.12,379h14.67l-16.7,25v18H86.79V404Z"/><path class="cls-2" d="M113.71,406.49a15.52,15.52,0,0,1,4.81-11.73q4.8-4.62,13-4.62,9.34,0,14.13,5.42a17,17,0,0,1-.93,22.52q-4.75,4.57-13.17,4.58-7.5,0-12.13-3.81A15.27,15.27,0,0,1,113.71,406.49Zm12,0c0,2.77.57,4.83,1.69,6.15a5.51,5.51,0,0,0,8.47,0q1.65-2,1.65-6.3,0-4-1.67-6a5.18,5.18,0,0,0-4.13-2,5.4,5.4,0,0,0-4.31,2Q125.67,402.36,125.66,406.46Z"/><path class="cls-2" d="M188,422H176.85v-5a16.41,16.41,0,0,1-5,4.42,13.34,13.34,0,0,1-6.22,1.32,10.13,10.13,0,0,1-7.72-2.94q-2.81-3-2.8-9.07v-19.8h12V408a6.33,6.33,0,0,0,1.08,4.16,3.86,3.86,0,0,0,3.05,1.23,4.35,4.35,0,0,0,3.5-1.64q1.37-1.65,1.36-5.89v-15H188Z"/><path class="cls-2" d="M215.22,379h11.93v15.82a16,16,0,0,1,4.83-3.6,13.62,13.62,0,0,1,5.69-1.09,10.06,10.06,0,0,1,7.66,3q2.79,3,2.79,9.08V422h-12V404.85c0-2-.36-3.34-1.08-4.15a3.87,3.87,0,0,0-3.05-1.21,4.33,4.33,0,0,0-3.51,1.64c-.9,1.09-1.35,3.06-1.35,5.89V422H215.22Z"/><path class="cls-2" d="M266.11,400.92l-11.39-1.2a12.79,12.79,0,0,1,1.86-4.7,10.21,10.21,0,0,1,3.5-3,14.46,14.46,0,0,1,4.51-1.41,36.51,36.51,0,0,1,6.21-.5,49.26,49.26,0,0,1,8.61.6,11,11,0,0,1,5.42,2.51,8.79,8.79,0,0,1,2.41,3.73,13.65,13.65,0,0,1,.88,4.62v13.74a17.09,17.09,0,0,0,.27,3.44,15.5,15.5,0,0,0,1.22,3.18H278.42a11.63,11.63,0,0,1-.88-1.83,13.6,13.6,0,0,1-.41-2,15.43,15.43,0,0,1-4.66,3.22,19.37,19.37,0,0,1-7.35,1.29q-5.56,0-8.45-2.58a8.15,8.15,0,0,1-2.89-6.35,8.3,8.3,0,0,1,2.08-5.83c1.39-1.53,3.94-2.66,7.68-3.4q6.7-1.35,8.7-1.89a42.79,42.79,0,0,0,4.22-1.42,4.23,4.23,0,0,0-.91-3.08,4.6,4.6,0,0,0-3.2-.88,8.21,8.21,0,0,0-4.39.94A5.18,5.18,0,0,0,266.11,400.92Zm10.35,6.27c-1.65.59-3.35,1.11-5.13,1.56-2.42.64-4,1.28-4.6,1.9a3.05,3.05,0,0,0,0,4.5,4.2,4.2,0,0,0,2.89.89,7.39,7.39,0,0,0,3.71-1,5.87,5.87,0,0,0,2.43-2.35,7.9,7.9,0,0,0,.72-3.62Z"/><path class="cls-2" d="M290.72,390.85h12.41l6,19.71,6.26-19.71h12L314.24,422H303.66Z"/><path class="cls-2" d="M363.88,409.36H340a7.76,7.76,0,0,0,1.55,4.28,5.67,5.67,0,0,0,4.52,2,6.76,6.76,0,0,0,3.34-.88,8,8,0,0,0,2.08-2l11.74,1.08a16.77,16.77,0,0,1-6.5,6.73q-3.81,2-10.93,2-6.18,0-9.73-1.74a14.27,14.27,0,0,1-5.87-5.54,16.73,16.73,0,0,1-2.33-8.92,15.7,15.7,0,0,1,4.67-11.81q4.68-4.5,12.91-4.51,6.68,0,10.55,2a13.71,13.71,0,0,1,5.89,5.86,21.52,21.52,0,0,1,2,10Zm-12.13-5.71q-.36-3.47-1.86-4.95a5.83,5.83,0,0,0-8.51.76,8.23,8.23,0,0,0-1.38,4.19Z"/><path class="cls-2" d="M403.75,379v11.84h6.56v8.73h-6.56v11a6,6,0,0,0,.38,2.63,2.19,2.19,0,0,0,2.05,1,13,13,0,0,0,3.69-.76l.88,8.24a39.06,39.06,0,0,1-8.26,1q-4.46,0-6.56-1.14a6.93,6.93,0,0,1-3.12-3.47c-.68-1.55-1-4.06-1-7.53V399.58h-4.4v-8.73h4.4v-5.72Z"/><path class="cls-2" d="M414.53,406.49a15.52,15.52,0,0,1,4.81-11.73q4.8-4.62,13-4.62,9.35,0,14.13,5.42a17,17,0,0,1-.93,22.52q-4.75,4.57-13.17,4.58-7.5,0-12.13-3.81A15.3,15.3,0,0,1,414.53,406.49Zm12,0c0,2.77.57,4.83,1.69,6.15a5.51,5.51,0,0,0,8.47,0q1.65-2,1.65-6.3,0-4-1.67-6a5.18,5.18,0,0,0-4.13-2,5.4,5.4,0,0,0-4.31,2Q426.49,402.36,426.48,406.46Z"/><path class="cls-2" d="M499.23,409.77l11.34,1.29a16,16,0,0,1-3.08,6.14,14.38,14.38,0,0,1-5.46,4,21.63,21.63,0,0,1-8.46,1.43,31.28,31.28,0,0,1-8.24-.92,14.29,14.29,0,0,1-5.67-3,15.09,15.09,0,0,1-3.72-4.84,17,17,0,0,1-1.35-7.38,17.43,17.43,0,0,1,1.64-8,14.42,14.42,0,0,1,3.28-4.2,15,15,0,0,1,4.28-2.76,23.6,23.6,0,0,1,8.93-1.44q7.62,0,11.62,2.73a14.29,14.29,0,0,1,5.61,8l-11.22,1.49a5.15,5.15,0,0,0-1.92-3,6.18,6.18,0,0,0-3.73-1,6,6,0,0,0-4.79,2.12q-1.83,2.12-1.83,6.42a8.37,8.37,0,0,0,1.81,5.82,6,6,0,0,0,4.63,2,6.37,6.37,0,0,0,3.94-1.2A7.13,7.13,0,0,0,499.23,409.77Z"/><path class="cls-2" d="M514.9,379h12V422h-12Z"/><path class="cls-2" d="M534.91,379h11.93v8.11H534.91Zm0,11.84h11.93V422H534.91Z"/><path class="cls-2" d="M577.66,409.77,589,411.06a15.93,15.93,0,0,1-3.07,6.14,14.33,14.33,0,0,1-5.47,4,21.54,21.54,0,0,1-8.45,1.43,31.41,31.41,0,0,1-8.25-.92,14.32,14.32,0,0,1-5.66-3,14.81,14.81,0,0,1-3.72-4.84,17,17,0,0,1-1.35-7.38,17.3,17.3,0,0,1,1.64-8,14.42,14.42,0,0,1,3.28-4.2,15,15,0,0,1,4.28-2.76,23.6,23.6,0,0,1,8.93-1.44q7.62,0,11.62,2.73a14.39,14.39,0,0,1,5.61,8l-11.22,1.49a5.15,5.15,0,0,0-1.92-3,6.19,6.19,0,0,0-3.74-1,6,6,0,0,0-4.79,2.12q-1.83,2.12-1.83,6.42a8.37,8.37,0,0,0,1.82,5.82,6,6,0,0,0,4.63,2,6.39,6.39,0,0,0,3.94-1.2A7.2,7.2,0,0,0,577.66,409.77Z"/><path class="cls-2" d="M593.45,379h12.18v22.17l8.91-10.33h14.68l-11.16,10.89L629.86,422H616.43l-6.3-12.47-4.5,4.38V422H593.45Z"/><path class="cls-2" d="M652,406.49a15.52,15.52,0,0,1,4.81-11.73q4.8-4.62,13-4.62,9.36,0,14.13,5.42a17,17,0,0,1-.93,22.52q-4.75,4.57-13.17,4.58-7.5,0-12.12-3.81A15.28,15.28,0,0,1,652,406.49Zm12,0c0,2.77.57,4.83,1.69,6.15a5.51,5.51,0,0,0,8.47,0q1.65-2,1.65-6.3,0-4-1.67-6a5.18,5.18,0,0,0-4.13-2,5.4,5.4,0,0,0-4.31,2Q664,402.36,664,406.46Z"/><path class="cls-2" d="M693.5,390.85h11.1v5.06a16.37,16.37,0,0,1,5-4.43,13.25,13.25,0,0,1,6.21-1.34,10.17,10.17,0,0,1,7.75,2.95c1.86,2,2.8,5,2.8,9.09V422h-12V404.85c0-2-.36-3.34-1.08-4.15a3.87,3.87,0,0,0-3.05-1.21,4.34,4.34,0,0,0-3.51,1.64c-.9,1.09-1.35,3.06-1.35,5.89V422H693.5Z"/><path class="cls-2" d="M775.18,390.85h11.16v29.38l0,1.38a13,13,0,0,1-1.25,5.58,11.65,11.65,0,0,1-3.31,4.29,12.93,12.93,0,0,1-5.24,2.37,32.5,32.5,0,0,1-7.28.74q-9.37,0-12.88-2.82a9.16,9.16,0,0,1-3.5-7.53c0-.39,0-.91.06-1.58L764.54,424a3.75,3.75,0,0,0,1.35,2.23,5.74,5.74,0,0,0,3.31.91,5,5,0,0,0,3.85-1.38q1.28-1.38,1.28-4.81v-4.71a11.68,11.68,0,0,1-9.47,4.48,11.78,11.78,0,0,1-10.07-5.45q-2.73-3.87-2.73-10.22,0-7.27,3.52-11.08a11.93,11.93,0,0,1,9.2-3.81,12.92,12.92,0,0,1,6,1.23,13.06,13.06,0,0,1,4.41,4.08ZM764,405.93a7.39,7.39,0,0,0,1.43,5,5.11,5.11,0,0,0,7.52-.06,7.45,7.45,0,0,0,1.5-5.08,7.61,7.61,0,0,0-1.58-5.2,5,5,0,0,0-3.87-1.8,4.48,4.48,0,0,0-3.64,1.65C764.41,401.54,764,403.38,764,405.93Z"/><path class="cls-2" d="M792.08,406.49a15.55,15.55,0,0,1,4.8-11.73q4.82-4.62,13-4.62,9.35,0,14.12,5.42a16.95,16.95,0,0,1-.92,22.52q-4.75,4.57-13.17,4.58-7.5,0-12.13-3.81A15.27,15.27,0,0,1,792.08,406.49Zm11.95,0c0,2.77.56,4.83,1.69,6.15a5.5,5.5,0,0,0,8.46,0q1.67-2,1.66-6.3,0-4-1.67-6a5.18,5.18,0,0,0-4.13-2,5.4,5.4,0,0,0-4.31,2Q804,402.36,804,406.46Z"/><path class="cls-2" d="M832.1,406.49a15.55,15.55,0,0,1,4.8-11.73q4.82-4.62,13-4.62,9.35,0,14.12,5.42a16.95,16.95,0,0,1-.92,22.52q-4.76,4.57-13.17,4.58-7.5,0-12.13-3.81A15.27,15.27,0,0,1,832.1,406.49Zm11.95,0c0,2.77.56,4.83,1.69,6.15a5.5,5.5,0,0,0,8.46,0q1.66-2,1.66-6.3,0-4-1.67-6a5.18,5.18,0,0,0-4.13-2,5.39,5.39,0,0,0-4.31,2Q844.06,402.36,844.05,406.46Z"/><path class="cls-2" d="M906.34,379V422H895.18v-4.6a15.07,15.07,0,0,1-4.28,3.95,12.18,12.18,0,0,1-5.74,1.35,11.11,11.11,0,0,1-9.72-4.83,20.14,20.14,0,0,1-3.35-11.75q0-7.74,3.71-11.84a12.14,12.14,0,0,1,9.41-4.1,13.26,13.26,0,0,1,5.06.94,11.67,11.67,0,0,1,4,2.81V379Zm-12,27.3c0-2.44-.51-4.26-1.55-5.46a5,5,0,0,0-3.92-1.8,4.31,4.31,0,0,0-3.49,1.73q-1.41,1.73-1.41,5.8c0,2.54.49,4.4,1.45,5.58a4.48,4.48,0,0,0,3.59,1.77,4.76,4.76,0,0,0,3.81-1.79C893.88,411,894.38,409,894.38,406.31Z"/><path class="cls-2" d="M88,451v11.84h6.56v8.73H88v11a6,6,0,0,0,.38,2.63,2.18,2.18,0,0,0,2,1,13,13,0,0,0,3.69-.76L95,493.7a39.06,39.06,0,0,1-8.26,1q-4.45,0-6.56-1.14a6.93,6.93,0,0,1-3.12-3.47c-.68-1.55-1-4.06-1-7.53V471.58h-4.4v-8.73H76v-5.72Z"/><path class="cls-2" d="M100.23,451h11.93v15.82a16,16,0,0,1,4.83-3.6,13.62,13.62,0,0,1,5.69-1.09,10.06,10.06,0,0,1,7.66,3q2.79,3,2.79,9.08V494h-12V476.85c0-2-.36-3.34-1.08-4.15a3.87,3.87,0,0,0-3-1.21,4.33,4.33,0,0,0-3.51,1.64c-.9,1.09-1.35,3.06-1.35,5.89V494H100.23Z"/><path class="cls-2" d="M140.69,451h11.93v8.11H140.69Zm0,11.84h11.93V494H140.69Z"/><path class="cls-2" d="M160.23,462.85h11.11v5.06a16.37,16.37,0,0,1,5-4.43,13.25,13.25,0,0,1,6.21-1.34,10.17,10.17,0,0,1,7.75,2.95q2.79,2.94,2.79,9.09V494h-12V476.85c0-2-.36-3.34-1.08-4.15a3.87,3.87,0,0,0-3-1.21,4.33,4.33,0,0,0-3.51,1.64c-.9,1.09-1.35,3.06-1.35,5.89V494H160.23Z"/><path class="cls-2" d="M221.9,462.85h11.17v29.38l0,1.38a13,13,0,0,1-1.25,5.58,11.65,11.65,0,0,1-3.31,4.29,12.93,12.93,0,0,1-5.24,2.37,32.5,32.5,0,0,1-7.28.74q-9.37,0-12.88-2.82a9.16,9.16,0,0,1-3.5-7.53c0-.39,0-.91.06-1.58L211.27,496a3.75,3.75,0,0,0,1.35,2.23,5.74,5.74,0,0,0,3.31.91,5,5,0,0,0,3.85-1.38q1.28-1.38,1.27-4.81v-4.71a11.63,11.63,0,0,1-9.46,4.48,11.81,11.81,0,0,1-10.08-5.45q-2.72-3.87-2.72-10.22,0-7.27,3.51-11.08a11.94,11.94,0,0,1,9.2-3.81,11.25,11.25,0,0,1,10.4,5.31Zm-11.22,15.08a7.39,7.39,0,0,0,1.44,5,5.1,5.1,0,0,0,7.51-.06,7.4,7.4,0,0,0,1.51-5.08,7.61,7.61,0,0,0-1.58-5.2,5,5,0,0,0-3.87-1.8,4.47,4.47,0,0,0-3.64,1.65C211.14,473.54,210.68,475.38,210.68,477.93Z"/><path class="cls-2" d="M238.16,485.32,250,484.2a5.81,5.81,0,0,0,2.05,3,6.06,6.06,0,0,0,3.52.91,5.9,5.9,0,0,0,3.72-1,2.28,2.28,0,0,0,1-1.9,2.19,2.19,0,0,0-1.35-2,24.24,24.24,0,0,0-5.12-1.22,53.68,53.68,0,0,1-8.63-2,9,9,0,0,1-4.07-3.12,8,8,0,0,1-1.66-5,8.21,8.21,0,0,1,1.79-5.3,10.63,10.63,0,0,1,4.92-3.32,26.19,26.19,0,0,1,8.41-1.1,29.37,29.37,0,0,1,8.22.85,10.8,10.8,0,0,1,4.42,2.64,13.94,13.94,0,0,1,2.95,4.83l-11.31,1.12a3.87,3.87,0,0,0-1.47-2.2,6,6,0,0,0-3.4-.94,4.79,4.79,0,0,0-2.94.72,2.13,2.13,0,0,0-.92,1.74,1.85,1.85,0,0,0,1.17,1.72,18.75,18.75,0,0,0,5.1,1.06,34.94,34.94,0,0,1,8.84,1.87A9.71,9.71,0,0,1,269.7,479a8.41,8.41,0,0,1,1.54,4.89,9.57,9.57,0,0,1-1.63,5.24,11,11,0,0,1-5.12,4.06,24.79,24.79,0,0,1-9.54,1.5q-8.52,0-12.14-2.43A11,11,0,0,1,238.16,485.32Z"/><path class="cls-2" d="M297.34,451h12V494h-12Z"/><path class="cls-2" d="M317.35,451h11.93v8.11H317.35Zm0,11.84h11.93V494H317.35Z"/><path class="cls-2" d="M336.89,451h12.19v22.17L358,462.85h14.68L361.5,473.74,373.31,494H359.88l-6.31-12.47-4.49,4.38V494H336.89Z"/><path class="cls-2" d="M409.4,481.36H385.5a7.68,7.68,0,0,0,1.55,4.28,5.65,5.65,0,0,0,4.51,2,6.73,6.73,0,0,0,3.34-.88,7.67,7.67,0,0,0,2.08-2l11.75,1.08a16.83,16.83,0,0,1-6.5,6.73q-3.81,2-10.93,2-6.18,0-9.73-1.74a14.27,14.27,0,0,1-5.87-5.54,16.73,16.73,0,0,1-2.33-8.92A15.7,15.7,0,0,1,378,466.65q4.68-4.5,12.91-4.51,6.68,0,10.54,2a13.61,13.61,0,0,1,5.89,5.86,21.4,21.4,0,0,1,2,10Zm-12.12-5.71q-.36-3.47-1.86-4.95a5.84,5.84,0,0,0-8.52.76,8.24,8.24,0,0,0-1.37,4.19Z"/><path class="cls-2" d="M435,505.79V462.85h11.16v4.6a14.79,14.79,0,0,1,4.25-3.93,12.14,12.14,0,0,1,5.77-1.38,11.17,11.17,0,0,1,9.66,4.78,19.8,19.8,0,0,1,3.41,11.8q0,7.77-3.72,11.86a12.19,12.19,0,0,1-9.41,4.08,12.94,12.94,0,0,1-5-.94,11.92,11.92,0,0,1-4.06-2.78v14.85Zm11.95-27.3q0,3.69,1.56,5.48a5,5,0,0,0,3.92,1.79,4.36,4.36,0,0,0,3.49-1.72q1.41-1.71,1.41-5.81,0-3.78-1.47-5.56a4.49,4.49,0,0,0-3.57-1.77,4.79,4.79,0,0,0-3.81,1.79Q446.9,474.48,446.9,478.49Z"/><path class="cls-2" d="M509.45,481.36h-23.9a7.68,7.68,0,0,0,1.55,4.28,5.65,5.65,0,0,0,4.51,2,6.73,6.73,0,0,0,3.34-.88,7.67,7.67,0,0,0,2.08-2l11.75,1.08a16.9,16.9,0,0,1-6.5,6.73q-3.81,2-10.93,2c-4.12,0-7.37-.58-9.73-1.74a14.27,14.27,0,0,1-5.87-5.54,16.64,16.64,0,0,1-2.33-8.92,15.7,15.7,0,0,1,4.67-11.81q4.68-4.5,12.91-4.51,6.67,0,10.54,2a13.66,13.66,0,0,1,5.89,5.86,21.4,21.4,0,0,1,2,10Zm-12.13-5.71q-.35-3.47-1.86-4.95a5.83,5.83,0,0,0-8.51.76,8.24,8.24,0,0,0-1.37,4.19Z"/><path class="cls-2" d="M529.32,451v11.84h6.56v8.73h-6.56v11a5.85,5.85,0,0,0,.38,2.63,2.18,2.18,0,0,0,2,1,13,13,0,0,0,3.69-.76l.88,8.24a39.06,39.06,0,0,1-8.26,1q-4.45,0-6.57-1.14a7,7,0,0,1-3.12-3.47q-1-2.32-1-7.53V471.58H513v-8.73h4.39v-5.72Z"/><path class="cls-2" d="M541.68,462.85h11.16v5.09a12.17,12.17,0,0,1,3.33-4.55,7,7,0,0,1,4.23-1.25,12.62,12.62,0,0,1,5.77,1.64l-3.69,8.5a9.31,9.31,0,0,0-3.34-.88,4.11,4.11,0,0,0-3.63,1.93q-1.85,2.73-1.85,10.2V494h-12Z"/><path class="cls-2" d="M567.7,478.49a15.55,15.55,0,0,1,4.8-11.73q4.8-4.62,13-4.62,9.35,0,14.12,5.42a16.95,16.95,0,0,1-.92,22.52q-4.77,4.57-13.17,4.58-7.5,0-12.13-3.81A15.27,15.27,0,0,1,567.7,478.49Zm11.95,0c0,2.77.56,4.83,1.68,6.15a5.34,5.34,0,0,0,4.24,2,5.28,5.28,0,0,0,4.23-2c1.1-1.31,1.66-3.41,1.66-6.3q0-4-1.67-6a5.21,5.21,0,0,0-4.14-2,5.38,5.38,0,0,0-4.3,2C580.21,473.69,579.65,475.73,579.65,478.46Z"/><path class="cls-2" d="M609.59,451h11.95V494H609.59Z"/><path class="cls-2" d="M649.23,505.79V462.85h11.16v4.6a14.67,14.67,0,0,1,4.25-3.93,12.14,12.14,0,0,1,5.77-1.38,11.14,11.14,0,0,1,9.65,4.78,19.74,19.74,0,0,1,3.42,11.8q0,7.77-3.72,11.86a12.19,12.19,0,0,1-9.41,4.08,12.94,12.94,0,0,1-5-.94,11.83,11.83,0,0,1-4.06-2.78v14.85Zm11.95-27.3q0,3.69,1.55,5.48a5,5,0,0,0,3.93,1.79,4.36,4.36,0,0,0,3.49-1.72q1.4-1.71,1.4-5.81,0-3.78-1.46-5.56a4.49,4.49,0,0,0-3.58-1.77,4.79,4.79,0,0,0-3.8,1.79Q661.18,474.48,661.18,478.49Z"/><path class="cls-2" d="M722,494H710.84v-5a16.5,16.5,0,0,1-5,4.42,13.38,13.38,0,0,1-6.23,1.32,10.16,10.16,0,0,1-7.72-2.94q-2.8-3-2.8-9.07v-19.8h12V480a6.33,6.33,0,0,0,1.09,4.16,3.85,3.85,0,0,0,3.05,1.23,4.36,4.36,0,0,0,3.5-1.64c.9-1.1,1.36-3.06,1.36-5.89v-15H722Z"/><path class="cls-2" d="M729.3,462.85h11.13v4.54a15.39,15.39,0,0,1,4.86-4.05,13.31,13.31,0,0,1,5.91-1.2,11.27,11.27,0,0,1,5.89,1.32,9.74,9.74,0,0,1,3.55,3.93,18.07,18.07,0,0,1,5.12-4.15,13.34,13.34,0,0,1,5.71-1.1,10.2,10.2,0,0,1,7.81,3q2.81,3,2.81,9.3V494h-12V476.23a5,5,0,0,0-.82-3.13,3.6,3.6,0,0,0-3-1.61A4.24,4.24,0,0,0,763,473q-1.28,1.53-1.28,4.89V494H749.72V476.82a10.49,10.49,0,0,0-.24-2.78,3.76,3.76,0,0,0-1.32-1.89,3.53,3.53,0,0,0-2.21-.72,4.27,4.27,0,0,0-3.38,1.55q-1.32,1.56-1.32,5.1V494h-12Z"/><path class="cls-2" d="M789.27,505.79V462.85h11.16v4.6a14.67,14.67,0,0,1,4.25-3.93,12.14,12.14,0,0,1,5.77-1.38,11.14,11.14,0,0,1,9.65,4.78,19.74,19.74,0,0,1,3.42,11.8q0,7.77-3.73,11.86a12.17,12.17,0,0,1-9.4,4.08,12.9,12.9,0,0,1-5-.94,11.83,11.83,0,0,1-4.06-2.78v14.85Zm12-27.3q0,3.69,1.55,5.48a5,5,0,0,0,3.93,1.79,4.36,4.36,0,0,0,3.49-1.72q1.39-1.71,1.4-5.81,0-3.78-1.46-5.56a4.49,4.49,0,0,0-3.58-1.77,4.82,4.82,0,0,0-3.81,1.79Q801.23,474.48,801.22,478.49Z"/><path class="cls-2" d="M828.67,482.12h12.75v9.82c0,3.61-.76,6.46-2.26,8.55s-4.07,3.94-7.7,5.54l-2.79-5.22a13.19,13.19,0,0,0,4.67-3.14,6.48,6.48,0,0,0,1.43-3.71h-6.1Z"/><path class="cls-2" d="M911.85,481.77l11.33,1.29a15.93,15.93,0,0,1-3.07,6.14,14.33,14.33,0,0,1-5.47,4,21.54,21.54,0,0,1-8.45,1.43,31.41,31.41,0,0,1-8.25-.92,14.32,14.32,0,0,1-5.66-3,15,15,0,0,1-3.73-4.84,20.62,20.62,0,0,1,.3-15.37,14.42,14.42,0,0,1,3.28-4.2,15,15,0,0,1,4.28-2.76,23.6,23.6,0,0,1,8.93-1.44q7.62,0,11.62,2.73a14.39,14.39,0,0,1,5.61,8l-11.22,1.49a5.15,5.15,0,0,0-1.92-3,6.19,6.19,0,0,0-3.74-1,6,6,0,0,0-4.79,2.12q-1.83,2.12-1.83,6.42a8.37,8.37,0,0,0,1.82,5.82,6,6,0,0,0,4.63,2,6.39,6.39,0,0,0,3.94-1.2A7.2,7.2,0,0,0,911.85,481.77Z"/><path class="cls-2" d="M939.53,472.92l-11.4-1.2A12.62,12.62,0,0,1,930,467a10.21,10.21,0,0,1,3.5-3,14.37,14.37,0,0,1,4.51-1.41,36.51,36.51,0,0,1,6.21-.5,49.41,49.41,0,0,1,8.61.6,11,11,0,0,1,5.42,2.51,8.68,8.68,0,0,1,2.4,3.73,13.41,13.41,0,0,1,.88,4.62v13.74a17,17,0,0,0,.28,3.44A15.5,15.5,0,0,0,963,494H951.84a10.78,10.78,0,0,1-.88-1.83,12.36,12.36,0,0,1-.41-2,15.55,15.55,0,0,1-4.66,3.22,19.37,19.37,0,0,1-7.35,1.29c-3.72,0-6.53-.86-8.46-2.58a8.17,8.17,0,0,1-2.88-6.35,8.3,8.3,0,0,1,2.08-5.83q2.07-2.29,7.67-3.4,6.72-1.35,8.7-1.89a41.11,41.11,0,0,0,4.22-1.42,4.18,4.18,0,0,0-.91-3.08,4.58,4.58,0,0,0-3.19-.88,8.19,8.19,0,0,0-4.39.94A5.18,5.18,0,0,0,939.53,472.92Zm10.34,6.27q-2.46.88-5.12,1.56c-2.43.64-4,1.28-4.6,1.9a3.05,3.05,0,0,0,0,4.5A4.2,4.2,0,0,0,943,488a7.33,7.33,0,0,0,3.7-1,5.84,5.84,0,0,0,2.44-2.35,8,8,0,0,0,.71-3.62Z"/><path class="cls-2" d="M968.8,462.85H980v5.09a12.17,12.17,0,0,1,3.33-4.55,7,7,0,0,1,4.23-1.25,12.62,12.62,0,0,1,5.77,1.64l-3.69,8.5a9.31,9.31,0,0,0-3.34-.88,4.11,4.11,0,0,0-3.63,1.93q-1.85,2.73-1.85,10.2V494h-12Z"/><path class="cls-2" d="M70.12,534.85H81.65l5,19.58L93,534.85h10.77l6.58,19.63,5-19.63h11.46L115.32,566H104.71L98.4,547.24,92.31,566H81.65Z"/><path class="cls-2" d="M130.67,523H142.6v8.11H130.67Zm0,11.84H142.6V566H130.67Z"/><path class="cls-2" d="M150.21,534.85h11.11v5.06a16.37,16.37,0,0,1,5-4.43,13.25,13.25,0,0,1,6.21-1.34,10.17,10.17,0,0,1,7.75,3c1.86,2,2.8,5,2.8,9.09V566h-12V548.85c0-2-.36-3.34-1.08-4.15a3.87,3.87,0,0,0-3.05-1.21,4.33,4.33,0,0,0-3.51,1.64c-.9,1.09-1.35,3.06-1.35,5.89V566H150.21Z"/><path class="cls-2" d="M223,523v43H211.83v-4.6a15.07,15.07,0,0,1-4.28,3.95,12.18,12.18,0,0,1-5.74,1.35,11.11,11.11,0,0,1-9.72-4.83,20.14,20.14,0,0,1-3.35-11.75q0-7.74,3.71-11.84a12.15,12.15,0,0,1,9.42-4.1,13.21,13.21,0,0,1,5,.94,11.57,11.57,0,0,1,4,2.81V523Zm-12,27.3q0-3.66-1.56-5.46a5,5,0,0,0-3.92-1.8,4.31,4.31,0,0,0-3.49,1.73q-1.41,1.72-1.41,5.8c0,2.54.49,4.4,1.45,5.58a4.48,4.48,0,0,0,3.59,1.77,4.76,4.76,0,0,0,3.81-1.79Q211,554.36,211,550.31Z"/><path class="cls-2" d="M228.79,550.49a15.55,15.55,0,0,1,4.8-11.73q4.82-4.62,13-4.62,9.35,0,14.12,5.42a16.95,16.95,0,0,1-.92,22.52q-4.75,4.57-13.17,4.58-7.5,0-12.13-3.81A15.27,15.27,0,0,1,228.79,550.49Zm12,0c0,2.77.56,4.83,1.69,6.15a5.5,5.5,0,0,0,8.46,0q1.67-2,1.66-6.3,0-4-1.67-6a5.18,5.18,0,0,0-4.13-2,5.39,5.39,0,0,0-4.31,2Q240.75,546.36,240.74,550.46Z"/><path class="cls-2" d="M265.7,534.85h11.53l5,19.58,6.31-19.58h10.78l6.58,19.63,5-19.63h11.45L310.9,566H300.29L294,547.24,287.9,566H277.24Z"/><path class="cls-2" d="M321.22,554.12H334v9.82q0,5.41-2.25,8.55T324,578l-2.78-5.22a13.28,13.28,0,0,0,4.67-3.14,6.4,6.4,0,0,0,1.42-3.71h-6.09Z"/><path class="cls-2" d="M357.7,534.85h11.52l5,19.58,6.32-19.58H391.3l6.58,19.63,5-19.63h11.46L402.89,566H392.28L386,547.24,379.89,566H369.23Z"/><path class="cls-2" d="M428,544.92l-11.4-1.2a12.79,12.79,0,0,1,1.86-4.7,10.3,10.3,0,0,1,3.5-3,14.55,14.55,0,0,1,4.51-1.41,36.71,36.71,0,0,1,6.22-.5,49.41,49.41,0,0,1,8.61.6,11.08,11.08,0,0,1,5.42,2.51,8.87,8.87,0,0,1,2.4,3.73,13.41,13.41,0,0,1,.88,4.62v13.74a16.27,16.27,0,0,0,.28,3.44A15.37,15.37,0,0,0,451.5,566H440.31a11.63,11.63,0,0,1-.88-1.83,15.11,15.11,0,0,1-.41-2,15.39,15.39,0,0,1-4.65,3.22,19.43,19.43,0,0,1-7.36,1.29q-5.56,0-8.45-2.58a8.18,8.18,0,0,1-2.89-6.35,8.34,8.34,0,0,1,2.08-5.83q2.08-2.29,7.68-3.4,6.7-1.35,8.7-1.89a41.11,41.11,0,0,0,4.22-1.42,4.18,4.18,0,0,0-.91-3.08,4.58,4.58,0,0,0-3.19-.88,8.22,8.22,0,0,0-4.4.94A5.17,5.17,0,0,0,428,544.92Zm10.34,6.27q-2.46.88-5.13,1.56c-2.42.64-4,1.28-4.6,1.9a3,3,0,0,0-1,2.2,3,3,0,0,0,1,2.3,4.16,4.16,0,0,0,2.88.89,7.37,7.37,0,0,0,3.71-1,5.87,5.87,0,0,0,2.43-2.35,7.9,7.9,0,0,0,.72-3.62Z"/><path class="cls-2" d="M455.05,557.32l11.83-1.12a5.82,5.82,0,0,0,2.06,3,6,6,0,0,0,3.51.91,5.9,5.9,0,0,0,3.72-1,2.27,2.27,0,0,0,1-1.9,2.19,2.19,0,0,0-1.35-2,24.22,24.22,0,0,0-5.13-1.22,54,54,0,0,1-8.63-2,9.07,9.07,0,0,1-4.07-3.12,8.1,8.1,0,0,1-1.65-5,8.2,8.2,0,0,1,1.78-5.3,10.71,10.71,0,0,1,4.93-3.32,26.16,26.16,0,0,1,8.4-1.1,29.32,29.32,0,0,1,8.22.85,10.84,10.84,0,0,1,4.43,2.64,13.78,13.78,0,0,1,2.94,4.83l-11.31,1.12a3.86,3.86,0,0,0-1.46-2.2,6,6,0,0,0-3.4-.94,4.83,4.83,0,0,0-2.95.72,2.16,2.16,0,0,0-.92,1.74,1.85,1.85,0,0,0,1.17,1.72,18.75,18.75,0,0,0,5.1,1.06,35,35,0,0,1,8.85,1.87,9.81,9.81,0,0,1,4.44,3.42,8.48,8.48,0,0,1,1.53,4.89,9.64,9.64,0,0,1-1.62,5.24,11,11,0,0,1-5.13,4.06,24.7,24.7,0,0,1-9.53,1.5q-8.54,0-12.15-2.43A10.93,10.93,0,0,1,455.05,557.32Z"/><path class="cls-2" d="M493.81,523h11.92v15.82a15.93,15.93,0,0,1,4.84-3.6,13.58,13.58,0,0,1,5.68-1.09,10,10,0,0,1,7.66,3q2.8,3,2.8,9.08V566h-12V548.85c0-2-.36-3.34-1.09-4.15a3.86,3.86,0,0,0-3-1.21,4.35,4.35,0,0,0-3.52,1.64c-.9,1.09-1.35,3.06-1.35,5.89V566H493.81Z"/><path class="cls-2" d="M534.27,523h11.92v8.11H534.27Zm0,11.84h11.92V566H534.27Z"/><path class="cls-2" d="M553.81,534.85h11.1v5.06a16.37,16.37,0,0,1,5-4.43,13.25,13.25,0,0,1,6.21-1.34,10.15,10.15,0,0,1,7.75,3q2.8,2.94,2.8,9.09V566h-12V548.85c0-2-.36-3.34-1.09-4.15a3.86,3.86,0,0,0-3-1.21,4.35,4.35,0,0,0-3.52,1.64c-.9,1.09-1.35,3.06-1.35,5.89V566H553.81Z"/><path class="cls-2" d="M615.48,534.85h11.16v29.38l0,1.38a13,13,0,0,1-1.25,5.58,11.65,11.65,0,0,1-3.31,4.29,12.87,12.87,0,0,1-5.24,2.37,32.5,32.5,0,0,1-7.28.74q-9.37,0-12.88-2.82a9.16,9.16,0,0,1-3.5-7.53c0-.39,0-.91.06-1.58L604.84,568a3.85,3.85,0,0,0,1.35,2.23,5.74,5.74,0,0,0,3.31.91,5,5,0,0,0,3.85-1.38q1.27-1.38,1.28-4.81v-4.71a12.28,12.28,0,0,1-3.52,3,12.42,12.42,0,0,1-5.94,1.47,11.81,11.81,0,0,1-10.08-5.45q-2.73-3.87-2.73-10.22,0-7.28,3.52-11.08a11.93,11.93,0,0,1,9.2-3.81,12.89,12.89,0,0,1,6,1.23,13.06,13.06,0,0,1,4.41,4.08Zm-11.22,15.08a7.44,7.44,0,0,0,1.43,5,5.11,5.11,0,0,0,7.52-.06,7.45,7.45,0,0,0,1.51-5.08,7.61,7.61,0,0,0-1.59-5.2,4.94,4.94,0,0,0-3.86-1.8,4.49,4.49,0,0,0-3.65,1.65C604.71,545.54,604.26,547.38,604.26,549.93Z"/><path class="cls-2" d="M633.88,554h12.74v12H633.88Z"/><path class="cls-2" d="M100.8,702.87H85.73L83.64,710H70.09l16.14-43h14.48l16.14,43H103Zm-2.75-9.29-4.74-15.44-4.7,15.44Z"/><path class="cls-2" d="M115.73,678.85h12.41l6,19.71,6.27-19.71h12L139.25,710H128.67Z"/><path class="cls-2" d="M152.88,694.49a15.52,15.52,0,0,1,4.81-11.73q4.8-4.62,13-4.62,9.34,0,14.13,5.42a17,17,0,0,1-.93,22.52q-4.76,4.57-13.17,4.58-7.5,0-12.13-3.81A15.27,15.27,0,0,1,152.88,694.49Zm12,0c0,2.77.57,4.83,1.69,6.15a5.51,5.51,0,0,0,8.47,0q1.65-2,1.65-6.3,0-4-1.67-6a5.18,5.18,0,0,0-4.13-2,5.4,5.4,0,0,0-4.31,2Q164.84,690.36,164.83,694.46Z"/><path class="cls-2" d="M194.8,667h11.93v8.11H194.8Zm0,11.84h11.93V710H194.8Z"/><path class="cls-2" d="M247.1,667v43H235.94v-4.6a14.94,14.94,0,0,1-4.28,3.95,12.18,12.18,0,0,1-5.74,1.35,11.08,11.08,0,0,1-9.71-4.83,20.07,20.07,0,0,1-3.36-11.75q0-7.74,3.71-11.84a12.15,12.15,0,0,1,9.42-4.1,13.21,13.21,0,0,1,5.05.94,11.57,11.57,0,0,1,4,2.81V667Zm-11.95,27.3q0-3.66-1.56-5.46a5,5,0,0,0-3.92-1.8,4.31,4.31,0,0,0-3.49,1.73c-.94,1.15-1.4,3.08-1.4,5.8q0,3.81,1.45,5.58a4.45,4.45,0,0,0,3.58,1.77,4.76,4.76,0,0,0,3.81-1.79Q235.15,698.36,235.15,694.31Z"/><path class="cls-2" d="M297.58,697.77l11.34,1.29a16,16,0,0,1-3.08,6.14,14.38,14.38,0,0,1-5.46,4,21.63,21.63,0,0,1-8.46,1.43,31.28,31.28,0,0,1-8.24-.92,14.29,14.29,0,0,1-5.67-3,15.09,15.09,0,0,1-3.72-4.84,17,17,0,0,1-1.35-7.38,17.43,17.43,0,0,1,1.64-8,14.42,14.42,0,0,1,3.28-4.2,15,15,0,0,1,4.28-2.76,23.6,23.6,0,0,1,8.93-1.44q7.62,0,11.62,2.73a14.29,14.29,0,0,1,5.61,8l-11.22,1.49a5.15,5.15,0,0,0-1.92-3,6.18,6.18,0,0,0-3.73-1,6,6,0,0,0-4.79,2.12c-1.22,1.41-1.84,3.55-1.84,6.42a8.37,8.37,0,0,0,1.82,5.82,6,6,0,0,0,4.63,2,6.37,6.37,0,0,0,3.94-1.2A7.2,7.2,0,0,0,297.58,697.77Z"/><path class="cls-2" d="M313.25,667h12v43h-12Z"/><path class="cls-2" d="M333.26,667h11.93v8.11H333.26Zm0,11.84h11.93V710H333.26Z"/><path class="cls-2" d="M376,697.77l11.33,1.29a15.93,15.93,0,0,1-3.07,6.14,14.33,14.33,0,0,1-5.47,4,21.54,21.54,0,0,1-8.45,1.43,31.41,31.41,0,0,1-8.25-.92,14.32,14.32,0,0,1-5.66-3,15,15,0,0,1-3.73-4.84,20.62,20.62,0,0,1,.3-15.37,14.42,14.42,0,0,1,3.28-4.2,15,15,0,0,1,4.28-2.76,23.6,23.6,0,0,1,8.93-1.44q7.62,0,11.62,2.73a14.39,14.39,0,0,1,5.61,8l-11.22,1.49a5.15,5.15,0,0,0-1.92-3,6.19,6.19,0,0,0-3.74-1,6,6,0,0,0-4.79,2.12q-1.83,2.12-1.83,6.42a8.37,8.37,0,0,0,1.82,5.82,6,6,0,0,0,4.63,2,6.39,6.39,0,0,0,3.94-1.2A7.2,7.2,0,0,0,376,697.77Z"/><path class="cls-2" d="M391.8,667H404v22.17l8.91-10.33h14.68l-11.16,10.89L428.21,710H414.78l-6.3-12.47-4.5,4.38V710H391.8Z"/><path class="cls-2" d="M450.36,694.49a15.52,15.52,0,0,1,4.81-11.73q4.8-4.62,13-4.62,9.36,0,14.13,5.42a17,17,0,0,1-.93,22.52q-4.75,4.57-13.17,4.58-7.5,0-12.13-3.81A15.3,15.3,0,0,1,450.36,694.49Zm11.95,0c0,2.77.57,4.83,1.69,6.15a5.51,5.51,0,0,0,8.47,0q1.65-2,1.65-6.3,0-4-1.67-6a5.18,5.18,0,0,0-4.13-2,5.4,5.4,0,0,0-4.31,2Q462.32,690.36,462.31,694.46Z"/><path class="cls-2" d="M491.85,678.85H503v5.06a16.37,16.37,0,0,1,5-4.43,13.25,13.25,0,0,1,6.21-1.34,10.17,10.17,0,0,1,7.75,3c1.86,2,2.8,5,2.8,9.09V710h-12V692.85c0-2-.36-3.34-1.08-4.15a3.87,3.87,0,0,0-3.05-1.21,4.34,4.34,0,0,0-3.51,1.64c-.9,1.09-1.35,3.06-1.35,5.89V710H491.85Z"/><path class="cls-2" d="M551.93,667h12v14.88a12,12,0,0,1,4.06-2.81,13.18,13.18,0,0,1,5-.94,12.14,12.14,0,0,1,9.4,4.09c2.48,2.72,3.72,6.64,3.72,11.73a22.1,22.1,0,0,1-1.7,9,12.63,12.63,0,0,1-4.7,5.8,12.1,12.1,0,0,1-6.66,1.92,12.34,12.34,0,0,1-5.75-1.35,15,15,0,0,1-4.27-3.95V710H551.93Zm12,27.3q0,4,1.51,5.82a4.76,4.76,0,0,0,3.82,1.8,4.48,4.48,0,0,0,3.59-1.77c1-1.18,1.45-3.17,1.45-6,0-2.46-.48-4.27-1.42-5.42a4.31,4.31,0,0,0-3.45-1.73,5,5,0,0,0-4,1.8Q563.89,690.65,563.89,694.31Z"/><path class="cls-2" d="M602.76,688.92l-11.39-1.2a12.79,12.79,0,0,1,1.86-4.7,10.3,10.3,0,0,1,3.5-3,14.46,14.46,0,0,1,4.51-1.41,36.51,36.51,0,0,1,6.21-.5,49.26,49.26,0,0,1,8.61.6,11,11,0,0,1,5.42,2.51,8.79,8.79,0,0,1,2.41,3.73,13.65,13.65,0,0,1,.88,4.62v13.74a17.09,17.09,0,0,0,.27,3.44,15.5,15.5,0,0,0,1.22,3.18H615.07a11.63,11.63,0,0,1-.88-1.83,13.6,13.6,0,0,1-.41-2,15.43,15.43,0,0,1-4.66,3.22,19.37,19.37,0,0,1-7.35,1.29q-5.57,0-8.45-2.58a8.15,8.15,0,0,1-2.89-6.35,8.3,8.3,0,0,1,2.08-5.83q2.09-2.29,7.68-3.4,6.7-1.35,8.7-1.89a42.79,42.79,0,0,0,4.22-1.42,4.23,4.23,0,0,0-.91-3.08,4.6,4.6,0,0,0-3.2-.88,8.21,8.21,0,0,0-4.39.94A5.18,5.18,0,0,0,602.76,688.92Zm10.35,6.27c-1.65.59-3.35,1.11-5.13,1.56-2.42.64-4,1.28-4.6,1.9a3.05,3.05,0,0,0,0,4.5,4.2,4.2,0,0,0,2.89.89,7.39,7.39,0,0,0,3.71-1,5.87,5.87,0,0,0,2.43-2.35,7.9,7.9,0,0,0,.72-3.62Z"/><path class="cls-2" d="M664.67,667v43H653.51v-4.6a15.07,15.07,0,0,1-4.28,3.95,12.18,12.18,0,0,1-5.74,1.35,11.11,11.11,0,0,1-9.72-4.83,20.14,20.14,0,0,1-3.35-11.75q0-7.74,3.71-11.84a12.14,12.14,0,0,1,9.41-4.1,13.26,13.26,0,0,1,5.06.94,11.57,11.57,0,0,1,4,2.81V667Zm-12,27.3c0-2.44-.51-4.26-1.55-5.46a5,5,0,0,0-3.92-1.8,4.31,4.31,0,0,0-3.49,1.73q-1.41,1.72-1.41,5.8c0,2.54.49,4.4,1.45,5.58a4.48,4.48,0,0,0,3.59,1.77,4.76,4.76,0,0,0,3.81-1.79C652.21,699,652.71,697,652.71,694.31Z"/><path class="cls-2" d="M746.35,667v11.84h6.56v8.73h-6.56v11a5.85,5.85,0,0,0,.38,2.63,2.18,2.18,0,0,0,2,1,13,13,0,0,0,3.69-.76l.88,8.24a39.06,39.06,0,0,1-8.26,1q-4.46,0-6.56-1.14a6.93,6.93,0,0,1-3.12-3.47q-1-2.32-1-7.53V687.58H730v-8.73h4.39v-5.72Z"/><path class="cls-2" d="M758.59,667h11.93v15.82a16,16,0,0,1,4.83-3.6,13.62,13.62,0,0,1,5.69-1.09,10.06,10.06,0,0,1,7.66,3q2.79,3,2.79,9.08V710h-12V692.85c0-2-.36-3.34-1.08-4.15a3.87,3.87,0,0,0-3-1.21,4.33,4.33,0,0,0-3.51,1.64c-.9,1.09-1.35,3.06-1.35,5.89V710H758.59Z"/><path class="cls-2" d="M799.05,667H811v8.11H799.05Zm0,11.84H811V710H799.05Z"/><path class="cls-2" d="M818.59,678.85H829.7v5.06a16.37,16.37,0,0,1,5-4.43,13.25,13.25,0,0,1,6.21-1.34,10.17,10.17,0,0,1,7.75,3q2.79,2.94,2.79,9.09V710h-12V692.85c0-2-.36-3.34-1.08-4.15a3.87,3.87,0,0,0-3-1.21,4.33,4.33,0,0,0-3.51,1.64c-.9,1.09-1.35,3.06-1.35,5.89V710H818.59Z"/><path class="cls-2" d="M880.26,678.85h11.17v29.38l0,1.38a13,13,0,0,1-1.25,5.58,11.65,11.65,0,0,1-3.31,4.29,13,13,0,0,1-5.24,2.37,32.5,32.5,0,0,1-7.28.74q-9.39,0-12.88-2.82a9.16,9.16,0,0,1-3.5-7.53c0-.39,0-.91.06-1.58L869.63,712a3.75,3.75,0,0,0,1.35,2.23,5.74,5.74,0,0,0,3.31.91,5,5,0,0,0,3.85-1.38q1.27-1.38,1.27-4.81v-4.71A11.63,11.63,0,0,1,870,708.7a11.81,11.81,0,0,1-10.08-5.45q-2.72-3.87-2.72-10.22,0-7.28,3.51-11.08a11.94,11.94,0,0,1,9.2-3.81,11.28,11.28,0,0,1,10.4,5.31ZM869,693.93a7.39,7.39,0,0,0,1.44,5,5.1,5.1,0,0,0,7.51-.06,7.4,7.4,0,0,0,1.51-5.08,7.66,7.66,0,0,0-1.58-5.2,5,5,0,0,0-3.87-1.8,4.47,4.47,0,0,0-3.64,1.65C869.5,689.54,869,691.38,869,693.93Z"/><path class="cls-2" d="M896.52,701.32l11.84-1.12a5.81,5.81,0,0,0,2,3,6.06,6.06,0,0,0,3.52.91,5.9,5.9,0,0,0,3.72-1,2.28,2.28,0,0,0,1-1.9,2.19,2.19,0,0,0-1.35-2A24.24,24.24,0,0,0,912.2,698a53.68,53.68,0,0,1-8.63-2,9,9,0,0,1-4.07-3.12,8,8,0,0,1-1.66-5,8.21,8.21,0,0,1,1.79-5.3,10.63,10.63,0,0,1,4.92-3.32,26.19,26.19,0,0,1,8.41-1.1,29.37,29.37,0,0,1,8.22.85,10.8,10.8,0,0,1,4.42,2.64,13.78,13.78,0,0,1,2.94,4.83l-11.3,1.12a3.87,3.87,0,0,0-1.47-2.2,6,6,0,0,0-3.4-.94,4.79,4.79,0,0,0-2.94.72,2.13,2.13,0,0,0-.92,1.74,1.85,1.85,0,0,0,1.17,1.72,18.75,18.75,0,0,0,5.1,1.06,34.94,34.94,0,0,1,8.84,1.87,9.71,9.71,0,0,1,4.44,3.42,8.41,8.41,0,0,1,1.54,4.89A9.57,9.57,0,0,1,928,705.1a11,11,0,0,1-5.12,4.06,24.79,24.79,0,0,1-9.54,1.5q-8.52,0-12.14-2.43A11,11,0,0,1,896.52,701.32Z"/><path class="cls-2" d="M74,739H86v43H74Z"/><path class="cls-2" d="M94,739H106v8.11H94Zm0,11.84H106V782H94Z"/><path class="cls-2" d="M113.56,739h12.19v22.17l8.91-10.33h14.68l-11.17,10.89L150,782H136.55l-6.31-12.47-4.49,4.38V782H113.56Z"/><path class="cls-2" d="M186.07,769.36h-23.9a7.68,7.68,0,0,0,1.55,4.28,5.65,5.65,0,0,0,4.51,2,6.73,6.73,0,0,0,3.34-.88,7.67,7.67,0,0,0,2.08-2l11.75,1.08a16.83,16.83,0,0,1-6.5,6.73q-3.81,2-10.93,2c-4.12,0-7.37-.58-9.73-1.74a14.27,14.27,0,0,1-5.87-5.54,16.73,16.73,0,0,1-2.33-8.92,15.7,15.7,0,0,1,4.67-11.81q4.68-4.5,12.91-4.51,6.67,0,10.54,2a13.61,13.61,0,0,1,5.89,5.86,21.4,21.4,0,0,1,2,10ZM174,763.65q-.36-3.46-1.87-4.95a5.35,5.35,0,0,0-4-1.5,5.43,5.43,0,0,0-4.55,2.26,8.24,8.24,0,0,0-1.37,4.19Z"/><path class="cls-2" d="M244.32,739v43H233.15v-4.6a14.92,14.92,0,0,1-4.27,3.95,12.22,12.22,0,0,1-5.75,1.35,11.1,11.1,0,0,1-9.71-4.83,20.14,20.14,0,0,1-3.35-11.75q0-7.74,3.7-11.84a12.16,12.16,0,0,1,9.42-4.1,13.26,13.26,0,0,1,5.06.94,11.67,11.67,0,0,1,4,2.81V739Zm-12,27.3c0-2.44-.51-4.26-1.55-5.46a5,5,0,0,0-3.93-1.8,4.31,4.31,0,0,0-3.48,1.73q-1.41,1.72-1.41,5.8c0,2.54.49,4.4,1.45,5.58a4.48,4.48,0,0,0,3.59,1.77,4.79,4.79,0,0,0,3.81-1.79C231.86,771,232.36,769,232.36,766.31Z"/><path class="cls-2" d="M262.45,760.92l-11.4-1.2a12.62,12.62,0,0,1,1.87-4.7,10.21,10.21,0,0,1,3.5-3,14.37,14.37,0,0,1,4.51-1.41,36.51,36.51,0,0,1,6.21-.5,49.41,49.41,0,0,1,8.61.6,11,11,0,0,1,5.42,2.51,8.68,8.68,0,0,1,2.4,3.73,13.41,13.41,0,0,1,.88,4.62v13.74a17,17,0,0,0,.28,3.44A15.5,15.5,0,0,0,286,782H274.76a10.78,10.78,0,0,1-.88-1.83,12.36,12.36,0,0,1-.41-2,15.55,15.55,0,0,1-4.66,3.22,19.37,19.37,0,0,1-7.35,1.29c-3.72,0-6.53-.86-8.46-2.58a8.17,8.17,0,0,1-2.88-6.35,8.3,8.3,0,0,1,2.08-5.83q2.07-2.29,7.67-3.4,6.72-1.35,8.7-1.89a41.11,41.11,0,0,0,4.22-1.42,4.18,4.18,0,0,0-.91-3.08,4.58,4.58,0,0,0-3.19-.88,8.19,8.19,0,0,0-4.39.94A5.18,5.18,0,0,0,262.45,760.92Zm10.34,6.27q-2.46.88-5.12,1.56c-2.43.64-4,1.28-4.6,1.9a3.05,3.05,0,0,0,0,4.5,4.2,4.2,0,0,0,2.89.89,7.33,7.33,0,0,0,3.7-1,5.84,5.84,0,0,0,2.44-2.35,8,8,0,0,0,.71-3.62Z"/><path class="cls-2" d="M291.6,750.85h11.11v5.06a16.35,16.35,0,0,1,5-4.43,13.27,13.27,0,0,1,6.22-1.34,10.13,10.13,0,0,1,7.74,3q2.81,2.94,2.8,9.09V782h-12V764.85c0-2-.36-3.34-1.08-4.15a3.88,3.88,0,0,0-3.05-1.21,4.35,4.35,0,0,0-3.52,1.64c-.9,1.09-1.34,3.06-1.34,5.89V782H291.6Z"/><path class="cls-2" d="M353.27,750.85h11.16v29.38l0,1.38a13,13,0,0,1-1.24,5.58,11.76,11.76,0,0,1-3.31,4.29,13,13,0,0,1-5.25,2.37,32.44,32.44,0,0,1-7.28.74q-9.37,0-12.87-2.82a9.13,9.13,0,0,1-3.5-7.53c0-.39,0-.91.05-1.58L342.64,784a3.79,3.79,0,0,0,1.34,2.23,5.76,5.76,0,0,0,3.31.91,5,5,0,0,0,3.86-1.38q1.28-1.38,1.27-4.81v-4.71A11.63,11.63,0,0,1,343,780.7a11.81,11.81,0,0,1-10.08-5.45q-2.73-3.87-2.72-10.22,0-7.28,3.51-11.08a11.94,11.94,0,0,1,9.2-3.81,12.89,12.89,0,0,1,6,1.23,13.06,13.06,0,0,1,4.41,4.08Zm-11.22,15.08a7.39,7.39,0,0,0,1.44,5,5.1,5.1,0,0,0,7.51-.06,7.4,7.4,0,0,0,1.51-5.08,7.66,7.66,0,0,0-1.58-5.2,5,5,0,0,0-3.87-1.8,4.5,4.5,0,0,0-3.65,1.65C342.5,761.54,342.05,763.38,342.05,765.93Z"/><path class="cls-2" d="M406.18,769.36h-23.9a7.68,7.68,0,0,0,1.55,4.28,5.63,5.63,0,0,0,4.51,2,6.76,6.76,0,0,0,3.34-.88,7.81,7.81,0,0,0,2.08-2l11.75,1.08a16.85,16.85,0,0,1-6.51,6.73q-3.81,2-10.92,2c-4.12,0-7.37-.58-9.73-1.74a14.27,14.27,0,0,1-5.87-5.54,16.64,16.64,0,0,1-2.33-8.92,15.67,15.67,0,0,1,4.67-11.81c3.11-3,7.42-4.51,12.9-4.51q6.69,0,10.55,2a13.66,13.66,0,0,1,5.89,5.86,21.4,21.4,0,0,1,2,10Zm-12.13-5.71q-.35-3.46-1.86-4.95a5.83,5.83,0,0,0-8.51.76,8.33,8.33,0,0,0-1.38,4.19Z"/><path class="cls-2" d="M411.78,750.85h11.16v5.09a12.16,12.16,0,0,1,3.32-4.55,7,7,0,0,1,4.24-1.25,12.62,12.62,0,0,1,5.77,1.64l-3.69,8.5a9.31,9.31,0,0,0-3.34-.88,4.1,4.1,0,0,0-3.63,1.93q-1.85,2.73-1.85,10.2V782h-12Z"/><path class="cls-2" d="M456.19,773.32,468,772.2a5.81,5.81,0,0,0,2.05,3,6.05,6.05,0,0,0,3.51.91,5.86,5.86,0,0,0,3.72-1,2.27,2.27,0,0,0,1-1.9,2.19,2.19,0,0,0-1.35-2,24.24,24.24,0,0,0-5.12-1.22,53.4,53.4,0,0,1-8.63-2,9,9,0,0,1-4.07-3.12,8,8,0,0,1-1.66-5,8.21,8.21,0,0,1,1.79-5.3,10.63,10.63,0,0,1,4.92-3.32,26.19,26.19,0,0,1,8.41-1.1,29.24,29.24,0,0,1,8.21.85,10.77,10.77,0,0,1,4.43,2.64,13.78,13.78,0,0,1,2.94,4.83l-11.31,1.12a3.86,3.86,0,0,0-1.46-2.2,6,6,0,0,0-3.4-.94,4.77,4.77,0,0,0-2.94.72,2.14,2.14,0,0,0-.93,1.74,1.84,1.84,0,0,0,1.18,1.72,18.75,18.75,0,0,0,5.09,1.06,34.93,34.93,0,0,1,8.85,1.87,9.81,9.81,0,0,1,4.44,3.42,8.49,8.49,0,0,1,1.54,4.89,9.57,9.57,0,0,1-1.63,5.24,11,11,0,0,1-5.13,4.06,24.7,24.7,0,0,1-9.53,1.5c-5.69,0-9.73-.81-12.15-2.43A11,11,0,0,1,456.19,773.32Z"/><path class="cls-2" d="M495.39,739h11.92v8.11H495.39Zm0,11.84h11.92V782H495.39Z"/><path class="cls-2" d="M536.58,750.85h11.16v29.38l0,1.38a13,13,0,0,1-1.24,5.58,11.76,11.76,0,0,1-3.31,4.29,13,13,0,0,1-5.25,2.37,32.44,32.44,0,0,1-7.28.74q-9.37,0-12.87-2.82a9.13,9.13,0,0,1-3.5-7.53c0-.39,0-.91.06-1.58L526,784a3.79,3.79,0,0,0,1.34,2.23,5.77,5.77,0,0,0,3.32.91,5,5,0,0,0,3.85-1.38q1.27-1.38,1.27-4.81v-4.71a11.63,11.63,0,0,1-9.46,4.48,11.81,11.81,0,0,1-10.08-5.45q-2.72-3.87-2.72-10.22,0-7.28,3.51-11.08a11.94,11.94,0,0,1,9.2-3.81,11.28,11.28,0,0,1,10.4,5.31Zm-11.22,15.08a7.39,7.39,0,0,0,1.44,5,5.1,5.1,0,0,0,7.51-.06,7.4,7.4,0,0,0,1.51-5.08,7.66,7.66,0,0,0-1.58-5.2,5,5,0,0,0-3.87-1.8,4.5,4.5,0,0,0-3.65,1.65C525.82,761.54,525.36,763.38,525.36,765.93Z"/><path class="cls-2" d="M555,750.85h11.1v5.06a16.37,16.37,0,0,1,5-4.43,13.25,13.25,0,0,1,6.21-1.34,10.14,10.14,0,0,1,7.75,3q2.81,2.94,2.8,9.09V782h-12V764.85c0-2-.36-3.34-1.08-4.15a3.88,3.88,0,0,0-3-1.21,4.35,4.35,0,0,0-3.52,1.64c-.9,1.09-1.34,3.06-1.34,5.89V782H555Z"/><path class="cls-2" d="M595,770.12h12.74v9.82q0,5.41-2.25,8.55c-1.51,2.09-4.07,3.94-7.71,5.54L595,788.81a13.28,13.28,0,0,0,4.67-3.14,6.4,6.4,0,0,0,1.42-3.71H595Z"/><path class="cls-2" d="M635,739h11.92v15.82a16.17,16.17,0,0,1,4.84-3.6,13.58,13.58,0,0,1,5.68-1.09,10,10,0,0,1,7.66,3q2.81,3,2.8,9.08V782h-12V764.85c0-2-.36-3.34-1.09-4.15a3.85,3.85,0,0,0-3-1.21,4.35,4.35,0,0,0-3.52,1.64c-.9,1.09-1.35,3.06-1.35,5.89V782H635Z"/><path class="cls-2" d="M685.85,760.92l-11.4-1.2a12.79,12.79,0,0,1,1.86-4.7,10.3,10.3,0,0,1,3.5-3,14.53,14.53,0,0,1,4.52-1.41,36.51,36.51,0,0,1,6.21-.5,49.41,49.41,0,0,1,8.61.6,11.08,11.08,0,0,1,5.42,2.51A8.68,8.68,0,0,1,707,757a13.41,13.41,0,0,1,.88,4.62v13.74a16.27,16.27,0,0,0,.28,3.44,15.5,15.5,0,0,0,1.22,3.18h-11.2a11.38,11.38,0,0,1-.87-1.83,12.36,12.36,0,0,1-.41-2,15.55,15.55,0,0,1-4.66,3.22,19.39,19.39,0,0,1-7.36,1.29c-3.71,0-6.52-.86-8.45-2.58a8.17,8.17,0,0,1-2.88-6.35,8.3,8.3,0,0,1,2.08-5.83q2.07-2.29,7.67-3.4,6.71-1.35,8.7-1.89a41.11,41.11,0,0,0,4.22-1.42,4.18,4.18,0,0,0-.91-3.08,4.58,4.58,0,0,0-3.19-.88,8.19,8.19,0,0,0-4.39.94A5.13,5.13,0,0,0,685.85,760.92Zm10.34,6.27q-2.46.88-5.13,1.56c-2.42.64-3.95,1.28-4.6,1.9a3.06,3.06,0,0,0,0,4.5,4.18,4.18,0,0,0,2.89.89,7.36,7.36,0,0,0,3.7-1,5.81,5.81,0,0,0,2.43-2.35,7.9,7.9,0,0,0,.72-3.62Z"/><path class="cls-2" d="M715.09,750.85h11.13v4.54a15.39,15.39,0,0,1,4.86-4,13.31,13.31,0,0,1,5.91-1.2,11.34,11.34,0,0,1,5.9,1.32,9.88,9.88,0,0,1,3.55,3.93,17.8,17.8,0,0,1,5.12-4.15,13.26,13.26,0,0,1,5.7-1.1,10.19,10.19,0,0,1,7.81,3q2.8,3,2.81,9.3V782h-12V764.23a4.94,4.94,0,0,0-.82-3.13,3.6,3.6,0,0,0-3-1.61,4.21,4.21,0,0,0-3.38,1.52q-1.29,1.53-1.29,4.89V782h-12V764.82a10.49,10.49,0,0,0-.24-2.78,3.76,3.76,0,0,0-1.32-1.89,3.52,3.52,0,0,0-2.2-.72,4.27,4.27,0,0,0-3.39,1.55q-1.32,1.56-1.32,5.1V782H715.09Z"/><path class="cls-2" d="M775.09,750.85h11.13v4.54a15.39,15.39,0,0,1,4.86-4,13.31,13.31,0,0,1,5.91-1.2,11.34,11.34,0,0,1,5.9,1.32,9.88,9.88,0,0,1,3.55,3.93,17.8,17.8,0,0,1,5.12-4.15,13.26,13.26,0,0,1,5.7-1.1,10.19,10.19,0,0,1,7.81,3q2.8,3,2.81,9.3V782h-12V764.23a4.94,4.94,0,0,0-.82-3.13,3.6,3.6,0,0,0-3-1.61,4.21,4.21,0,0,0-3.38,1.52q-1.29,1.53-1.29,4.89V782h-12V764.82a10.49,10.49,0,0,0-.24-2.78,3.76,3.76,0,0,0-1.32-1.89,3.52,3.52,0,0,0-2.2-.72,4.27,4.27,0,0,0-3.39,1.55q-1.32,1.56-1.32,5.1V782H775.09Z"/><path class="cls-2" d="M869.54,769.36H845.63a7.76,7.76,0,0,0,1.56,4.28,5.63,5.63,0,0,0,4.51,2,6.76,6.76,0,0,0,3.34-.88,7.81,7.81,0,0,0,2.08-2l11.75,1.08a16.85,16.85,0,0,1-6.51,6.73q-3.81,2-10.92,2-6.2,0-9.73-1.74a14.35,14.35,0,0,1-5.88-5.54,16.72,16.72,0,0,1-2.32-8.92,15.67,15.67,0,0,1,4.67-11.81c3.11-3,7.42-4.51,12.9-4.51q6.69,0,10.55,2a13.66,13.66,0,0,1,5.89,5.86,21.4,21.4,0,0,1,2,10Zm-12.13-5.71q-.35-3.46-1.86-4.95a5.83,5.83,0,0,0-8.51.76,8.33,8.33,0,0,0-1.38,4.19Z"/><path class="cls-2" d="M875.14,750.85H886.3v5.09a12.16,12.16,0,0,1,3.32-4.55,7,7,0,0,1,4.24-1.25,12.62,12.62,0,0,1,5.77,1.64l-3.69,8.5a9.31,9.31,0,0,0-3.34-.88,4.13,4.13,0,0,0-3.64,1.93q-1.85,2.73-1.84,10.2V782h-12Z"/><path class="cls-2" d="M897.61,770.12h12.74v9.82q0,5.41-2.25,8.55T900.39,794l-2.78-5.22a13.38,13.38,0,0,0,4.67-3.14A6.47,6.47,0,0,0,903.7,782h-6.09Z"/><path class="cls-2" d="M73.6,811H85.79v22.17l8.91-10.33h14.68L98.21,833.74,110,854H96.58l-6.3-12.47-4.49,4.38V854H73.6Z"/><path class="cls-2" d="M113.74,822.85H124.9v5.09a12.17,12.17,0,0,1,3.33-4.55,7,7,0,0,1,4.23-1.25,12.62,12.62,0,0,1,5.77,1.64l-3.69,8.5a9.31,9.31,0,0,0-3.34-.88,4.11,4.11,0,0,0-3.63,1.93q-1.84,2.73-1.85,10.2V854h-12Z"/><path class="cls-2" d="M152.15,832.92l-11.4-1.2a12.79,12.79,0,0,1,1.86-4.7,10.3,10.3,0,0,1,3.5-3,14.55,14.55,0,0,1,4.51-1.41,36.71,36.71,0,0,1,6.22-.5,49.41,49.41,0,0,1,8.61.6,11.08,11.08,0,0,1,5.42,2.51,8.77,8.77,0,0,1,2.4,3.73,13.41,13.41,0,0,1,.88,4.62v13.74a16.27,16.27,0,0,0,.28,3.44,15.37,15.37,0,0,0,1.21,3.18H164.45a11.63,11.63,0,0,1-.88-1.83,15.11,15.11,0,0,1-.41-2,15.39,15.39,0,0,1-4.65,3.22,19.39,19.39,0,0,1-7.36,1.29q-5.57,0-8.45-2.58a8.18,8.18,0,0,1-2.89-6.35,8.34,8.34,0,0,1,2.08-5.83q2.09-2.29,7.68-3.4,6.7-1.35,8.7-1.89a41.11,41.11,0,0,0,4.22-1.42,4.18,4.18,0,0,0-.91-3.08,4.58,4.58,0,0,0-3.19-.88,8.25,8.25,0,0,0-4.4.94A5.17,5.17,0,0,0,152.15,832.92Zm10.34,6.27q-2.46.88-5.13,1.56c-2.42.64-4,1.28-4.6,1.9a3,3,0,0,0-1,2.2,3,3,0,0,0,1,2.3,4.16,4.16,0,0,0,2.88.89,7.37,7.37,0,0,0,3.71-1,5.87,5.87,0,0,0,2.43-2.35,7.9,7.9,0,0,0,.72-3.62Z"/><path class="cls-2" d="M204.5,841.77l11.34,1.29a16,16,0,0,1-3.08,6.14,14.22,14.22,0,0,1-5.46,4,21.58,21.58,0,0,1-8.45,1.43,31.41,31.41,0,0,1-8.25-.92,14.29,14.29,0,0,1-5.67-3,15.09,15.09,0,0,1-3.72-4.84,17,17,0,0,1-1.35-7.38,17.43,17.43,0,0,1,1.64-8,14.46,14.46,0,0,1,3.29-4.2,14.92,14.92,0,0,1,4.27-2.76,23.69,23.69,0,0,1,8.94-1.44q7.62,0,11.61,2.73a14.29,14.29,0,0,1,5.61,8L204,834.33a5.15,5.15,0,0,0-1.92-3,6.16,6.16,0,0,0-3.73-1,6,6,0,0,0-4.79,2.12q-1.83,2.12-1.83,6.42a8.37,8.37,0,0,0,1.81,5.82,6,6,0,0,0,4.63,2,6.35,6.35,0,0,0,3.94-1.2A7.13,7.13,0,0,0,204.5,841.77Z"/><path class="cls-2" d="M220.29,811h12.19v22.17l8.91-10.33h14.67L244.9,833.74,256.71,854H243.27L237,841.49l-4.49,4.38V854H220.29Z"/><path class="cls-2" d="M292.8,841.36H268.9a7.68,7.68,0,0,0,1.55,4.28,5.65,5.65,0,0,0,4.51,2,6.73,6.73,0,0,0,3.34-.88,7.67,7.67,0,0,0,2.08-2l11.75,1.08a16.85,16.85,0,0,1-6.51,6.73c-2.53,1.35-6.18,2-10.92,2-4.12,0-7.37-.58-9.73-1.74a14.27,14.27,0,0,1-5.87-5.54,16.64,16.64,0,0,1-2.33-8.92,15.7,15.7,0,0,1,4.67-11.81q4.68-4.5,12.91-4.51,6.67,0,10.54,2a13.66,13.66,0,0,1,5.89,5.86,21.4,21.4,0,0,1,2,10Zm-12.13-5.71q-.35-3.46-1.86-4.95a5.83,5.83,0,0,0-8.51.76,8.24,8.24,0,0,0-1.37,4.19Z"/><path class="cls-2" d="M298.4,822.85h11.16v5.09a12.06,12.06,0,0,1,3.33-4.55,7,7,0,0,1,4.23-1.25,12.62,12.62,0,0,1,5.77,1.64l-3.69,8.5a9.31,9.31,0,0,0-3.34-.88,4.11,4.11,0,0,0-3.63,1.93q-1.85,2.73-1.85,10.2V854h-12Z"/><path class="cls-2" d="M320.31,842h12.75v12H320.31Z"/></g><g id="Layer_1" data-name="Layer 1"><path class="cls-3" d="M331.31,109.32h39.5v89.06h-39.5Z"/><path class="cls-3" d="M396.73,133.86h33v10.51a48.15,48.15,0,0,1,15-9.2q7.56-2.76,18.44-2.76,14.7,0,23,6.1t8.31,18.87v41H458.85V162.9c0-4.05-1.08-6.91-3.22-8.59s-5.16-2.52-9.05-2.52q-6.43,0-10.44,3.4t-4,12.21v31H396.73Z"/><path class="cls-3" d="M509.31,180.46l35.14-2.31a13.1,13.1,0,0,0,6.09,6.26q3.91,1.89,10.44,1.88,7.14,0,11-2.12,3-1.57,3-3.94,0-2.67-4-4.13-2.87-1-15.22-2.55-18.45-2.24-25.62-4.15a28,28,0,0,1-12.09-6.47q-4.92-4.55-4.92-10.37a14.12,14.12,0,0,1,5.31-11q5.29-4.6,14.61-6.89t25-2.27q16.53,0,24.4,1.76a36.53,36.53,0,0,1,13.14,5.46,29.37,29.37,0,0,1,8.74,10L570.81,152a8.58,8.58,0,0,0-4.35-4.56,23.86,23.86,0,0,0-10.09-1.94c-4,0-6.92.49-8.74,1.48s-2.74,2.2-2.74,3.61q0,2.37,3.48,3.58t15.13,2.19q17.67,1.39,26.28,3.88t13.18,7.1c3,3.08,4.56,6.45,4.56,10.14s-1.61,7.34-4.83,10.86-8.29,6.32-15.22,8.41-16.37,3.12-28.32,3.12q-25.3,0-36.06-5T509.31,180.46Z"/><path class="cls-3" d="M667.11,109.32v24.54H686.6V152H667.11v22.86c0,2.75.38,4.56,1.14,5.45,1.16,1.38,3.19,2.06,6.09,2.06a53.9,53.9,0,0,0,11-1.57l2.61,17.07a164.09,164.09,0,0,1-24.54,2q-13.22,0-19.48-2.37a17.87,17.87,0,0,1-9.27-7.18q-3-4.83-3-15.63V152h-13V133.86h13V122Z"/><path class="cls-3" d="M703.83,133.86H737v10.57q4.78-6.85,9.88-9.44a27.59,27.59,0,0,1,12.57-2.58,50.24,50.24,0,0,1,17.14,3.4l-11,17.62a37.69,37.69,0,0,0-9.91-1.83q-7,0-10.79,4-5.49,5.65-5.48,21.14v21.63H703.83Z"/><path class="cls-3" d="M885.82,198.38H852.76V187.93a47.65,47.65,0,0,1-14.92,9.18q-7.51,2.73-18.48,2.73-14.62,0-22.93-6.1t-8.3-18.81V133.86h35.58v35.48q0,6.07,3.22,8.63c2.14,1.7,5.16,2.55,9,2.55a15.59,15.59,0,0,0,10.4-3.4q4.05-3.41,4-12.21v-31h35.41Z"/><path class="cls-3" d="M976.21,173.11l33.67,2.67a30.87,30.87,0,0,1-9.14,12.73,44.59,44.59,0,0,1-16.22,8.35q-9.87,3-25.1,3a131.35,131.35,0,0,1-24.49-1.91,51,51,0,0,1-16.83-6.19,35.65,35.65,0,0,1-11.05-10.05q-4-5.76-4-15.29,0-10,4.87-16.57a34.53,34.53,0,0,1,9.74-8.71,50.12,50.12,0,0,1,12.7-5.74q10.35-3,26.54-3,22.62,0,34.49,5.64t16.66,16.53l-33.32,3.1a11.28,11.28,0,0,0-5.7-6.23q-4.12-2.1-11.09-2.09-8.79,0-14.22,4.39t-5.44,13.31q0,8,5.39,12.07t13.75,4.13a24.82,24.82,0,0,0,11.7-2.5A15.7,15.7,0,0,0,976.21,173.11Z"/><path class="cls-3" d="M1068.86,109.32v24.54h19.49V152h-19.49v22.86c0,2.75.38,4.56,1.13,5.45,1.16,1.38,3.19,2.06,6.09,2.06a53.9,53.9,0,0,0,11-1.57l2.61,17.07a164,164,0,0,1-24.53,2q-13.23,0-19.49-2.37a17.89,17.89,0,0,1-9.26-7.18q-3-4.83-3-15.63V152h-13V133.86h13V122Z"/><path class="cls-3" d="M1106.53,109.32h35.41v16.83h-35.41Zm0,24.54h35.41v64.52h-35.41Z"/><path class="cls-3" d="M1160.21,166.31q0-14.77,14.26-24.34t38.54-9.56q27.75,0,41.93,11.23,11.4,9.06,11.4,22.3,0,14.9-14.14,24.39t-39.1,9.51q-22.27,0-36-7.9Q1160.21,182.16,1160.21,166.31Zm35.49-.06q0,8.63,5,12.75a19.07,19.07,0,0,0,12.57,4.13q7.67,0,12.57-4.07t4.92-13.06q0-8.38-5-12.48a18.58,18.58,0,0,0-12.27-4.1q-7.74,0-12.78,4.16T1195.7,166.25Z"/><path class="cls-3" d="M1283.39,133.86h33v10.51a48.15,48.15,0,0,1,15-9.2q7.56-2.76,18.44-2.76,14.7,0,23,6.1t8.31,18.87v41h-35.58V162.9c0-4.05-1.08-6.91-3.22-8.59s-5.17-2.52-9-2.52q-6.43,0-10.44,3.4t-4,12.21v31h-35.41Z"/><path class="cls-3" d="M1396,180.46l35.15-2.31a13.1,13.1,0,0,0,6.09,6.26q3.91,1.89,10.44,1.88,7.13,0,11-2.12,3-1.57,3-3.94,0-2.67-4-4.13-2.87-1-15.22-2.55-18.45-2.24-25.62-4.15a28.12,28.12,0,0,1-12.1-6.47q-4.9-4.55-4.91-10.37a14.12,14.12,0,0,1,5.31-11q5.3-4.6,14.61-6.89t25-2.27q16.53,0,24.4,1.76a36.53,36.53,0,0,1,13.14,5.46,29.47,29.47,0,0,1,8.74,10L1457.47,152a8.58,8.58,0,0,0-4.35-4.56,23.86,23.86,0,0,0-10.09-1.94c-4,0-6.92.49-8.74,1.48s-2.75,2.2-2.75,3.61c0,1.58,1.17,2.77,3.49,3.58s7.36,1.54,15.13,2.19q17.67,1.39,26.27,3.88t13.19,7.1c3,3.08,4.56,6.45,4.56,10.14s-1.61,7.34-4.83,10.86-8.29,6.32-15.22,8.41-16.37,3.12-28.32,3.12q-25.3,0-36.06-5T1396,180.46Z"/><path class="cls-4" d="M1266.56,572H1049.73c-1.82,0-3.3-1.78-3.3-4,0-18-.19-35-.21-61,0-12-.07-37.18.13-45.57,0-.33.05-2,.08-4.22,0-3.71,0-6.85,0-9.21a359.72,359.72,0,0,1,45.83-80.52,321,321,0,0,1,28.46-32.63c16,0,139.7-.34,142.54,0a3.77,3.77,0,0,1,2.33,1.16,4.14,4.14,0,0,1,.88,1.89,5,5,0,0,1,.09.9Z"/><path class="cls-5" d="M1255,447.67l-192.61-1a384.71,384.71,0,0,1,28.07-54.6,358.09,358.09,0,0,1,22.27-31.9,53.79,53.79,0,0,1,6.33-7.57,9.48,9.48,0,0,1,4.76-2.85c.32-.06.58-.09.76-.11h125.75a3.08,3.08,0,0,1,2.33,1.16,5.32,5.32,0,0,1,1,2.79C1253.84,355.92,1254.4,394.71,1255,447.67Z"/><rect class="cls-6" x="1221.71" y="460.17" width="33.3" height="9.21" rx="2.3"/><ellipse class="cls-6" cx="1155.67" cy="378.93" rx="12.11" ry="22.37"/><ellipse class="cls-7" cx="1155.53" cy="382.38" rx="7.57" ry="9.05"/><ellipse class="cls-6" cx="1189.79" cy="378.93" rx="12.11" ry="22.37"/><ellipse class="cls-7" cx="1189.65" cy="382.38" rx="7.57" ry="9.05"/><path class="cls-8" d="M1170.45,403.83c2.68,4.67,13.34.36,13.46,1.08s-12.75,7.73-15.84,2.77c-2.68-4.33,3.85-14.92,4.12-14.77S1168.33,400.15,1170.45,403.83Z"/><path class="cls-9" d="M1191.44,428.59c-9.44,9.77-14.16,14.65-20.09,14.48-10.29-.31-17.31-13.74-24.21-27-4.31-8.25-3.64-10-3.31-10.52,2.35-3.9,13.43,6.24,30,7.56,17.93,1.44,29.5-8.49,31.37-4.6S1196.1,423.77,1191.44,428.59Z"/><path class="cls-10" d="M1180.43,424.32c2.07,1,5.19,3.5,5.5,6.9.47,5.12-5.63,9.84-10.45,11.19-5.08,1.42-12.52.16-15.1-5.83-1.66-3.88-1.44-10.07,1.34-11.93,1.93-1.29,4.86-.28,6.6,1.64,3.22,3.54,2.51,10.28,3,10.27s-.6-9.87,3.09-12.57C1176.51,422.42,1179.46,423.85,1180.43,424.32Z"/><path class="cls-11" d="M1101.91,493.43l2.58,5.71a54,54,0,0,0,24-9.81,65,65,0,0,0,15-15.35l-2.58-5.71a72.92,72.92,0,0,1-15.35,14.82A62,62,0,0,1,1101.91,493.43Z"/><path class="cls-11" d="M1192.27,468.33l-2.63,5.78a63.32,63.32,0,0,0,19.94,18.7,52.29,52.29,0,0,0,19,6.59l2.63-5.78a60.23,60.23,0,0,1-18.79-7.22A71.17,71.17,0,0,1,1192.27,468.33Z"/><path class="cls-12" d="M1110,500.13c.62,8.22-10.66,17.37-18.71,14.31a10.76,10.76,0,0,1-6.61-7.57c-1.53-7.35,5.4-17.45,13.35-17.43C1103.65,489.46,1109.57,494.55,1110,500.13Z"/><ellipse class="cls-12" cx="1235.6" cy="503.09" rx="10.87" ry="10.69"/><path class="cls-12" d="M1088.48,501.45,1078,507.17a2.34,2.34,0,0,1-3.28-1.47h0a3.23,3.23,0,0,1,1.23-3.92l10.52-5.72a2.34,2.34,0,0,1,3.28,1.47h0A3.23,3.23,0,0,1,1088.48,501.45Z"/><path class="cls-12" d="M1094.65,518.9l4.68-12.63a2.34,2.34,0,0,1,3.27-1.51h0a3.23,3.23,0,0,1,1.26,3.9l-4.68,12.64a2.33,2.33,0,0,1-3.26,1.5h0A3.21,3.21,0,0,1,1094.65,518.9Z"/><path class="cls-12" d="M1095.17,515l-10.52,5.72a2.34,2.34,0,0,1-3.28-1.47h0a3.22,3.22,0,0,1,1.23-3.92l10.52-5.72a2.34,2.34,0,0,1,3.28,1.47h0A3.23,3.23,0,0,1,1095.17,515Z"/><path class="cls-12" d="M1089.11,510.39l-10.52,5.71a2.33,2.33,0,0,1-3.28-1.47h0a3.24,3.24,0,0,1,1.23-3.92l10.52-5.71a2.33,2.33,0,0,1,3.28,1.47h0A3.23,3.23,0,0,1,1089.11,510.39Z"/><path class="cls-12" d="M1246.92,496.73l9.68,7.56a3.32,3.32,0,0,1,.71,4.09h0a2.24,2.24,0,0,1-3.42.86l-9.68-7.56a3.34,3.34,0,0,1-.72-4.09h0A2.25,2.25,0,0,1,1246.92,496.73Z"/><path class="cls-12" d="M1245,504.29l9.67,7.56a3.35,3.35,0,0,1,.72,4.1h0a2.26,2.26,0,0,1-3.43.86l-9.67-7.56a3.34,3.34,0,0,1-.72-4.1h0A2.25,2.25,0,0,1,1245,504.29Z"/><path class="cls-12" d="M1244.89,521.14l-9.68-7.56a3.33,3.33,0,0,1-.71-4.1h0a2.24,2.24,0,0,1,3.42-.86l9.68,7.56a3.35,3.35,0,0,1,.72,4.1h0A2.26,2.26,0,0,1,1244.89,521.14Z"/><rect class="cls-12" x="1219.73" y="509.13" width="19.73" height="6.14" rx="1.71" transform="translate(717.39 1741.8) rotate(-90)"/><path class="cls-13" d="M1504.58,556.58c-98,.69-169.89.11-178.06-1.25-.72-.12-8-1.46-11.47-7.24a16.66,16.66,0,0,1-1.69-4.27,27,27,0,0,1,.55-15q18.46-40.38,36.94-80.75c58.1-.21,105.56.19,140.13.26,7.69,0,25.67,0,31.46,13.65,3.25,7.63,1.34,16.4-5,42.77C1513.74,519.89,1509.46,537.28,1504.58,556.58Z"/><path class="cls-14" d="M1498.82,544.7c-94.24.62-163.3.11-171.15-1.11-.69-.11-7.73-1.3-11-6.45a13.22,13.22,0,0,1-1.33-11.12l35.73-78c55.86-.18,101.47.17,134.7.23,7.39,0,24.67,0,30.24,12.17,3.12,6.8,1.29,14.62-4.85,38.12C1507.62,512,1503.51,527.5,1498.82,544.7Z"/><path class="cls-15" d="M1351.12,476.8l9.45,5.15-9.36-122.29c0-20.74,19.77-37.71,43.94-37.71h44.34c24.17,0,43.94,17,43.94,37.71V497.59L1444.14,527Z"/><path class="cls-11" d="M1327.81,434.83l1.74,4a35.94,35.94,0,0,0,16.21-6.85,44.71,44.71,0,0,0,10.16-10.72l-1.75-4a50,50,0,0,1-10.38,10.35A41.26,41.26,0,0,1,1327.81,434.83Z"/><path class="cls-11" d="M1353.36,458.58c1.63.4,3,5.06,3,5.06h0c-2.9,6.12-4.09,8.95-4.09,8.95-1.44,3.44-2.19,5.76-2.6,6.89-2.86,7.82-11.83,19.77-19.73,17.68-4.14-1.09-6.56-5.68-7.44-7.34-4.65-8.82-2.08-19.47-.11-27.67s6.05-19,8.56-18.45c1.21.29,2,3.25,2,5.47a11.75,11.75,0,0,1-2.42,6.66c-4.77,6.85-8.47,21.55-4.84,29.39,1.42,3.08,4.25,5.69,7.07,5.74,5.68.11,9.9-10.16,10.83-12.44,1.28-3.12.77-3.14,2.49-7.78C1347.05,468,1350.77,458,1353.36,458.58Z"/><path class="cls-16" d="M1332.4,452.21l-4.18,1.11a3.28,3.28,0,0,1-1.68-.39c-1.88-1-2.34-3.65-2.4-4a67.1,67.1,0,0,0,3.16-28.48,61.21,61.21,0,0,0-12.58-31.68,3.43,3.43,0,0,1,.31-2.08,2.31,2.31,0,0,1,1.41-1.2l1.56-4.31a37.22,37.22,0,0,1,5.27,5.32C1340,407.2,1334,443.56,1332.4,452.21Z"/><path class="cls-16" d="M1329.54,449.83,1308,439.54V415l21.52-6.61Z"/><path class="cls-17" d="M1326.18,440.9l-14.83-5.81V421.21l14.83-3.73Z"/><path class="cls-18" d="M1353.63,508.36c-1.06-25.51-2.89-75.33-3.06-130.15,0-12,.11-30.69,10.28-41.41,7.93-8.35,18.55-8.3,24.73-7.51H1417c16.18,0,29.42,16.69,29.42,37.09L1446.22,527Z"/><path class="cls-19" d="M1362.66,498.31c-4-60.31-5.1-106-3.91-124.69.41-6.31,1.43-15.11,6.52-22.74a29.8,29.8,0,0,1,14-11.25l34.88-.14c13.57,0,24.67,14.94,24.67,33.2l-.15,143.76Z"/><path class="cls-20" d="M1370.85,490.28q-2.88-44.62-5-94.62c-.63-15-1.31-36,8.18-42.94a13,13,0,0,1,9.68-2.07l27.52.05c11.06,0,20.12,13.23,20.12,29.41l-.13,127.39Z"/><ellipse class="cls-6" cx="1380.9" cy="381.88" rx="8.19" ry="15.62"/><ellipse class="cls-6" cx="1404.53" cy="381.88" rx="8.19" ry="15.62"/><ellipse class="cls-7" cx="1401.46" cy="385.44" rx="5.12" ry="6.32"/><ellipse class="cls-7" cx="1377.83" cy="385.44" rx="5.12" ry="6.32"/><path class="cls-8" d="M1389.38,399.44c1.81,3.26,9,.25,9.1.75s-8.63,5.4-10.71,1.94c-1.82-3,2.6-10.42,2.78-10.32S1388,396.87,1389.38,399.44Z"/><path class="cls-9" d="M1404.38,422c-6.39,6.82-9.58,10.23-13.59,10.11-7-.21-11.7-9.6-16.37-18.83-2.92-5.77-2.47-7-2.24-7.35,1.59-2.73,9.08,4.36,20.29,5.28,12.12,1,20-5.93,21.21-3.22S1407.53,418.62,1404.38,422Z"/><path class="cls-10" d="M1396.5,419.36c1.4.7,3.51,2.45,3.72,4.83.32,3.57-3.81,6.86-7.07,7.8-3.43,1-8.46.12-10.21-4.07-1.12-2.7-1-7,.91-8.33,1.3-.9,3.28-.19,4.46,1.15,2.18,2.47,1.69,7.18,2,7.17s-.4-6.89,2.1-8.78C1393.85,418,1395.84,419,1396.5,419.36Z"/><path class="cls-11" d="M1432.39,443.1l1.75,4a35.8,35.8,0,0,0,16.2-6.84,45.08,45.08,0,0,0,10.16-10.72l-1.75-4a50,50,0,0,1-10.38,10.35A41.42,41.42,0,0,1,1432.39,443.1Z"/><path class="cls-12" d="M1436.7,446.61c.43,5.74-7.2,12.13-12.65,10a7.41,7.41,0,0,1-4.47-5.28c-1-5.13,3.65-12.18,9-12.17C1432.42,439.16,1436.42,442.72,1436.7,446.61Z"/><path class="cls-12" d="M1430.85,456.17l-5.52,6.82a1.46,1.46,0,0,1-2.37,0h0a2.43,2.43,0,0,1,0-2.92l5.52-6.82a1.47,1.47,0,0,1,2.37,0A2.43,2.43,0,0,1,1430.85,456.17Z"/><path class="cls-12" d="M1425.75,455l-5.94,6.27a1.46,1.46,0,0,1-2.36-.23h0a2.42,2.42,0,0,1,.19-2.91l5.94-6.27a1.47,1.47,0,0,1,2.36.23h0A2.42,2.42,0,0,1,1425.75,455Z"/><path class="cls-12" d="M1423.49,450.05l-6,6.26a1.46,1.46,0,0,1-2.36-.23h0a2.42,2.42,0,0,1,.19-2.91l5.94-6.27a1.48,1.48,0,0,1,2.36.23h0A2.43,2.43,0,0,1,1423.49,450.05Z"/><path class="cls-12" d="M1424.41,444.57l-7.35,3.27a1.62,1.62,0,0,1-2.14-1.25h0a2.23,2.23,0,0,1,1-2.64l7.35-3.27a1.61,1.61,0,0,1,2.14,1.24h0A2.24,2.24,0,0,1,1424.41,444.57Z"/><path class="cls-12" d="M1331.55,429.68l-4.78.61c-.56.07-1.1-.79-1.19-1.91h0c-.1-1.12.29-2.09.85-2.16l4.78-.61c.56-.07,1.1.79,1.19,1.9S1332.11,429.61,1331.55,429.68Z"/><path class="cls-12" d="M1331.58,434.39l-4.78.61c-.56.07-1.1-.79-1.19-1.91h0c-.09-1.12.29-2.09.85-2.16l4.78-.61c.56-.07,1.1.79,1.19,1.9S1332.14,434.32,1331.58,434.39Z"/><path class="cls-12" d="M1331.65,439.68l-4.78.61c-.56.07-1.1-.78-1.2-1.9h0c-.09-1.12.29-2.1.86-2.17l4.77-.61c.57-.07,1.1.79,1.2,1.91S1332.21,439.61,1331.65,439.68Z"/><path class="cls-21" d="M1826.61,496.8l-8.25,2.45c2.14-5.56,21.49-58.19-1.77-115.26-18.14-44.51-50-61.72-57.1-65.32l5.25-6.62a135.92,135.92,0,0,1,59.82,65.4C1849.48,434.16,1829.81,488.38,1826.61,496.8Z"/><path class="cls-22" d="M1832.83,490.42c-.27,9-6.5,9.35-9.13,21.41-2.87,13.14,3.14,19-.83,25.31-4.07,6.46-11.41,1.86-22.7,8.43-7,4.08-7.2,7.6-14.67,14.93-4.51,4.42-19.57,19.19-35.43,17.84s-19.78-17.61-30.45-14.6-10.34,19.91-20.76,22.07c-8.51,1.76-11.13-9-24.08-13-12.59-3.84-16.62,4.36-37.65,7.14-8.94,1.18-22.9,2.84-37.92-3.9-1.22-.54-28.69-13.24-28.79-31.47-.05-10.31,8.69-15.82,6.37-21.09-3.31-7.51-22.13,1.21-26.58-7.46-2.52-4.93.4-13.88,4.16-18.82,4.34-5.71,9-5.06,10-9.41,1.13-5.37-5.58-8.48-5-15.25.45-5.08,4.74-9.13,8.3-10.71,7.55-3.35,15.93,2.54,18,3.9,4.85,3.18,11.38,5.28,98.26,4.21,0,0,75.5-.92,95.78-7.13a42.63,42.63,0,0,1,7.47-1.63c2.79-.35,7.19-.62,15.22.65,7.52,1.19,11.28,1.79,14.12,3.25C1824.4,469.16,1833.17,479.55,1832.83,490.42Z"/><path class="cls-23" d="M1738.56,349.27l-5.9-9.68h0l.67-.88,25.37-30.6a2.29,2.29,0,0,1,3.44.86,20.05,20.05,0,0,1,8.41,8.21,25,25,0,0,1,3.15,10.75,3.7,3.7,0,0,1,.5,2.22,2.8,2.8,0,0,1-.92,1.87Z"/><ellipse class="cls-24" cx="1630.49" cy="522.54" rx="26.3" ry="27.25"/><ellipse class="cls-25" cx="1635.89" cy="517.67" rx="15.09" ry="18.82"/><ellipse class="cls-24" cx="1635.75" cy="520.1" rx="9" ry="7.96" transform="translate(896.87 2069.38) rotate(-82.14)"/><path class="cls-24" d="M1768.06,525.3c.25,22.57-25.88,40.71-42.35,32.28-9.34-4.78-17.13-18.89-17.16-32.12v-.16c0-13.56,12.41-32.29,29.75-32.29C1754.85,493,1767.88,509.52,1768.06,525.3Z"/><ellipse class="cls-26" cx="1746.61" cy="520.1" rx="23.94" ry="33.26"/><ellipse class="cls-27" cx="1740.66" cy="511.67" rx="11.07" ry="15.09"/><path class="cls-28" d="M1609.88,460.24q-1-68,.44-68.1a.14.14,0,0,1,.12.08c0-18.09,11.94-32.89,26.54-32.89h86.54c14.6,0,26.54,14.8,26.54,32.89q.29,33.73.56,67.47Z"/><path class="cls-28" d="M1767,463.49c0,13.34-.65,28.55-5,29.52-3.85.87-6.86-10.22-15.22-10.71a7.82,7.82,0,0,0-4.71,1c-5.67,3.45-5.34,14.71-6.09,18.82-5.17,28.37-118.27,25.58-134.8,1.62a41.55,41.55,0,0,1-6.37-13.3c-1.36-6.24-1.38-15.7-1.38-21.42h0c1.49-21.4,14.41-35.28,16.6-37.64,4.82-5.17,15.54-14.11,68.1-13.62,41.68.38,69.15,1.06,81.38,21.73C1765.88,450.29,1767,463.48,1767,463.49Z"/><path class="cls-29" d="M1738.72,427.79h0a17.56,17.56,0,0,1-4.43,3.57c-15.47,8.37-54.25,6.17-54.25,6.17-32.93-1.87-55.14,2.85-61.18-8.76a35.51,35.51,0,0,1-2.49-6.82,69.25,69.25,0,0,1-.59-13.26c.38-7.13,1.11-21.14,10-30.85a28.77,28.77,0,0,1,18.67-9.1H1714a29.67,29.67,0,0,1,18.66,9.1c11.87,12.49,10.3,31.63,9.86,35.68A49.4,49.4,0,0,1,1738.72,427.79Z"/><path class="cls-30" d="M1749.5,501.4c-31.7,22.19-73.29,23.69-73.29,23.69-3.68.13-71.25,2.27-73.73-12.33a9.74,9.74,0,0,1,.76-6.15c2.32-4,8.44-2.63,10.75-2.13,19.79,4.25,48.9,7,61.74,7a83.76,83.76,0,0,0,15.21-1.2,77.06,77.06,0,0,0,7.55-1.75c16-4.5,28.29-8,41.15-16.61,4.11-2.76,9-6.55,13.14-4.41a6.5,6.5,0,0,1,3.49,4.91C1756.57,496.45,1751.37,500.09,1749.5,501.4Z"/><path class="cls-11" d="M1603.82,450.49l-2.36,5.78a62.26,62.26,0,0,0,20.87,17.14,53.32,53.32,0,0,0,19.34,5.4L1644,473a61.39,61.39,0,0,1-19.17-6A70.3,70.3,0,0,1,1603.82,450.49Z"/><path class="cls-12" d="M1655,492.1c-4.46,6.24-17.92,3.19-21.81-5.67-1.27-2.88-2-7.34-.18-10.79,3.3-6.4,14.24-7.64,19.87-1C1656.88,479.38,1658,487.86,1655,492.1Z"/><path class="cls-12" d="M1652.89,502.77l-9.48-7.89a3.28,3.28,0,0,1-.59-4.07h0a2.28,2.28,0,0,1,3.48-.69l9.48,7.89a3.28,3.28,0,0,1,.58,4.08h0A2.27,2.27,0,0,1,1652.89,502.77Z"/><path class="cls-12" d="M1660.07,497.73l-9.48-7.89a3.26,3.26,0,0,1-.59-4.07h0a2.27,2.27,0,0,1,3.47-.69L1663,493a3.26,3.26,0,0,1,.59,4.07h0A2.27,2.27,0,0,1,1660.07,497.73Z"/><path class="cls-12" d="M1662.83,489.62l-9.47-7.89a3.26,3.26,0,0,1-.59-4.08h0a2.27,2.27,0,0,1,3.47-.69l9.48,7.9a3.26,3.26,0,0,1,.59,4.07h0A2.28,2.28,0,0,1,1662.83,489.62Z"/><rect class="cls-12" x="1644.05" y="469.65" width="16.61" height="5.84" rx="0.67"/><ellipse class="cls-6" cx="1663.15" cy="395.67" rx="12.18" ry="22.06"/><ellipse class="cls-6" cx="1694.71" cy="395.67" rx="12.18" ry="22.06"/><ellipse class="cls-7" cx="1667.16" cy="398.43" rx="7.61" ry="8.92"/><ellipse class="cls-7" cx="1690.14" cy="398.43" rx="7.61" ry="8.92"/><path class="cls-9" d="M1697.29,443.3c-9.49,9.63-14.24,14.45-20.21,14.27-10.35-.3-17.41-13.55-24.36-26.6-4.33-8.14-3.66-9.83-3.32-10.38,2.36-3.85,13.51,6.15,30.17,7.46,18,1.41,29.68-8.38,31.56-4.54S1702,438.54,1697.29,443.3Z"/><path class="cls-8" d="M1675,418.24c2.7,4.61,13.41.36,13.54,1.07s-12.83,7.62-15.93,2.72c-2.71-4.27,3.86-14.71,4.14-14.57S1672.89,414.61,1675,418.24Z"/><path class="cls-10" d="M1684.47,438.29c2.07,1,5.22,3.45,5.53,6.81.47,5-5.67,9.7-10.52,11-5.1,1.4-12.59.16-15.18-5.75-1.68-3.82-1.45-9.93,1.34-11.77,1.94-1.27,4.89-.27,6.65,1.62,3.23,3.5,2.51,10.14,3,10.13s-.6-9.73,3.11-12.4C1680.52,436.42,1683.49,437.82,1684.47,438.29Z"/><path class="cls-31" d="M1762.77,337.56c2.91-5,3.09-11.12.46-15.64a11.48,11.48,0,0,0-11.74-5.71q3.72-3.94,7.45-7.9h0l3.75-.11a11.37,11.37,0,0,1,4.66,2.45c1.75,1.53,2.54,3.19,3.7,5.63a34.09,34.09,0,0,1,2.74,8.81,37.55,37.55,0,0,1,.49,4,3.11,3.11,0,0,1,0,1.15,3.45,3.45,0,0,1-1.27,2Z"/><path class="cls-32" d="M1738.44,355.76c1.52,4.64,1.33,6.22,1.11,7.14-.66,2.8-3,6-6.23,5.84-2.64-.13-4.66-2.53-5.4-4.87-.25-.81-.67-2.64,1.11-8.11a51.46,51.46,0,0,1,4.71-10.38A52.45,52.45,0,0,1,1738.44,355.76Z"/><path class="cls-33" d="M1751.27,365c1.51,4.63,1.32,6.21,1.1,7.13-.66,2.8-3,6-6.23,5.85-2.63-.14-4.66-2.54-5.39-4.87-.26-.82-.67-2.64,1.1-8.11a52.07,52.07,0,0,1,4.71-10.39A53.49,53.49,0,0,1,1751.27,365Z"/><path class="cls-34" d="M1761,384.13c1.52,4.63,1.33,6.22,1.11,7.14-.66,2.8-3,6-6.23,5.84-2.64-.14-4.66-2.53-5.4-4.87-.25-.81-.67-2.64,1.11-8.11a51.22,51.22,0,0,1,4.71-10.38A52.45,52.45,0,0,1,1761,384.13Z"/><path class="cls-35" d="M1732.44,348.11c1.52,4.64,1.33,6.22,1.11,7.14-.66,2.8-3,6-6.23,5.84-2.64-.13-4.66-2.53-5.4-4.86-.25-.82-.67-2.65,1.11-8.12a51.46,51.46,0,0,1,4.71-10.38A52.45,52.45,0,0,1,1732.44,348.11Z"/><path class="cls-36" d="M1743,384.13c1.52,4.63,1.33,6.22,1.11,7.14-.66,2.8-3,6-6.23,5.84-2.64-.14-4.66-2.53-5.4-4.87-.26-.81-.67-2.64,1.11-8.11a51.22,51.22,0,0,1,4.71-10.38A52.45,52.45,0,0,1,1743,384.13Z"/><path class="cls-37" d="M1751.27,402c1.51,4.63,1.32,6.21,1.1,7.13-.66,2.8-3,6-6.23,5.84-2.63-.13-4.66-2.53-5.39-4.86-.26-.82-.67-2.65,1.1-8.11a51.82,51.82,0,0,1,4.71-10.39A53.49,53.49,0,0,1,1751.27,402Z"/><path class="cls-38" d="M1761.75,418.48c1.52,4.64,1.32,6.22,1.11,7.14-.66,2.8-3,6-6.23,5.84-2.64-.13-4.66-2.53-5.4-4.86-.26-.82-.67-2.65,1.11-8.12a51.89,51.89,0,0,1,4.7-10.38A52.25,52.25,0,0,1,1761.75,418.48Z"/><path class="cls-39" d="M1751.23,432.11c1.52,4.64,1.33,6.22,1.11,7.14-.66,2.8-3,6-6.23,5.84-2.64-.13-4.66-2.53-5.4-4.87-.25-.81-.67-2.64,1.11-8.11a51.46,51.46,0,0,1,4.71-10.38A52.45,52.45,0,0,1,1751.23,432.11Z"/><polygon class="cls-40" points="1747.55 614.25 1818.28 752.53 1889 890.81 1747.55 890.81 1606.11 890.81 1676.83 752.53 1747.55 614.25"/><polygon class="cls-41" points="1845.61 863.39 1744.36 861.75 1643.11 860.11 1694.92 760.85 1746.72 661.59 1796.17 762.49 1845.61 863.39"/><path class="cls-42" d="M1745.84,835.48l-6.42-.22c-2.62-41.45-4.6-69.8-5.44-73.52a6.66,6.66,0,0,1,.49-4.86,7.13,7.13,0,0,1,3-2.65,13.37,13.37,0,0,1,7.17-2,13.51,13.51,0,0,1,6.92,2,6.4,6.4,0,0,1,3,2.65,4.94,4.94,0,0,1,.5,2.65C1754.8,762.12,1751.07,793.12,1745.84,835.48Z"/><ellipse class="cls-42" cx="1741.6" cy="846.7" rx="7.87" ry="9.22"/><ellipse class="cls-6" cx="1725.65" cy="718.35" rx="18.72" ry="33.89"/><ellipse class="cls-6" cx="1764.36" cy="718.35" rx="18.72" ry="33.89"/><ellipse class="cls-7" cx="1718.63" cy="727.07" rx="11.7" ry="13.71"/><ellipse class="cls-7" cx="1757.77" cy="727.07" rx="11.7" ry="13.71"/><polygon class="cls-43" points="1211.78 771.66 1225.13 798.64 1254.99 802.97 1233.39 823.97 1238.49 853.62 1211.78 839.62 1185.07 853.62 1190.17 823.97 1168.56 802.97 1198.42 798.64 1211.78 771.66"/><polygon class="cls-43" points="1064.58 696.18 1077.93 723.16 1107.79 727.49 1086.18 748.49 1091.29 778.14 1064.58 764.14 1037.87 778.14 1042.97 748.49 1021.36 727.49 1051.22 723.16 1064.58 696.18"/><polygon class="cls-43" points="1021.34 768.28 1034.69 795.26 1064.56 799.59 1042.95 820.59 1048.05 850.24 1021.34 836.24 994.63 850.24 999.73 820.59 978.12 799.59 1007.98 795.26 1021.34 768.28"/><polygon class="cls-43" points="1183.06 696.36 1196.41 723.34 1226.28 727.66 1204.67 748.66 1209.77 778.32 1183.06 764.32 1156.35 778.32 1161.45 748.66 1139.84 727.66 1169.7 723.34 1183.06 696.36"/><rect class="cls-44" x="1109.92" y="643.32" width="13.04" height="78.24" rx="1.51"/><polygon class="cls-45" points="1116.32 619.44 1124.52 635.3 1145.86 630.3 1134.74 645.09 1153.15 654.72 1131.09 657.3 1132.71 674.3 1116.32 662.73 1099.93 674.3 1101.55 657.3 1079.49 654.72 1097.9 645.09 1086.78 630.3 1108.12 635.3 1116.32 619.44"/><path class="cls-12" d="M1218.93,803.53l11.16,7.09a2.72,2.72,0,0,1,.81,3.83h0a2.93,2.93,0,0,1-4,.78l-11.15-7.08a2.72,2.72,0,0,1-.82-3.83A2.94,2.94,0,0,1,1218.93,803.53Z"/><path class="cls-12" d="M1216.78,810.23l9.39,9.15a2.7,2.7,0,0,1,0,3.91h0a3,3,0,0,1-4.05,0l-9.39-9.16a2.69,2.69,0,0,1,0-3.9A3,3,0,0,1,1216.78,810.23Z"/><path class="cls-12" d="M1207.49,811.36l9,9.49a2.7,2.7,0,0,1-.17,3.9h0a3,3,0,0,1-4-.16l-9-9.49a2.7,2.7,0,0,1,.16-3.9A3,3,0,0,1,1207.49,811.36Z"/><path class="cls-12" d="M1212.22,801.17l12.8,3.65a3.07,3.07,0,0,0,3.66-2.19h0a2.93,2.93,0,0,0-1.84-3.75l-12.8-3.65a3.07,3.07,0,0,0-3.66,2.19A2.93,2.93,0,0,0,1212.22,801.17Z"/><path class="cls-46" d="M1149.81,882.63a96,96,0,0,1-66.75,0,16.45,16.45,0,0,1-11.12-4.46,14.86,14.86,0,0,1-4.63-10.73V720.18c0-8.35,7.09-15.19,15.75-15.19a60.68,60.68,0,0,1,30.51-10,61.36,61.36,0,0,1,36.24,10,16.45,16.45,0,0,1,11.12,4.46,14.9,14.9,0,0,1,4.62,10.73V867.44C1165.55,875.8,1158.47,882.63,1149.81,882.63Z"/><ellipse class="cls-6" cx="1134.08" cy="737.2" rx="13.99" ry="20.86"/><ellipse class="cls-6" cx="1099.42" cy="737.2" rx="13.99" ry="20.86"/><ellipse class="cls-7" cx="1129.47" cy="745.64" rx="8.74" ry="8.44"/><ellipse class="cls-7" cx="1095.77" cy="745.64" rx="8.74" ry="8.44"/><path class="cls-8" d="M1114,764.91c3.1,4.36,15.4.34,15.55,1s-14.74,7.21-18.3,2.58c-3.11-4,4.44-13.92,4.76-13.78S1111.56,761.48,1114,764.91Z"/><path class="cls-9" d="M1142.37,801c-4.92,1.37-7-1.64-14.62-3.07-1.7-.32-10.2-1.91-18.44,1.23s-10,8.63-13.67,7.67-6.36-7.79-5.09-13.19c2.52-10.72,19.79-14.06,23.21-14.73,12.44-2.44,29.31-.29,34.65,8.9a9.06,9.06,0,0,1,1.28,6.75C1148.76,797.92,1145.28,800.14,1142.37,801Z"/><path class="cls-10" d="M1127,785.54c1.5.46,3.71,1.79,3.71,3.92,0,3.19-5,6.67-8.77,7.92-4,1.31-9.56,1.13-11.1-2.45-1-2.31-.38-6.24,1.87-7.65a4.33,4.33,0,0,1,4.92.5c2.2,2,1.18,6.29,1.53,6.25s.24-6.19,3.25-8.2C1124.18,784.67,1126.32,785.33,1127,785.54Z"/><path class="cls-11" d="M1032.3,807.29l3,5.33a71.87,71.87,0,0,0,27.69-9.15,69.13,69.13,0,0,0,17.35-14.32l-3-5.33a79,79,0,0,1-17.73,13.82A81.46,81.46,0,0,1,1032.3,807.29Z"/><path class="cls-11" d="M1158.86,778.08l-3.31,5.14a69,69,0,0,0,22,18.65,71.08,71.08,0,0,0,21.5,7.43l3.31-5.14a81.18,81.18,0,0,1-21.24-8A78.91,78.91,0,0,1,1158.86,778.08Z"/><path class="cls-12" d="M1041.32,810.7c.71,7.66-12.32,16.2-21.62,13.34-3-.92-6.68-3.36-7.63-7-1.78-6.87,6.23-16.29,15.42-16.27C1034,800.74,1040.83,805.49,1041.32,810.7Z"/><path class="cls-12" d="M1220.31,811.41c-2.89,7.17-18.5,9.21-25.52,2.65-2.27-2.12-4.42-5.88-3.57-9.6,1.58-6.9,13.1-11.89,21.31-7.93C1218.35,799.34,1222.28,806.53,1220.31,811.41Z"/><path class="cls-12" d="M1029.63,822l-9.44,9.12a3,3,0,0,1-4.05,0h0a2.71,2.71,0,0,1,0-3.91l9.44-9.11a3,3,0,0,1,4.05,0A2.7,2.7,0,0,1,1029.63,822Z"/><path class="cls-12" d="M1023.27,818.91l-9.44,9.11a3,3,0,0,1-4.05,0h0a2.71,2.71,0,0,1,0-3.91l9.44-9.11a3,3,0,0,1,4,0A2.71,2.71,0,0,1,1023.27,818.91Z"/><path class="cls-12" d="M1018.5,813.08l-9.44,9.11a3,3,0,0,1-4,0h0a2.71,2.71,0,0,1,0-3.91l9.44-9.11a3,3,0,0,1,4,0A2.71,2.71,0,0,1,1018.5,813.08Z"/><path class="cls-12" d="M1022.2,808.91l-13.29,1.3a2.84,2.84,0,0,1-3.14-2.47h0a2.8,2.8,0,0,1,2.56-3l13.29-1.3a2.83,2.83,0,0,1,3.13,2.47A2.79,2.79,0,0,1,1022.2,808.91Z"/><path class="cls-47" d="M1539.92,882.3l-7.45,5.6c-10.68,8-26.43,6.4-35-3.62l-111-129.91a22.44,22.44,0,0,1,3.86-32.81l7.45-5.6c10.68-8,26.43-6.4,35,3.62l111,129.91A22.44,22.44,0,0,1,1539.92,882.3Z"/><path class="cls-48" d="M1486.68,707.66l-122.24,91.85c-13,9.74-32.07,7.77-42.46-4.39l-37.47-43.84c-10.39-12.16-8.28-30.08,4.68-39.82l122.23-91.85c13-9.74,32.07-7.77,42.46,4.39l37.48,43.84C1501.75,680,1499.64,697.91,1486.68,707.66Z"/><path class="cls-49" d="M1537.72,879.42h0c-10.69,8-26.43,6.4-35-3.61L1387,740.4a22.42,22.42,0,0,1,3.85-32.8h0c10.69-8,26.43-6.4,35,3.61l115.73,135.41A22.42,22.42,0,0,1,1537.72,879.42Z"/><path class="cls-50" d="M1482.86,703.35l-116.79,87.77c-13,9.74-32.07,7.76-42.46-4.39l-33.67-39.39c-10.39-12.15-8.28-30.07,4.68-39.81l116.79-87.76c13-9.75,32.07-7.77,42.46,4.38l33.67,39.39C1497.93,675.7,1495.82,693.61,1482.86,703.35Z"/><ellipse class="cls-6" cx="1350.86" cy="668.45" rx="16.72" ry="24.23"/><ellipse class="cls-6" cx="1388.86" cy="655.98" rx="16.72" ry="24.23"/><ellipse class="cls-7" cx="1344.59" cy="678.24" rx="10.45" ry="9.8"/><ellipse class="cls-7" cx="1382.59" cy="665.77" rx="10.45" ry="9.8"/><path class="cls-8" d="M1371.66,690.89c3.7,5.06,18.41.39,18.59,1.17s-17.62,8.38-21.87,3c-3.72-4.69,5.3-16.16,5.68-16S1368.74,686.9,1371.66,690.89Z"/><path class="cls-9" d="M1402.86,716.74c-10.28,13-15.42,19.46-23.46,20.94-14,2.57-26.77-9.67-39.4-21.72-7.87-7.52-7.4-9.51-7.09-10.21,2.19-4.78,19.67,2.84,42.33-.41,24.53-3.52,37.65-17.27,41.14-13.68S1407.93,710.33,1402.86,716.74Z"/><path class="cls-51" d="M1392.22,709.75c-2.44,1,.78,10.65-1.84,11.79s-7.81-8.39-12.71-7.42-5.6,11.48-8.19,11.33-2.81-9.79-5.51-10c-3-.27-5.66,11.75-8.55,11.47-2.57-.25-2.89-10.91-4.93-11-1.51,0-1.76,5.76-4.57,6.32-1.72.34-3.45-1.55-6.84-5.35-4-4.48-7.45-8.41-6.08-11a3.53,3.53,0,0,1,1.52-1.43c5.92-3.17,27.8,1.1,38.94,1.15,23,.09,39.78-17.59,42.76-14,.83,1,0,3.28-1.52,7.83-1.24,3.6-1.86,5.4-3.42,6.06-3.32,1.4-7.21-3.29-9.12-2.14-2.72,1.65,2.68,12.55.76,13.54S1394.88,708.69,1392.22,709.75Z"/><path class="cls-52" d="M1396.84,721.18c.16.14-9.55,17.46-22.85,17.25-8.86-.15-16.32-8-15.91-8.7.3-.49,5.36,2.09,6.18,1s-3.49-4.76-2.76-5.63,7.28,3.42,8.88,2-2-6.61-1.28-7,5.05,6.73,7.22,6.06c1.92-.6,1.23-7.09,1.9-7.13s1.11,6,2.56,6.2c1.19.13,2.28-4.53,3.52-4.42s.67,5.61,3,6.63C1390.45,728.81,1396.72,721.08,1396.84,721.18Z"/><polygon class="cls-3" points="1396.67 931 1379.57 916.27 1519.84 762.66 1536.94 777.39 1396.67 931"/><polygon class="cls-3" points="1545 907.95 1529.84 924.55 1371.66 788.33 1386.83 771.72 1545 907.95"/><polygon class="cls-3" points="1063.85 947 1048.16 932.46 1176.9 780.74 1192.6 795.28 1063.85 947"/><polygon class="cls-3" points="1200 924.23 1186.08 940.63 1040.9 806.09 1054.82 789.68 1200 924.23"/><polygon class="cls-3" points="1708.13 976 1692.93 961.54 1817.63 810.74 1832.83 825.2 1708.13 976"/><polygon class="cls-3" points="1840 953.37 1826.52 969.67 1685.9 835.93 1699.38 819.63 1840 953.37"/></g></svg>