<svg id="Layer_1" data-name="Layer 1" xmlns="http://www.w3.org/2000/svg" width="150" height="136" viewBox="0 0 150 136"><defs><style>.cls-1{fill:#f9f90b;}.cls-2{fill:#f7a30d;}.cls-3{fill:#f90623;}.cls-4{fill:#f2f2f2;}.cls-5{fill:#ba1111;}.cls-6{fill:#0c0f11;}.cls-7{fill:#f2f3f4;}.cls-8{fill:#0c0c0c;}.cls-9{fill:#c13e54;}.cls-10{fill:#c66073;}.cls-11{fill:#070102;}</style></defs><polygon class="cls-1" points="124.46 74.63 131.12 86.94 146 88.92 135.23 98.5 137.77 112.03 124.46 105.64 111.15 112.03 113.69 98.5 102.92 88.92 117.8 86.94 124.46 74.63"/><polygon class="cls-1" points="51.09 40.19 57.75 52.5 72.63 54.48 61.86 64.06 64.4 77.59 51.09 71.2 37.78 77.59 40.32 64.06 29.55 54.48 44.44 52.5 51.09 40.19"/><polygon class="cls-1" points="29.54 73.09 36.2 85.4 51.08 87.38 40.31 96.96 42.85 110.49 29.54 104.1 16.23 110.49 18.77 96.96 8 87.38 22.88 85.4 29.54 73.09"/><polygon class="cls-1" points="110.15 40.27 116.8 52.58 131.69 54.56 120.92 64.14 123.46 77.67 110.15 71.28 96.83 77.67 99.38 64.14 88.61 54.56 103.49 52.58 110.15 40.27"/><rect class="cls-2" x="73.69" y="16.07" width="6.5" height="35.7" rx="1.51"/><polygon class="cls-3" points="76.88 5.17 80.97 12.41 91.6 10.13 86.06 16.88 95.24 21.27 84.24 22.45 85.05 30.21 76.88 24.93 68.71 30.21 69.52 22.45 58.52 21.27 67.7 16.88 62.16 10.13 72.8 12.41 76.88 5.17"/><path class="cls-4" d="M128,89.18l5.56,3.23a1.18,1.18,0,0,1,.4,1.75h0a1.55,1.55,0,0,1-2,.36l-5.56-3.24a1.17,1.17,0,0,1-.41-1.74A1.55,1.55,0,0,1,128,89.18Z"/><path class="cls-4" d="M127,92.23l4.68,4.18a1.16,1.16,0,0,1,0,1.78h0a1.56,1.56,0,0,1-2,0L124.92,94a1.17,1.17,0,0,1,0-1.78A1.57,1.57,0,0,1,127,92.23Z"/><path class="cls-4" d="M122.32,92.75l4.51,4.33a1.16,1.16,0,0,1-.09,1.78h0a1.56,1.56,0,0,1-2-.08l-4.51-4.32a1.17,1.17,0,0,1,.09-1.79A1.57,1.57,0,0,1,122.32,92.75Z"/><path class="cls-4" d="M124.68,88.1l6.38,1.66a1.54,1.54,0,0,0,1.82-1h0a1.32,1.32,0,0,0-.91-1.72l-6.38-1.66a1.55,1.55,0,0,0-1.83,1A1.33,1.33,0,0,0,124.68,88.1Z"/><path class="cls-5" d="M93.57,125.27a52,52,0,0,1-33.27,0,8.69,8.69,0,0,1-5.54-2,6.53,6.53,0,0,1-2.3-4.89V51.14c0-3.81,3.53-6.93,7.84-6.93a32,32,0,0,1,15.21-4.55,32.52,32.52,0,0,1,18.06,4.55,8.67,8.67,0,0,1,5.54,2,6.5,6.5,0,0,1,2.31,4.89v67.2C101.42,122.15,97.89,125.27,93.57,125.27Z"/><ellipse class="cls-6" cx="85.73" cy="58.91" rx="6.97" ry="9.52"/><ellipse class="cls-6" cx="68.46" cy="58.91" rx="6.97" ry="9.52"/><ellipse class="cls-7" cx="83.43" cy="62.76" rx="4.36" ry="3.85"/><ellipse class="cls-7" cx="66.64" cy="62.76" rx="4.36" ry="3.85"/><path class="cls-8" d="M75.73,71.55c1.54,2,7.68.16,7.75.46s-7.34,3.29-9.12,1.18c-1.55-1.84,2.21-6.35,2.37-6.29S74.51,70,75.73,71.55Z"/><path class="cls-9" d="M89.87,88c-2.46.62-3.51-.75-7.29-1.4a19.13,19.13,0,0,0-9.19.56c-4.11,1.43-5,3.94-6.82,3.5s-3.17-3.56-2.53-6c1.26-4.89,9.86-6.42,11.57-6.72C81.8,76.8,90.22,77.79,92.88,82a3.87,3.87,0,0,1,.63,3.08C93.05,86.62,91.31,87.63,89.87,88Z"/><path class="cls-10" d="M82.22,81c.75.21,1.85.81,1.85,1.78,0,1.46-2.49,3-4.37,3.62s-4.77.51-5.53-1.12a2.9,2.9,0,0,1,.93-3.49,2.32,2.32,0,0,1,2.45.23c1.09.9.59,2.87.76,2.85s.12-2.82,1.62-3.74A3,3,0,0,1,82.22,81Z"/><path class="cls-11" d="M35,90.89l1.49,2.43a38,38,0,0,0,13.8-4.17,33.8,33.8,0,0,0,8.65-6.54l-1.49-2.43a38.76,38.76,0,0,1-8.84,6.31A43.31,43.31,0,0,1,35,90.89Z"/><path class="cls-11" d="M98.08,77.56l-1.65,2.35a33.86,33.86,0,0,0,11,8.51,37.72,37.72,0,0,0,10.71,3.39l1.65-2.35a42.45,42.45,0,0,1-10.58-3.65A38.88,38.88,0,0,1,98.08,77.56Z"/><path class="cls-4" d="M39.5,92.44c.36,3.5-6.14,7.4-10.78,6.09-1.5-.42-3.32-1.53-3.8-3.22C24,92.18,28,87.89,32.6,87.89,35.85,87.9,39.25,90.07,39.5,92.44Z"/><path class="cls-4" d="M128.71,92.77C127.27,96,119.49,97,116,94a4.66,4.66,0,0,1-1.79-4.38c.79-3.15,6.53-5.43,10.63-3.62C127.74,87.26,129.69,90.54,128.71,92.77Z"/><path class="cls-4" d="M33.67,97.59,29,101.75a1.57,1.57,0,0,1-2,0h0A1.17,1.17,0,0,1,27,100l4.71-4.16a1.56,1.56,0,0,1,2,0A1.15,1.15,0,0,1,33.67,97.59Z"/><path class="cls-4" d="M30.5,96.19l-4.7,4.16a1.57,1.57,0,0,1-2,0h0a1.17,1.17,0,0,1,0-1.78l4.71-4.16a1.56,1.56,0,0,1,2,0A1.15,1.15,0,0,1,30.5,96.19Z"/><path class="cls-4" d="M28.13,93.53l-4.71,4.16a1.57,1.57,0,0,1-2,0h0a1.17,1.17,0,0,1,0-1.78l4.71-4.16a1.57,1.57,0,0,1,2,0A1.17,1.17,0,0,1,28.13,93.53Z"/><path class="cls-4" d="M30,91.63l-6.62.59a1.4,1.4,0,0,1-1.57-1.12h0a1.32,1.32,0,0,1,1.28-1.38l6.62-.6a1.4,1.4,0,0,1,1.56,1.13A1.31,1.31,0,0,1,30,91.63Z"/></svg>