<svg xmlns="http://www.w3.org/2000/svg" xmlns:xlink="http://www.w3.org/1999/xlink" width="1920" height="1080" viewBox="0 0 1920 1080"><defs><style>.cls-1{fill:url(#linear-gradient);}.cls-2{fill:#0b0c0c;}.cls-3{fill:#525656;}.cls-4{fill:#565b5b;}.cls-5{fill:#0e0f0f;}.cls-6{fill:#ea1845;}.cls-7{fill:url(#radial-gradient);}.cls-8{fill:#070102;}.cls-9{fill:#f2f2f2;}.cls-10{fill:#0c0f11;}.cls-11{fill:#f2f3f4;}.cls-12{fill:#c13e54;}.cls-13{fill:#0c0c0c;}.cls-14{fill:#c66073;}.cls-15{fill:#2bf4f9;}.cls-16{fill:#877e81;}.cls-17{fill:#070101;}.cls-18{fill:#020202;}</style><linearGradient id="linear-gradient" x1="947.42" y1="1084.85" x2="968.38" y2="5.62" gradientUnits="userSpaceOnUse"><stop offset="0" stop-color="#fff"/><stop offset="1" stop-color="#999"/></linearGradient><radialGradient id="radial-gradient" cx="2070.19" cy="5096.88" r="46.61" gradientTransform="translate(-7095.45 -18135.09) scale(3.85 3.67)" gradientUnits="userSpaceOnUse"><stop offset="0.08" stop-color="#fff"/><stop offset="1" stop-color="#6ff"/></radialGradient></defs><g id="Layer_7" data-name="Layer 7"><rect class="cls-1" x="-2" width="1920" height="1080"/></g><g id="Layer_4" data-name="Layer 4"><ellipse class="cls-2" cx="692.99" cy="956.49" rx="94.25" ry="84.01"/><ellipse class="cls-3" cx="712.34" cy="941.49" rx="54.07" ry="58.01"/><ellipse class="cls-2" cx="711.84" cy="948.99" rx="28.8" ry="27.48" transform="translate(-307.33 341.87) rotate(-22.34)"/><path class="cls-2" d="M1186.07,965c.91,69.59-92.74,125.5-151.79,99.51-33.46-14.73-61.39-58.22-61.51-99V965c.18-41.79,44.48-99.52,106.65-99.52C1138.71,865.48,1185.44,916.38,1186.07,965Z"/><ellipse class="cls-4" cx="1109.18" cy="948.99" rx="85.82" ry="102.51"/><ellipse class="cls-5" cx="1087.85" cy="922.99" rx="39.68" ry="46.51"/><path class="cls-6" d="M619.12,764.47q-3.72-209.67,1.61-209.93a.54.54,0,0,1,.4.26c0-55.76,42.8-101.38,95.12-101.38h310.19c52.32,0,95.13,45.62,95.13,101.38q1,104,2,208Z"/><path class="cls-6" d="M1182.1,774.47c0,41.14-2.35,88-17.86,91-13.8,2.67-24.58-31.49-54.56-33-3.43-.18-10.15-.52-16.87,3-20.33,10.63-19.14,45.34-21.82,58-18.52,87.46-423.9,78.87-483.16,5-18.18-22.67-22.82-41-22.82-41-4.86-19.22-5-48.39-5-66h0c5.37-66,51.67-108.75,59.53-116,17.25-15.93,55.69-43.51,244.06-42,149.39,1.19,247.84,3.28,291.68,67C1178.25,733.79,1182.1,774.47,1182.1,774.47Z"/><path class="cls-7" d="M1080.91,664.45h0a61.62,61.62,0,0,1-15.88,11c-55.44,25.8-194.45,19-194.45,19-118-5.77-197.62,8.77-219.25-27-5.65-9.33-8.93-21-8.93-21a182.63,182.63,0,0,1-2.11-40.88c1.34-22,4-65.17,35.89-95.09,23.39-21.92,51.94-26.81,66.92-28.05h249c13.51,1.17,42.31,5.78,66.92,28.05,42.53,38.5,36.9,97.48,35.32,110A136.86,136.86,0,0,1,1080.91,664.45Z"/><path class="cls-8" d="M597.42,734.41,589,752.22a218.39,218.39,0,0,0,74.79,52.85,215.71,215.71,0,0,0,69.3,16.64q4.23-8.9,8.45-17.8a246.68,246.68,0,0,1-144.09-69.5Z"/><path class="cls-9" d="M780.89,862.68c-16,19.24-64.23,9.82-78.19-17.49-4.52-8.86-7-22.62-.63-33.24,11.82-19.74,51-23.55,71.21-3C787.58,823.46,791.75,849.61,780.89,862.68Z"/><path class="cls-9" d="M773.29,895.58l-34-24.33a9.08,9.08,0,0,1-2.11-12.55h0a8.91,8.91,0,0,1,12.45-2.13l34,24.33a9.08,9.08,0,0,1,2.11,12.55h0A8.91,8.91,0,0,1,773.29,895.58Z"/><path class="cls-9" d="M799,880,765,855.7a9.06,9.06,0,0,1-2.11-12.55h0A8.91,8.91,0,0,1,775.38,841l34,24.33a9.08,9.08,0,0,1,2.11,12.55h0A8.91,8.91,0,0,1,799,880Z"/><path class="cls-9" d="M808.93,855,775,830.7a9.08,9.08,0,0,1-2.11-12.56h0A8.91,8.91,0,0,1,785.3,816l34,24.33a9.08,9.08,0,0,1,2.11,12.55h0A8.91,8.91,0,0,1,808.93,855Z"/><rect class="cls-9" x="741.61" y="793.47" width="59.53" height="18" rx="0.43"/><ellipse class="cls-10" cx="810.06" cy="565.44" rx="43.65" ry="68.01"/><ellipse class="cls-10" cx="923.16" cy="565.44" rx="43.65" ry="68.01"/><ellipse class="cls-11" cx="824.45" cy="573.94" rx="27.28" ry="27.5"/><ellipse class="cls-11" cx="906.79" cy="573.94" rx="27.28" ry="27.5"/><path class="cls-12" d="M803.24,713.55c34-29.69,51-44.54,72.42-44,37.12.92,62.41,41.78,87.31,82,15.53,25.1,13.13,30.29,11.91,32-8.46,11.87-48.41-19-108.14-23-64.65-4.35-106.38,25.81-113.1,14S786.43,728.22,803.24,713.55Z"/><path class="cls-13" d="M852.59,635c9.67,14.19,48.08,1.09,48.55,3.28.52,2.44-46,23.5-57.11,8.41-9.7-13.17,13.85-45.36,14.84-44.91C859.68,602.15,845,623.81,852.59,635Z"/><path class="cls-14" d="M886.46,696.79c7.45,3,18.72,10.64,19.84,21,1.68,15.57-20.32,29.9-37.7,34-18.3,4.32-45.12.5-54.42-17.73-6-11.79-5.21-30.6,4.81-36.28,7-3.92,17.52-.84,23.81,5,11.6,10.77,9,31.26,10.68,31.23,2,0-2.14-30,11.15-38.23C872.32,691,883,695.37,886.46,696.79Z"/><path class="cls-8" d="M986.57,814.51l4.4,20.14c17-3.08,46.38-11.34,80.33-36.48,25.13-18.61,43.93-39.93,56.12-55.59q-2.2-10.07-4.4-20.14c-13.22,15.75-32.27,35.8-56.81,53.72C1033.41,800.12,1004.87,810,986.57,814.51Z"/><path class="cls-9" d="M918.33,841.4c5.23-27.53,49.49-54.28,72.67-41.49a29.13,29.13,0,0,1,14.55,27.3c-1.53,25-32.67,56.28-58.18,53.63C929.29,879,914.78,860.11,918.33,841.4Z"/><path class="cls-9" d="M956.39,815.69l-38.1-9.24c-4.49-1.09-6.75-6.07-5-11.06h0c1.73-5,6.82-8.19,11.31-7.1l38.1,9.24c4.49,1.09,6.75,6.07,5,11.07h0C966,813.59,960.88,816.78,956.39,815.69Z"/><path class="cls-9" d="M932.62,841l-38.69,2.87c-4.56.33-7.67-3.8-6.9-9.19h0c.77-5.39,5.13-10.07,9.69-10.41l38.7-2.87c4.56-.34,7.66,3.79,6.89,9.18h0C941.54,835.94,937.18,840.63,932.62,841Z"/><path class="cls-9" d="M924,866.84l-38.49,5.83c-4.54.68-7.82-3.2-7.3-8.64h0c.53-5.44,4.67-10.45,9.21-11.14l38.5-5.82c4.53-.69,7.82,3.2,7.29,8.64h0C932.69,861.15,928.55,866.16,924,866.84Z"/><path class="cls-9" d="M950.38,885.06l-37.57,12.4c-4.43,1.46-8.08-1.83-8.1-7.31h0c0-5.48,3.57-11.16,8-12.62l37.57-12.4c4.42-1.46,8.07,1.83,8.1,7.31h0C958.41,877.92,954.81,883.6,950.38,885.06Z"/><path class="cls-15" d="M752,673.85c10.93,29.32,9.54,39.32,8,45.16-4.74,17.7-22,38-44.82,37-19-.85-33.55-16-38.85-30.79-1.85-5.16-4.82-16.72,8-51.32a307.51,307.51,0,0,1,33.87-65.69A314.68,314.68,0,0,1,752,673.85Z"/><path class="cls-16" d="M1115.74,894.24c-113.63,68.4-262.69,73-262.69,73-13.21.41-255.37,7-264.26-38-2.29-11.55,2.72-19,2.72-19,8.31-12.3,30.27-8.09,38.55-6.56,70.9,13.11,175.24,21.55,221.28,21.5a345.59,345.59,0,0,0,54.5-3.68c10.24-1.57,19.06-3.46,27.06-5.4,57.18-13.86,101.41-24.59,147.47-51.19,14.74-8.51,32.34-20.2,47.1-13.61,5.81,2.6,11.92,8.35,12.52,15.14C1141.09,879,1122.44,890.21,1115.74,894.24Z"/><path class="cls-15" d="M1121.8,473.81c10.92,29.32,9.53,39.32,8,45.16-4.74,17.7-22,38-44.82,36.95-19-.85-33.54-16-38.84-30.79-1.86-5.16-4.83-16.72,8-51.32a307.51,307.51,0,0,1,33.87-65.69A314.32,314.32,0,0,1,1121.8,473.81Z"/></g><g id="Layer_1" data-name="Layer 1"><path class="cls-17" d="M133.18,205.62q0-21.81,17.4-34T199,159.51q31.83,0,49.06,11.94t17.23,33.44q0,15.62-7.53,25.61t-21.75,15.55q-14.22,5.56-35.45,5.56-21.57,0-35.71-4.8A50.57,50.57,0,0,1,142,231.62Q133.18,221.24,133.18,205.62Zm39.41.12q0,13.5,7.18,19.38T199.3,231q12.7,0,19.66-5.77t7-20.72q0-12.59-7.26-18.38T199,180.35q-11.92,0-19.14,5.89T172.59,205.74Z"/><path class="cls-17" d="M286.73,161h39.41V192.2H369.2V161h39.58v89.06H369.2v-36H326.14v36H286.73Z"/><path class="cls-17" d="M494.65,161h36.8l48,49.27V161h37.15v89.06H579.47l-47.76-48.9v48.9H494.65Z"/><path class="cls-17" d="M637.84,205.62q0-21.81,17.4-34t48.46-12.15q31.84,0,49.06,11.94T770,204.89q0,15.62-7.53,25.61t-21.74,15.55q-14.24,5.56-35.46,5.56-21.57,0-35.71-4.8a50.57,50.57,0,0,1-22.92-15.19Q637.84,221.24,637.84,205.62Zm39.41.12q0,13.5,7.18,19.38T704,231q12.7,0,19.66-5.77t7-20.72q0-12.59-7.26-18.38t-19.71-5.8q-11.91,0-19.14,5.89T677.25,205.74Z"/><path class="cls-17" d="M789,161H826.8v20.29l-7.31,40.77h-23.4L789,181.32Zm1.3,67.25h35.32v21.81H790.26Z"/><path class="cls-17" d="M848.29,161h37.84v20.29l-7.31,40.77h-23.4l-7.13-40.77Zm1.3,67.25h35.32v21.81H849.59Z"/><path class="cls-17" d="M907.62,161h37.84v20.29l-7.31,40.77h-23.4l-7.13-40.77Zm1.3,67.25h35.32v21.81H908.92Z"/><path class="cls-17" d="M967,161h37.84v20.29l-7.31,40.77h-23.4L967,181.32Zm1.3,67.25h35.32v21.81H968.25Z"/><path class="cls-18" d="M362.94,310.34h43.77l25.7,30,25.75-30H501.7L452.11,362.1v37.3h-39.5V362.1Z"/><path class="cls-18" d="M498.74,354.93q0-21.81,17.4-34t48.45-12.15q31.85,0,49.07,11.94t17.22,33.44q0,15.62-7.52,25.61t-21.75,15.55q-14.22,5.56-35.45,5.56-21.57,0-35.71-4.8a50.55,50.55,0,0,1-22.93-15.19Q498.75,370.55,498.74,354.93Zm39.41.12q0,13.49,7.17,19.38t19.53,5.9q12.71,0,19.67-5.78t7-20.71q0-12.58-7.27-18.38t-19.7-5.8q-11.93,0-19.14,5.89T538.15,355.05Z"/><path class="cls-18" d="M735.1,310.34h39.33V363.4a32.79,32.79,0,0,1-3.53,14.91,33.28,33.28,0,0,1-11,12.26A48.74,48.74,0,0,1,744.07,398q-11.49,3-27.58,3-9.32,0-20.32-.91a71.7,71.7,0,0,1-18.4-3.61,46.73,46.73,0,0,1-13.52-7.68q-6.13-5-8.4-10.26-3.65-8.5-3.65-15.06V310.34h39.32v54.32a13.2,13.2,0,0,0,5.78,11.39q5.79,4.09,16.06,4.09t16-4a13.13,13.13,0,0,0,5.78-11.45Z"/><path class="cls-18" d="M859.94,310.34h39.41v67.13h61.51V399.4H859.94Z"/><path class="cls-18" d="M970.78,354.93q0-21.81,17.39-34t48.46-12.15q31.84,0,49.07,11.94t17.22,33.44q0,15.62-7.52,25.61t-21.75,15.55q-14.22,5.56-35.45,5.56-21.59,0-35.71-4.8a50.55,50.55,0,0,1-22.93-15.19Q970.77,370.55,970.78,354.93Zm39.41.12q0,13.49,7.17,19.38t19.53,5.9q12.7,0,19.66-5.78t7-20.71q0-12.58-7.26-18.38t-19.71-5.8q-11.91,0-19.13,5.89T1010.19,355.05Z"/><path class="cls-18" d="M1117.28,369.94l37.49-1.64q1.21,6.38,5,9.72,6.09,5.4,17.4,5.4,8.43,0,13-2.76t4.57-6.41c0-2.31-1.45-4.37-4.35-6.2s-9.63-3.54-20.18-5.16q-25.92-4.06-37-10.82t-11.14-17.19q0-6.86,5.7-13t17.14-9.6q11.43-3.49,31.36-3.49,24.45,0,37.28,6.35t15.26,20.2l-37.14,1.52a13.2,13.2,0,0,0-6.22-8.75q-4.74-2.73-13.1-2.74-6.87,0-10.35,2t-3.48,4.95c0,1.42,1,2.69,2.87,3.83s6.27,2.27,13.23,3.28q25.83,3.88,37,7.87t16.27,9.87a19.68,19.68,0,0,1,5.09,13.18q0,8.56-6.79,15.8t-19,11q-12.18,3.75-30.71,3.74-32.54,0-45.06-8.75T1117.28,369.94Z"/><path class="cls-18" d="M1243.86,310.34h119.79v22h-40.19V399.4h-39.41V332.33h-40.19Z"/></g></svg>