<svg xmlns="http://www.w3.org/2000/svg" xmlns:xlink="http://www.w3.org/1999/xlink" width="1920" height="1080" viewBox="0 0 1920 1080"><defs><style>.cls-1{fill:url(#linear-gradient);}.cls-2{fill:#0b0c0c;}.cls-3{fill:#525656;}.cls-4{fill:#565b5b;}.cls-5{fill:#0e0f0f;}.cls-6{fill:#ea1845;}.cls-7{fill:url(#radial-gradient);}.cls-8{fill:#070102;}.cls-9{fill:#f2f2f2;}.cls-10{fill:#0c0f11;}.cls-11{fill:#f2f3f4;}.cls-12{fill:#c13e54;}.cls-13{fill:#0c0c0c;}.cls-14{fill:#c66073;}.cls-15{fill:#2bf4f9;}.cls-16{fill:#877e81;}</style><linearGradient id="linear-gradient" x1="947.42" y1="1084.85" x2="968.38" y2="5.62" gradientUnits="userSpaceOnUse"><stop offset="0" stop-color="#fff"/><stop offset="1" stop-color="#999"/></linearGradient><radialGradient id="radial-gradient" cx="2070.19" cy="5096.88" r="46.61" gradientTransform="translate(-7095.45 -18135.09) scale(3.85 3.67)" gradientUnits="userSpaceOnUse"><stop offset="0.08" stop-color="#fff"/><stop offset="1" stop-color="#6ff"/></radialGradient></defs><g id="Layer_7" data-name="Layer 7"><rect class="cls-1" x="-2" width="1920" height="1080"/></g><g id="Layer_4" data-name="Layer 4"><ellipse class="cls-2" cx="692.99" cy="956.49" rx="94.25" ry="84.01"/><ellipse class="cls-3" cx="712.34" cy="941.49" rx="54.07" ry="58.01"/><ellipse class="cls-2" cx="711.84" cy="948.99" rx="28.8" ry="27.48" transform="translate(-307.33 341.87) rotate(-22.34)"/><path class="cls-2" d="M1186.07,965c.91,69.59-92.74,125.5-151.79,99.51-33.46-14.73-61.39-58.22-61.51-99V965c.18-41.79,44.48-99.52,106.65-99.52C1138.71,865.48,1185.44,916.38,1186.07,965Z"/><ellipse class="cls-4" cx="1109.18" cy="948.99" rx="85.82" ry="102.51"/><ellipse class="cls-5" cx="1087.85" cy="922.99" rx="39.68" ry="46.51"/><path class="cls-6" d="M619.12,764.47q-3.72-209.67,1.61-209.93a.54.54,0,0,1,.4.26c0-55.76,42.8-101.38,95.12-101.38h310.19c52.32,0,95.13,45.62,95.13,101.38q1,104,2,208Z"/><path class="cls-6" d="M1182.1,774.47c0,41.14-2.35,88-17.86,91-13.8,2.67-24.58-31.49-54.56-33-3.43-.18-10.15-.52-16.87,3-20.33,10.63-19.14,45.34-21.82,58-18.52,87.46-423.9,78.87-483.16,5-18.18-22.67-22.82-41-22.82-41-4.86-19.22-5-48.39-5-66h0c5.37-66,51.67-108.75,59.53-116,17.25-15.93,55.69-43.51,244.06-42,149.39,1.19,247.84,3.28,291.68,67C1178.25,733.79,1182.1,774.47,1182.1,774.47Z"/><path class="cls-7" d="M1080.91,664.45h0a61.62,61.62,0,0,1-15.88,11c-55.44,25.8-194.45,19-194.45,19-118-5.77-197.62,8.77-219.25-27-5.65-9.33-8.93-21-8.93-21a182.63,182.63,0,0,1-2.11-40.88c1.34-22,4-65.17,35.89-95.09,23.39-21.92,51.94-26.81,66.92-28.05h249c13.51,1.17,42.31,5.78,66.92,28.05,42.53,38.5,36.9,97.48,35.32,110A136.86,136.86,0,0,1,1080.91,664.45Z"/><path class="cls-8" d="M597.42,734.41,589,752.22a218.39,218.39,0,0,0,74.79,52.85,215.71,215.71,0,0,0,69.3,16.64q4.23-8.9,8.45-17.8a246.68,246.68,0,0,1-144.09-69.5Z"/><path class="cls-9" d="M780.89,862.68c-16,19.24-64.23,9.82-78.19-17.49-4.52-8.86-7-22.62-.63-33.24,11.82-19.74,51-23.55,71.21-3C787.58,823.46,791.75,849.61,780.89,862.68Z"/><path class="cls-9" d="M773.29,895.58l-34-24.33a9.08,9.08,0,0,1-2.11-12.55h0a8.91,8.91,0,0,1,12.45-2.13l34,24.33a9.08,9.08,0,0,1,2.11,12.55h0A8.91,8.91,0,0,1,773.29,895.58Z"/><path class="cls-9" d="M799,880,765,855.7a9.06,9.06,0,0,1-2.11-12.55h0A8.91,8.91,0,0,1,775.38,841l34,24.33a9.08,9.08,0,0,1,2.11,12.55h0A8.91,8.91,0,0,1,799,880Z"/><path class="cls-9" d="M808.93,855,775,830.7a9.08,9.08,0,0,1-2.11-12.56h0A8.91,8.91,0,0,1,785.3,816l34,24.33a9.08,9.08,0,0,1,2.11,12.55h0A8.91,8.91,0,0,1,808.93,855Z"/><rect class="cls-9" x="741.61" y="793.47" width="59.53" height="18" rx="0.43"/><ellipse class="cls-10" cx="810.06" cy="565.44" rx="43.65" ry="68.01"/><ellipse class="cls-10" cx="923.16" cy="565.44" rx="43.65" ry="68.01"/><ellipse class="cls-11" cx="824.45" cy="573.94" rx="27.28" ry="27.5"/><ellipse class="cls-11" cx="906.79" cy="573.94" rx="27.28" ry="27.5"/><path class="cls-12" d="M803.24,713.55c34-29.69,51-44.54,72.42-44,37.12.92,62.41,41.78,87.31,82,15.53,25.1,13.13,30.29,11.91,32-8.46,11.87-48.41-19-108.14-23-64.65-4.35-106.38,25.81-113.1,14S786.43,728.22,803.24,713.55Z"/><path class="cls-13" d="M852.59,635c9.67,14.19,48.08,1.09,48.55,3.28.52,2.44-46,23.5-57.11,8.41-9.7-13.17,13.85-45.36,14.84-44.91C859.68,602.15,845,623.81,852.59,635Z"/><path class="cls-14" d="M886.46,696.79c7.45,3,18.72,10.64,19.84,21,1.68,15.57-20.32,29.9-37.7,34-18.3,4.32-45.12.5-54.42-17.73-6-11.79-5.21-30.6,4.81-36.28,7-3.92,17.52-.84,23.81,5,11.6,10.77,9,31.26,10.68,31.23,2,0-2.14-30,11.15-38.23C872.32,691,883,695.37,886.46,696.79Z"/><path class="cls-8" d="M986.57,814.51l4.4,20.14c17-3.08,46.38-11.34,80.33-36.48,25.13-18.61,43.93-39.93,56.12-55.59q-2.2-10.07-4.4-20.14c-13.22,15.75-32.27,35.8-56.81,53.72C1033.41,800.12,1004.87,810,986.57,814.51Z"/><path class="cls-9" d="M918.33,841.4c5.23-27.53,49.49-54.28,72.67-41.49a29.13,29.13,0,0,1,14.55,27.3c-1.53,25-32.67,56.28-58.18,53.63C929.29,879,914.78,860.11,918.33,841.4Z"/><path class="cls-9" d="M956.39,815.69l-38.1-9.24c-4.49-1.09-6.75-6.07-5-11.06h0c1.73-5,6.82-8.19,11.31-7.1l38.1,9.24c4.49,1.09,6.75,6.07,5,11.07h0C966,813.59,960.88,816.78,956.39,815.69Z"/><path class="cls-9" d="M932.62,841l-38.69,2.87c-4.56.33-7.67-3.8-6.9-9.19h0c.77-5.39,5.13-10.07,9.69-10.41l38.7-2.87c4.56-.34,7.66,3.79,6.89,9.18h0C941.54,835.94,937.18,840.63,932.62,841Z"/><path class="cls-9" d="M924,866.84l-38.49,5.83c-4.54.68-7.82-3.2-7.3-8.64h0c.53-5.44,4.67-10.45,9.21-11.14l38.5-5.82c4.53-.69,7.82,3.2,7.29,8.64h0C932.69,861.15,928.55,866.16,924,866.84Z"/><path class="cls-9" d="M950.38,885.06l-37.57,12.4c-4.43,1.46-8.08-1.83-8.1-7.31h0c0-5.48,3.57-11.16,8-12.62l37.57-12.4c4.42-1.46,8.07,1.83,8.1,7.31h0C958.41,877.92,954.81,883.6,950.38,885.06Z"/><path class="cls-15" d="M752,673.85c10.93,29.32,9.54,39.32,8,45.16-4.74,17.7-22,38-44.82,37-19-.85-33.55-16-38.85-30.79-1.85-5.16-4.82-16.72,8-51.32a307.51,307.51,0,0,1,33.87-65.69A314.68,314.68,0,0,1,752,673.85Z"/><path class="cls-16" d="M1115.74,894.24c-113.63,68.4-262.69,73-262.69,73-13.21.41-255.37,7-264.26-38-2.29-11.55,2.72-19,2.72-19,8.31-12.3,30.27-8.09,38.55-6.56,70.9,13.11,175.24,21.55,221.28,21.5a345.59,345.59,0,0,0,54.5-3.68c10.24-1.57,19.06-3.46,27.06-5.4,57.18-13.86,101.41-24.59,147.47-51.19,14.74-8.51,32.34-20.2,47.1-13.61,5.81,2.6,11.92,8.35,12.52,15.14C1141.09,879,1122.44,890.21,1115.74,894.24Z"/><path class="cls-15" d="M1121.8,473.81c10.92,29.32,9.53,39.32,8,45.16-4.74,17.7-22,38-44.82,36.95-19-.85-33.54-16-38.84-30.79-1.86-5.16-4.83-16.72,8-51.32a307.51,307.51,0,0,1,33.87-65.69A314.32,314.32,0,0,1,1121.8,473.81Z"/></g></svg>