<?xml version="1.0" encoding="utf-8"?>
<!-- Generator: Adobe Illustrator 24.3.0, SVG Export Plug-In . SVG Version: 6.00 Build 0)  -->
<svg version="1.1" id="Layer_1" xmlns="http://www.w3.org/2000/svg" xmlns:xlink="http://www.w3.org/1999/xlink" x="0px" y="0px"
	 viewBox="0 0 55 49" style="enable-background:new 0 0 55 49;" xml:space="preserve">
<style type="text/css">
	.st0{fill:#1998D8;}
	.st1{fill:#F4F4F4;}
</style>
<g id="Layer_5">
	<path class="st0" d="M18,3h18c6.6,0,12,5.4,12,12v18c0,6.6-5.4,12-12,12H18c-6.6,0-12-5.4-12-12V15C6,8.4,11.4,3,18,3z"/>
</g>
<g id="Layer_6">
	<path class="st1" d="M38,8l-19.5,5.2v2.6L38,10.6V8z"/>
	<path class="st1" d="M38,33.8h-2.2V10.6H38V33.8z"/>
	<ellipse class="st1" cx="16.3" cy="35.1" rx="4.3" ry="3.9"/>
	<ellipse class="st1" cx="33.7" cy="32.5" rx="4.3" ry="3.9"/>
</g>
<path class="st1" d="M19.5,37.8"/>
<g id="Layer_6_1_">
	<path class="st1" d="M20.6,36.4h-2.2V13.2h2.2V36.4z"/>
</g>
</svg>
