<svg id="Layer_1" data-name="Layer 1" xmlns="http://www.w3.org/2000/svg" xmlns:xlink="http://www.w3.org/1999/xlink" width="150" height="136" viewBox="0 0 150 136"><defs><style>.cls-1{fill:#0f0f0f;}.cls-2{fill:url(#radial-gradient);}.cls-3{fill:#0c0f11;}.cls-4{fill:#f2f3f4;}.cls-5{fill:#c13e54;}.cls-6{fill:#0c0c0c;}.cls-7{fill:#c66073;}.cls-8{fill:#070102;}.cls-9{fill:#f2f2f2;}.cls-10{fill:#888e8e;}.cls-11{fill:#0b0c0c;}</style><radialGradient id="radial-gradient" cx="-8056.89" cy="832" r="562.7" gradientTransform="translate(793.86 -23.68) scale(0.09 0.13)" gradientUnits="userSpaceOnUse"><stop offset="0" stop-color="#fff"/><stop offset="1" stop-color="#41d5e0"/></radialGradient></defs><path class="cls-1" d="M143.08,114.86c-76.74,0-132.43,0-135.54.12A3.8,3.8,0,0,1,4,113.48a6.67,6.67,0,0,1-1-3.26l.8-4.64c9.09-31.24,16.28-54,17.91-57.15.45-.86,2.25-3.61,3.57-3.63H119.2a3.65,3.65,0,0,1,1.87,0c2.48.62,3.81,3.58,4.1,4.26q10,29.21,20,58.4a6.4,6.4,0,0,1,.18,5.77A3,3,0,0,1,143.08,114.86Z"/><path class="cls-2" d="M10.4,107.21h0s-2-.23-2.14-1.57h0a4.9,4.9,0,0,1,.18-3.23L10.35,97Q18.12,74.57,25.88,52.1a3.37,3.37,0,0,1,1.06-2.24,4,4,0,0,1,2.12-.59h0c-.09,0,41.37,0,85.94,0a4.05,4.05,0,0,1,1.71,0c.79.17,3,2.16,3.75,3.31,1.61,2.58,8.54,21.68,17.21,48.08a14.53,14.53,0,0,1,.82,3.67,16.63,16.63,0,0,1,0,3C61.84,107.37,12,107.34,10.4,107.21Z"/><ellipse class="cls-3" cx="64.58" cy="63.09" rx="3.92" ry="8.52"/><ellipse class="cls-3" cx="75.45" cy="63.09" rx="3.92" ry="8.52"/><ellipse class="cls-4" cx="75.4" cy="64.54" rx="2.45" ry="3.45"/><ellipse class="cls-4" cx="64.53" cy="64.54" rx="2.45" ry="3.45"/><path class="cls-5" d="M76.13,85.81c-3.06,3.72-4.59,5.58-6.51,5.51C66.29,91.21,64,86.09,61.78,81c-1.4-3.14-1.18-3.79-1.07-4,.76-1.48,4.35,2.38,9.71,2.89,5.81.54,9.56-3.24,10.16-1.76S77.64,84,76.13,85.81Z"/><path class="cls-6" d="M69,72.62c.87,1.78,4.32.14,4.36.41s-4.13,3-5.13,1c-.87-1.65,1.24-5.68,1.33-5.62S68.27,71.22,69,72.62Z"/><path class="cls-7" d="M72.89,84.12a3.57,3.57,0,0,1,1.78,2.63c.15,2-1.82,3.75-3.38,4.27a3.84,3.84,0,0,1-4.89-2.23c-.54-1.47-.47-3.83.43-4.54.62-.49,1.57-.11,2.14.62,1,1.35.81,3.92,1,3.92s-.2-3.76,1-4.79C71.62,83.4,72.57,83.94,72.89,84.12Z"/><path class="cls-8" d="M39.42,95.93l.84,2.17A16.12,16.12,0,0,0,48,94.37a23.75,23.75,0,0,0,4.86-5.85L52,86.34a25.7,25.7,0,0,1-5,5.65A18.68,18.68,0,0,1,39.42,95.93Z"/><path class="cls-8" d="M89,85.87l-.76,2.23A21.28,21.28,0,0,0,95,94.73a15,15,0,0,0,6.22,2.08l.76-2.23a17.5,17.5,0,0,1-6.17-2.33A23.63,23.63,0,0,1,89,85.87Z"/><path class="cls-9" d="M44,97.35c.2,3.13-3.45,6.61-6.06,5.45a4,4,0,0,1-2.14-2.88c-.5-2.81,1.75-6.65,4.32-6.65C42,93.28,43.9,95.22,44,97.35Z"/><path class="cls-9" d="M106.69,99.83c-1.2,2.65-5.61,2.27-7.16-.89a6,6,0,0,1-.45-4.12,3.75,3.75,0,0,1,6.31-1.55C106.83,94.84,107.51,98,106.69,99.83Z"/><path class="cls-9" d="M37.54,99.27l-3.24,2.64c-.39.31-.88.12-1.1-.42h0a1.41,1.41,0,0,1,.29-1.54l3.25-2.63c.38-.31.87-.13,1.09.41h0A1.41,1.41,0,0,1,37.54,99.27Z"/><path class="cls-9" d="M38.52,101.54l-3.24,2.63c-.38.31-.87.13-1.09-.41h0a1.41,1.41,0,0,1,.29-1.54l3.24-2.64c.38-.31.88-.12,1.1.42h0A1.4,1.4,0,0,1,38.52,101.54Z"/><path class="cls-9" d="M41,102.34l-2.75,3.13c-.33.37-.85.27-1.15-.22h0a1.4,1.4,0,0,1,0-1.57l2.76-3.14c.32-.36.84-.26,1.15.23h0A1.42,1.42,0,0,1,41,102.34Z"/><path class="cls-9" d="M39.53,95.56l-4.89.66c-.57.08-1-.26-.9-.74h0a1.4,1.4,0,0,1,1.18-1l4.89-.65c.57-.08,1,.25.9.74h0A1.4,1.4,0,0,1,39.53,95.56Z"/><path class="cls-9" d="M106.88,95.44l2.9,3.34a1.45,1.45,0,0,1,.11,1.58h0a.66.66,0,0,1-1.13.16l-2.89-3.34a1.44,1.44,0,0,1-.12-1.58h0A.66.66,0,0,1,106.88,95.44Z"/><path class="cls-9" d="M106.35,98.57l2.89,3.34a1.47,1.47,0,0,1,.11,1.59h0a.65.65,0,0,1-1.12.15l-2.9-3.33a1.47,1.47,0,0,1-.11-1.59h0A.66.66,0,0,1,106.35,98.57Z"/><path class="cls-9" d="M103.27,99.1l2.77,3.55a1.46,1.46,0,0,1,0,1.59h0a.65.65,0,0,1-1.13.08l-2.77-3.55a1.49,1.49,0,0,1,0-1.6h0A.65.65,0,0,1,103.27,99.1Z"/><path class="cls-9" d="M104.53,93.11l5.2.31a1.18,1.18,0,0,1,1.18.88h0c0,.45-.44.78-1,.75l-5.2-.31a1.18,1.18,0,0,1-1.18-.88h0C103.44,93.41,103.92,93.08,104.53,93.11Z"/><path class="cls-10" d="M82.31,34.77H64.13L61.55,9.9c0-2.59,1.5-4.71,3.34-4.71H81.72a3,3,0,0,1,2.37,1.38A6.62,6.62,0,0,1,85,10.83Z"/><path class="cls-11" d="M74.91,45.3H71.79L70.72,21.48c0-.82.49-1.5,1.07-1.5h3.12c.59,0,1.07.68,1.07,1.5Z"/></svg>