<svg id="Layer_1" data-name="Layer 1" xmlns="http://www.w3.org/2000/svg" width="150" height="136" viewBox="0 0 150 136"><defs><style>.cls-1{fill:#54514f;}.cls-2{fill:#6d6b68;}.cls-3{fill:#444341;}.cls-4{fill:#0f0d0b;}.cls-5{fill:#0c0f11;}.cls-6{fill:#f2f3f4;}.cls-7{fill:#0c0c0c;}.cls-8{fill:#c13e54;}.cls-9{fill:#c66073;}</style></defs><path class="cls-1" d="M138.94,68.22c.06,25.81-18.6,48.5-43.73,57.41-24.93,8.84-55.85,4-73.13-14.19C8.11,96.75,8,78.57,8,70.07S7.84,40.81,24.71,25.21C40.07,11,60,9.76,67.73,9.28c7-.44,22.92-1.25,39,7.2C126,26.67,138.89,46.84,138.94,68.22Z"/><path class="cls-2" d="M93.23,74.69c11.32,20.58,36.13,24.27,34.12,36.08-.91,5.34-6.63,8.49-11.52,11.52-13,8.08-27.24,7.91-38,7.61-14.52-.41-25.52-.72-36.21-7-23.89-14-24.48-44.86-24.58-50.2C17,68.69,16.85,31.18,45.2,16,58.76,8.75,78,7,93.35,9.69l.1,0Q93.35,42.2,93.23,74.69Z"/><ellipse class="cls-3" cx="93.53" cy="69.86" rx="49.47" ry="60.14"/><ellipse class="cls-4" cx="93.53" cy="69.75" rx="37.04" ry="46.5"/><ellipse class="cls-5" cx="24.47" cy="38.09" rx="10.51" ry="14.84"/><ellipse class="cls-5" cx="48.13" cy="38.09" rx="10.51" ry="14.84"/><ellipse class="cls-6" cx="22.2" cy="44.1" rx="6.57" ry="6"/><ellipse class="cls-6" cx="45.86" cy="43" rx="6.57" ry="6"/><path class="cls-7" d="M33,57.36c2.33,3.1,11.58.24,11.69.72S33.62,63.21,31,59.91c-2.34-2.87,3.33-9.9,3.57-9.8S31.17,54.92,33,57.36Z"/><path class="cls-8" d="M46,76.18c-6.11,6.48-9.17,9.72-13,9.61-6.67-.2-11.22-9.12-15.7-17.9-2.79-5.48-2.36-6.61-2.14-7,1.52-2.59,8.7,4.14,19.45,5,11.62,1,19.13-5.63,20.33-3.05S49,73,46,76.18Z"/><path class="cls-9" d="M40.31,73.65c1.67.61,4.2,2.15,4.44,4.26.37,3.16-4.58,6.09-8.48,6.94-4.11.88-10.12.12-12.19-3.58-1.34-2.39-1.15-6.22,1.1-7.38,1.56-.8,3.93-.18,5.34,1,2.59,2.19,2,6.36,2.37,6.35s-.46-6.1,2.53-7.78C37.15,72.48,39.53,73.36,40.31,73.65Z"/></svg>