<svg id="Layer_1" data-name="Layer 1" xmlns="http://www.w3.org/2000/svg" width="150" height="136" viewBox="0 0 150 136"><defs><style>.cls-1{fill:#1e1811;}.cls-2{fill:#54514f;}.cls-3{fill:#6d6b68;}.cls-4{fill:#444341;}.cls-5{fill:#0f0d0b;}.cls-6{fill:#0c0f11;}.cls-7{fill:#f2f3f4;}.cls-8{fill:#0c0c0c;}.cls-9{fill:#c13e54;}.cls-10{fill:#c66073;}</style></defs><path class="cls-1" d="M142.2,100.81c-.34,2.09-2.34,2.68-2.17,4.23s2.29,1.53,2.84,3.46-.61,4.39-2,4.8-2.07-1.37-3.18-1c-1.44.54-.65,3.75-2.34,5.57s-3.61-.09-7.68,1c-3.7.95-4,3-6.85,3.46-3.86.57-5-4.3-8.35-3.84-2.76.37-2.75,3.36-6,4.61-3.49,1.33-5-1.51-9.86-1.73-5.73-.26-6.38,3.58-11.52,3.45-6.13-.14-6.58-6.17-12.2-5.95-7.25.29-10.35,8-15.37,6.34-3.9-1.33-3.39-6.49-7.35-7.68-5-1.52-8,6.08-13.2,4.8-4.6-1.15-4.43-7.74-9.19-8.84s-8.57,5-11.19,3.08c-2-1.46-.12-5.19-2.51-8.07s-6.31-1.16-7.52-3.84c-.8-1.79,0-4.49,1.34-6,1.86-2.11,4.22-1.24,7.85-2.11,4.23-1,6.65-3.54,8.36-4.8C33.3,85,49.48,87.64,72.87,85.25c20.88-2.12,33.73-6.88,38.93.77,1.36,2,3.29,6.47,6.85,6.92,3.41.43,5.84-3.71,7.68-2.5s.19,5.39,2,6.92c2.5,2.1,7.36-4.34,11.19-2.12A6,6,0,0,1,142.2,100.81Z"/><path class="cls-2" d="M119,55.05c.05,22.71-13,42.68-30.57,50.52s-39,3.5-51.12-12.49c-9.77-12.93-9.83-28.92-9.86-36.4s-.1-25.75,11.69-39.47c10.74-12.5,24.68-13.6,30.08-14,4.9-.38,16-1.09,27.23,6.34C109.92,18.49,118.93,36.23,119,55.05Z"/><path class="cls-3" d="M87,60.74c7.91,18.11,25.26,21.36,23.85,31.75-.63,4.69-4.63,7.47-8,10.14-9.13,7.11-19,7-26.55,6.69C66.11,109,58.42,108.69,51,103.2,34.24,90.92,33.83,63.73,33.76,59c-.06-3.56-.15-36.56,19.67-49.91,9.48-6.39,22.94-7.89,33.66-5.56h.07Z"/><ellipse class="cls-4" cx="87.22" cy="56.49" rx="34.58" ry="52.92"/><ellipse class="cls-5" cx="87.22" cy="56.39" rx="25.9" ry="40.91"/><ellipse class="cls-6" cx="38.94" cy="28.54" rx="7.35" ry="13.06"/><ellipse class="cls-6" cx="55.48" cy="28.54" rx="7.35" ry="13.06"/><ellipse class="cls-7" cx="37.35" cy="33.82" rx="4.59" ry="5.28"/><ellipse class="cls-7" cx="53.89" cy="32.86" rx="4.59" ry="5.28"/><path class="cls-8" d="M44.9,45.49c1.63,2.73,8.1.21,8.18.63s-7.75,4.52-9.62,1.62C41.83,45.21,45.79,39,46,39.11S43.62,43.34,44.9,45.49Z"/><path class="cls-9" d="M57.42,66.53c-2.59.85-3.7-1-7.69-1.92a15.83,15.83,0,0,0-9.69.76c-4.33,2-5.23,5.41-7.18,4.81s-3.34-4.88-2.68-8.26c1.33-6.71,10.41-8.8,12.2-9.22,6.54-1.53,15.41-.18,18.21,5.57a6.53,6.53,0,0,1,.67,4.22A5.85,5.85,0,0,1,57.42,66.53Z"/><path class="cls-10" d="M48.64,58a3.22,3.22,0,0,1,2,2.41c.15,1.81-2.12,3.53-3.9,4s-4.59.16-5.5-2c-.59-1.36-.48-3.56.55-4.24a2,2,0,0,1,2.42.53c1.16,1.23.86,3.63,1,3.62s-.17-3.49,1.2-4.48A2.31,2.31,0,0,1,48.64,58Z"/><path class="cls-1" d="M55.58,84.2c.69,1.3,1.15,3.27.5,4s-2.33-.55-3.34.39,0,2.74-.84,3.65-2.8.43-3.84-.77-.75-2.5-1.67-2.88c-.72-.3-1.1.44-1.84.19-1.38-.47-2.15-3.77-1.33-4.61.38-.4.89,0,1.17-.39C45,83,42.6,80.32,43.22,79.2c.39-.71,1.94-.66,3,0s1.2,1.87,1.84,1.92c1.35.12,2.44-4.82,3.18-4.61.48.14-.06,1.95.83,3.85S54.43,82,55.58,84.2Z"/></svg>