<svg id="Layer_1" data-name="Layer 1" xmlns="http://www.w3.org/2000/svg" width="150" height="137" viewBox="0 0 150 137"><defs><style>.cls-1{fill:#111110;}.cls-2{fill:#592807;}.cls-3{fill:#ad4b09;}.cls-4{fill:#070102;}.cls-5{fill:#f21645;}.cls-6{fill:#f9f7f7;}.cls-7{fill:#161514;}.cls-8{fill:#63605c;}.cls-9{fill:#cc6825;}.cls-10{fill:#e89f6d;}.cls-11{fill:#edd7c8;}.cls-12{fill:#0c0f11;}.cls-13{fill:#f2f3f4;}.cls-14{fill:#0c0c0c;}.cls-15{fill:#c13e54;}.cls-16{fill:#c66073;}.cls-17{fill:#f2f2f2;}</style></defs><path class="cls-1" d="M130.85,130.84c-61.31.37-106.24.07-111.35-.66-.45-.06-5-.77-7.17-3.82a8,8,0,0,1-1.06-2.26,12.22,12.22,0,0,1,.34-7.92l23.1-42.69c36.34-.11,66,.1,87.64.13,4.81,0,16.05,0,19.68,7.22,2,4,.83,8.67-3.16,22.62C136.58,111.44,133.9,120.64,130.85,130.84Z"/><path class="cls-2" d="M127.25,124.56c-58.93.33-102.12.06-107-.58-.43-.06-4.84-.69-6.9-3.42a6.05,6.05,0,0,1-.83-5.88L34.84,73.44c34.93-.1,63.46.09,84.24.12,4.62,0,15.43,0,18.91,6.44,1.95,3.59.81,7.73-3,20.16C132.76,107.27,130.18,115.47,127.25,124.56Z"/><path class="cls-3" d="M34.89,88.66l5.91,2.72Q37.86,59,34.94,26.72c0-11,12.37-19.95,27.48-19.95H90.15c15.11,0,27.48,9,27.48,20V99.65L93.06,115.21Z"/><path class="cls-4" d="M20.31,66.46l1.09,2.11A24.9,24.9,0,0,0,31.53,65a25.52,25.52,0,0,0,6.35-5.67l-1.09-2.11a29.3,29.3,0,0,1-6.49,5.48A28.33,28.33,0,0,1,20.31,66.46Z"/><path class="cls-4" d="M36.28,79c1,.2,1.86,2.67,1.86,2.67h0c-1.81,3.23-2.56,4.73-2.56,4.73-.9,1.82-1.37,3-1.62,3.65-1.79,4.13-7.4,10.45-12.34,9.35-2.59-.58-4.11-3-4.66-3.89-2.9-4.66-1.3-10.29-.06-14.63s3.78-10.07,5.35-9.75c.76.15,1.24,1.71,1.23,2.89A5.69,5.69,0,0,1,22,77.57c-3,3.62-5.3,11.39-3,15.54a5.63,5.63,0,0,0,4.42,3c3.56,0,6.2-5.38,6.78-6.58.8-1.65.48-1.66,1.56-4.12C32.34,84,34.66,78.69,36.28,79Z"/><path class="cls-5" d="M23.18,75.65l-2.62.59a2.35,2.35,0,0,1-1-.2A3.05,3.05,0,0,1,18,73.92a30.43,30.43,0,0,0,2-15.05,30,30,0,0,0-7.87-16.76,1.58,1.58,0,0,1,.19-1.1,1.42,1.42,0,0,1,.88-.63l1-2.28a21.62,21.62,0,0,1,3.3,2.81C27.94,51.85,24.18,71.08,23.18,75.65Z"/><path class="cls-5" d="M21.39,74.4,7.93,69V56l13.46-3.49Z"/><path class="cls-6" d="M19.29,69.67,10,66.6V59.26l9.28-2Z"/><path class="cls-7" d="M113,84.37,99.48,90.93V73L113,68.7Z"/><path class="cls-8" d="M111.11,81.94l-11.63,5V73l11.63-3.64Z"/><path class="cls-9" d="M36.46,105.35c-.67-13.5-1.81-39.84-1.92-68.83,0-6.36.07-16.23,6.43-21.89,5-4.42,11.6-4.39,15.46-4H76.07c10.12,0,18.4,8.83,18.4,19.62q-.06,42.47-.11,84.94Z"/><path class="cls-10" d="M42.1,100C39.58,68.14,38.91,44,39.66,34.09c.25-3.33.89-8,4.07-12a18.49,18.49,0,0,1,8.73-5.95l21.81-.07c8.49,0,15.43,7.9,15.43,17.55l-.1,76Z"/><path class="cls-11" d="M47.22,95.78q-1.8-23.58-3.14-50c-.39-7.91-.82-19,5.12-22.71a9.32,9.32,0,0,1,6-1.09l17.21,0C79.38,22,85,29,85,37.53L85,104.89Z"/><ellipse class="cls-12" cx="53.51" cy="38.47" rx="5.12" ry="8.26"/><ellipse class="cls-12" cx="68.29" cy="38.47" rx="5.12" ry="8.26"/><ellipse class="cls-13" cx="66.37" cy="40.35" rx="3.2" ry="3.34"/><ellipse class="cls-13" cx="51.59" cy="40.35" rx="3.2" ry="3.34"/><path class="cls-14" d="M58.81,47.75c1.13,1.72,5.64.13,5.69.4s-5.39,2.85-6.7,1c-1.13-1.6,1.63-5.51,1.74-5.45S57.91,46.39,58.81,47.75Z"/><path class="cls-15" d="M68.19,59.68c-4,3.6-6,5.4-8.5,5.34-4.35-.11-7.32-5.07-10.24-10-1.82-3.05-1.54-3.68-1.39-3.89,1-1.44,5.67,2.31,12.68,2.8,7.58.53,12.48-3.14,13.27-1.7S70.16,57.89,68.19,59.68Z"/><path class="cls-16" d="M63.26,58.29a3.64,3.64,0,0,1,2.33,2.55c.2,1.89-2.38,3.63-4.42,4.12s-5.29.07-6.39-2.15c-.7-1.43-.61-3.71.57-4.4a2.52,2.52,0,0,1,2.79.6c1.36,1.31,1.06,3.8,1.26,3.8s-.26-3.65,1.3-4.65A2.93,2.93,0,0,1,63.26,58.29Z"/><path class="cls-4" d="M85.71,70.83l1.09,2.11a24.73,24.73,0,0,0,10.14-3.62,25.9,25.9,0,0,0,6.35-5.67l-1.09-2.1A29.65,29.65,0,0,1,95.7,67,28.26,28.26,0,0,1,85.71,70.83Z"/><path class="cls-17" d="M88.41,72.7c.26,3-4.51,6.41-7.92,5.28a4.22,4.22,0,0,1-2.79-2.8c-.65-2.71,2.28-6.44,5.64-6.43C85.73,68.75,88.23,70.63,88.41,72.7Z"/><path class="cls-17" d="M84.75,77.75l-3.46,3.61a1,1,0,0,1-1.48,0h0a1.13,1.13,0,0,1,0-1.55l3.46-3.6a1,1,0,0,1,1.48,0A1.14,1.14,0,0,1,84.75,77.75Z"/><path class="cls-17" d="M81.56,77.11l-3.72,3.31a1,1,0,0,1-1.47-.12h0a1.12,1.12,0,0,1,.11-1.54l3.72-3.32a1,1,0,0,1,1.47.12h0A1.13,1.13,0,0,1,81.56,77.11Z"/><path class="cls-17" d="M80.14,74.51l-3.72,3.31A1,1,0,0,1,75,77.7h0a1.12,1.12,0,0,1,.11-1.54l3.72-3.31a1,1,0,0,1,1.48.12h0A1.13,1.13,0,0,1,80.14,74.51Z"/><path class="cls-17" d="M80.72,71.61l-4.6,1.73a1,1,0,0,1-1.34-.66h0a1.11,1.11,0,0,1,.63-1.39L80,69.56a1,1,0,0,1,1.34.65h0A1.11,1.11,0,0,1,80.72,71.61Z"/><path class="cls-17" d="M22.64,63.74l-3,.32c-.36,0-.69-.41-.75-1h0c-.06-.59.18-1.1.53-1.14l3-.32c.35,0,.69.41.75,1S23,63.7,22.64,63.74Z"/><path class="cls-17" d="M22.66,66.23l-3,.32c-.36,0-.69-.41-.75-1h0c-.06-.6.18-1.11.53-1.15l3-.32c.35,0,.69.41.75,1S23,66.19,22.66,66.23Z"/><path class="cls-17" d="M22.7,69l-3,.32c-.36,0-.69-.41-.75-1h0c-.06-.59.18-1.1.53-1.14l3-.32c.35,0,.69.41.75,1S23.06,69,22.7,69Z"/></svg>