<svg xmlns="http://www.w3.org/2000/svg" xmlns:xlink="http://www.w3.org/1999/xlink" width="102" height="56" viewBox="0 0 102 56"><defs><style>.cls-1{fill:url(#linear-gradient);}.cls-2{fill:#f9f9f9;}</style><linearGradient id="linear-gradient" x1="50.12" y1="50.71" x2="51.89" y2="4.08" gradientUnits="userSpaceOnUse"><stop offset="0" stop-color="#040404"/><stop offset="1" stop-color="#3fa9f5"/></linearGradient></defs><g id="Layer_5" data-name="Layer 5"><rect class="cls-1" x="1" y="3" width="100" height="49" rx="12"/><path class="cls-2" d="M36.46,32.31l-.52,0a2.5,2.5,0,0,1-2.19-1.21c-.51-.71-1-1.6-1.47-2.31-.28-.45-.46-.53-1.17-.53h-.49v2.2c0,1.19.15,1.26,1.27,1.37v.39H28.15v-.39c1.16-.13,1.26-.18,1.26-1.37V24.85c0-1.19-.15-1.23-1.26-1.36V23.1h3.57a4,4,0,0,1,2.24.47,2.1,2.1,0,0,1,1,1.85,2.59,2.59,0,0,1-1.81,2.41c.25.44.85,1.37,1.27,2a12.77,12.77,0,0,0,1.11,1.45,2,2,0,0,0,1,.64Zm-5.17-4.55a2.22,2.22,0,0,0,1.54-.41,1.94,1.94,0,0,0,.77-1.72,1.88,1.88,0,0,0-2.07-2,1.26,1.26,0,0,0-.75.14c-.12.1-.16.24-.16.6v3.43Z"/><path class="cls-2" d="M44.27,30c-.09.37-.46,1.81-.6,2.23H36.86v-.39c1.3-.1,1.4-.22,1.4-1.37V24.9c0-1.24-.16-1.31-1.21-1.41V23.1h4.29c1.32,0,1.86,0,2,0,0,.35.07,1.4.13,2.14l-.42.07a5.06,5.06,0,0,0-.42-1.06c-.23-.47-.55-.56-1.39-.56H39.94c-.43,0-.46,0-.46.45V27.2H41c1,0,1.12-.21,1.29-1.16h.44v2.88h-.44c-.18-1-.29-1.14-1.3-1.14H39.48v2.78c0,1,.31,1.07,1,1.08h1.3c.85,0,1-.12,1.3-.49a5.93,5.93,0,0,0,.76-1.29Z"/><path class="cls-2" d="M48.86,23.1a4,4,0,0,1,2.37.6,2.38,2.38,0,0,1,.92,2,2.9,2.9,0,0,1-3.08,2.87,1.81,1.81,0,0,1-.38,0l-1-.25v2.18c0,1.18.1,1.21,1.39,1.35v.39H45.24v-.39c1.21-.13,1.26-.21,1.26-1.37V24.88c0-1.25-.15-1.28-1.26-1.39V23.1Zm-1.14,4.69a2.66,2.66,0,0,0,1,.18,2,2,0,0,0,2.1-2.24,2,2,0,0,0-2.19-2.16,1.22,1.22,0,0,0-.78.17c-.11.1-.16.27-.16.65Z"/><path class="cls-2" d="M60.34,29.88c-.08.43-.5,1.89-.64,2.32H53.18v-.39c1.28-.13,1.39-.2,1.39-1.39V24.86c0-1.19-.14-1.26-1.26-1.37V23.1h3.75v.39c-1.12.11-1.27.17-1.27,1.37v5.7c0,.86.11,1.05.91,1.07h1.1c.72,0,.93-.08,1.25-.43a4.84,4.84,0,0,0,.86-1.45Z"/><path class="cls-2" d="M66.85,32.2v-.39c.91-.11,1-.25.82-.79s-.46-1.24-.75-2.12h-3c-.22.63-.43,1.17-.63,1.75-.31.91-.11,1,1,1.16v.39H61.06v-.39c.89-.11,1.11-.21,1.6-1.47L65.56,23,66,22.9c.88,2.4,1.85,5,2.73,7.47.45,1.22.57,1.33,1.57,1.44v.39Zm-1.4-7.46L64.1,28.32h2.62Z"/><path class="cls-2" d="M77.73,23.49c-1,.11-1.15.26-1.71,1.16s-1.15,2-1.84,3.24a1.55,1.55,0,0,0-.21.82v1.73c0,1.16.13,1.24,1.43,1.37v.39h-4v-.39c1.28-.17,1.37-.2,1.37-1.37V28.63a1.37,1.37,0,0,0-.28-.81c-.49-.91-1-1.8-1.72-3.11-.54-1-.69-1.12-1.64-1.22V23.1h3.45v.39c-1,.14-1,.32-.7.8.59,1.08,1.24,2.34,1.83,3.39.51-.94,1.31-2.47,1.7-3.24s.28-.84-.83-1V23.1h3.17Z"/></g></svg>