<svg xmlns="http://www.w3.org/2000/svg" xmlns:xlink="http://www.w3.org/1999/xlink" width="102" height="56" viewBox="0 0 102 56"><defs><style>.cls-1{fill:url(#linear-gradient);}.cls-2{fill:#f9f9f9;}</style><linearGradient id="linear-gradient" x1="50.12" y1="50.71" x2="51.89" y2="4.08" gradientUnits="userSpaceOnUse"><stop offset="0" stop-color="#040404"/><stop offset="1" stop-color="#3fa9f5"/></linearGradient></defs><g id="Layer_2" data-name="Layer 2"><rect class="cls-1" x="1" y="3" width="100" height="49" rx="12"/></g><g id="Layer_5" data-name="Layer 5"><path class="cls-2" d="M38.76,22.1a4,4,0,0,1,2.37.6,2.36,2.36,0,0,1,.93,2A2.91,2.91,0,0,1,39,27.56a1.77,1.77,0,0,1-.37,0l-1-.25v2.18c0,1.18.1,1.21,1.39,1.35v.39H35.15v-.39c1.2-.13,1.26-.21,1.26-1.37V23.88c0-1.25-.15-1.28-1.26-1.39V22.1Zm-1.13,4.69a2.64,2.64,0,0,0,1,.18,2,2,0,0,0,2.1-2.24,2,2,0,0,0-2.18-2.16,1.26,1.26,0,0,0-.79.17c-.11.1-.15.27-.15.65Z"/><path class="cls-2" d="M50.25,28.88c-.09.43-.51,1.89-.65,2.32H43.09v-.39c1.27-.13,1.39-.2,1.39-1.39V23.86c0-1.19-.15-1.26-1.27-1.37V22.1H47v.39c-1.12.11-1.28.17-1.28,1.37v5.7c0,.86.12,1.05.91,1.07h1.11c.72,0,.93-.08,1.25-.43a4.82,4.82,0,0,0,.85-1.45Z"/><path class="cls-2" d="M56.76,31.2v-.39c.91-.11,1-.25.82-.79s-.46-1.24-.75-2.12h-3c-.22.63-.43,1.17-.63,1.75-.31.91-.11,1,1,1.16v.39H51v-.39c.88-.11,1.11-.21,1.6-1.47L55.47,22l.44-.08c.89,2.4,1.85,5,2.74,7.47.44,1.22.57,1.33,1.56,1.44v.39Zm-1.41-7.46c-.44,1.2-.92,2.47-1.34,3.58h2.62Z"/><path class="cls-2" d="M67.63,22.49c-1,.11-1.14.26-1.7,1.16s-1.15,2-1.84,3.24a1.46,1.46,0,0,0-.21.82v1.73c0,1.16.13,1.24,1.43,1.37v.39h-4v-.39c1.27-.17,1.37-.2,1.37-1.37V27.63a1.37,1.37,0,0,0-.28-.81c-.49-.91-1-1.8-1.72-3.11-.55-1-.69-1.12-1.64-1.22V22.1h3.45v.39c-1,.14-1,.32-.7.8.58,1.08,1.24,2.34,1.83,3.39.5-.94,1.3-2.47,1.7-3.24s.28-.84-.83-1V22.1h3.16Z"/></g></svg>