<svg xmlns="http://www.w3.org/2000/svg" xmlns:xlink="http://www.w3.org/1999/xlink" width="102" height="56" viewBox="0 0 102 56"><defs><style>.cls-1{fill:url(#linear-gradient);}.cls-2{fill:#f9f9f9;}</style><linearGradient id="linear-gradient" x1="50.12" y1="50.71" x2="51.89" y2="4.08" gradientUnits="userSpaceOnUse"><stop offset="0" stop-color="#040404"/><stop offset="1" stop-color="#3fa9f5"/></linearGradient></defs><g id="Layer_5" data-name="Layer 5"><rect class="cls-1" x="1" y="3" width="100" height="49" rx="12"/><path class="cls-2" d="M16.76,22.1a4,4,0,0,1,2.37.6,2.36,2.36,0,0,1,.93,2A2.91,2.91,0,0,1,17,27.56a1.77,1.77,0,0,1-.37,0l-1-.25v2.18c0,1.18.1,1.21,1.39,1.35v.39H13.15v-.39c1.2-.13,1.26-.21,1.26-1.37V23.88c0-1.25-.15-1.28-1.26-1.39V22.1Zm-1.13,4.69a2.64,2.64,0,0,0,1,.18,2,2,0,0,0,2.1-2.24,2,2,0,0,0-2.18-2.16,1.26,1.26,0,0,0-.79.17c-.11.1-.15.27-.15.65Z"/><path class="cls-2" d="M28.25,28.88c-.09.43-.51,1.89-.65,2.32H21.09v-.39c1.27-.13,1.39-.2,1.39-1.39V23.86c0-1.19-.15-1.26-1.27-1.37V22.1H25v.39c-1.12.11-1.28.17-1.28,1.37v5.7c0,.86.12,1.05.91,1.07h1.11c.72,0,.93-.08,1.25-.43a4.82,4.82,0,0,0,.85-1.45Z"/><path class="cls-2" d="M34.76,31.2v-.39c.91-.11,1-.25.82-.79s-.46-1.24-.75-2.12h-3c-.22.63-.43,1.17-.63,1.75-.31.91-.11,1,1,1.16v.39H29v-.39c.88-.11,1.11-.21,1.6-1.47L33.47,22l.44-.08c.89,2.4,1.85,5,2.74,7.47.44,1.22.57,1.33,1.56,1.44v.39Zm-1.41-7.46c-.44,1.2-.92,2.47-1.34,3.58h2.62Z"/><path class="cls-2" d="M45.63,22.49c-1,.11-1.14.26-1.7,1.16s-1.15,2-1.84,3.24a1.46,1.46,0,0,0-.21.82v1.73c0,1.16.13,1.24,1.43,1.37v.39h-4v-.39c1.27-.17,1.37-.2,1.37-1.37V27.63a1.37,1.37,0,0,0-.28-.81c-.49-.91-1-1.8-1.72-3.11-.55-1-.69-1.12-1.64-1.22V22.1h3.45v.39c-1,.14-1,.32-.7.8.58,1.08,1.24,2.34,1.83,3.39.5-.94,1.3-2.47,1.7-3.24s.28-.84-.83-1V22.1h3.16Z"/><path class="cls-2" d="M53.61,31.2v-.39c.91-.11,1-.25.83-.79s-.46-1.24-.76-2.12h-3c-.23.63-.44,1.17-.63,1.75-.31.91-.12,1,1,1.16v.39H47.83v-.39c.88-.11,1.1-.21,1.59-1.47L52.32,22l.45-.08c.88,2.4,1.85,5,2.73,7.47.45,1.22.58,1.33,1.57,1.44v.39Zm-1.4-7.46c-.45,1.2-.92,2.47-1.34,3.58h2.62Z"/><path class="cls-2" d="M66.69,27.38c-.87.11-.92.19-.92,1v1.18a7.72,7.72,0,0,0,.08,1.33,14.63,14.63,0,0,1-3.18.5c-3.18,0-5.11-2-5.11-4.79S60,21.9,62.77,21.9a14.24,14.24,0,0,1,2.91.35c0,.52.1,1.37.21,2.26l-.42.08c-.33-1.19-.74-1.69-1.62-2a4.88,4.88,0,0,0-1.31-.18c-2.14,0-3.53,1.47-3.53,4,0,2.23,1.15,4.44,3.87,4.44a2.79,2.79,0,0,0,1.19-.23.84.84,0,0,0,.48-.9V28.61c0-1-.11-1.13-1.46-1.23V27h3.6Z"/><path class="cls-2" d="M73.07,31.2v-.39c.91-.11,1-.25.83-.79s-.46-1.24-.76-2.12h-3c-.23.63-.44,1.17-.63,1.75-.31.91-.12,1,1,1.16v.39H67.29v-.39c.88-.11,1.1-.21,1.59-1.47L71.78,22l.45-.08c.88,2.4,1.85,5,2.73,7.47.45,1.22.58,1.33,1.57,1.44v.39Zm-1.4-7.46c-.45,1.2-.92,2.47-1.34,3.58H73Z"/><path class="cls-2" d="M77.09,31.2v-.39c1.15-.13,1.26-.18,1.26-1.37V23.88c0-1.21-.11-1.26-1.26-1.39V22.1h3.75v.39c-1.16.13-1.27.18-1.27,1.39v5.56c0,1.2.11,1.24,1.27,1.37v.39Z"/><path class="cls-2" d="M91.93,22.49c-.89.1-1.19.24-1.23.88,0,.45,0,1,0,2.34v5.62h-.53l-6-7.33v3.5c0,1.26,0,1.89.07,2.3,0,.72.38.93,1.39,1v.39H82.18v-.39c.87-.07,1.21-.28,1.26-1a23.1,23.1,0,0,0,.07-2.35V23.92a1.21,1.21,0,0,0-.28-.93c-.26-.35-.56-.43-1.24-.5V22.1h2.1l5.94,7V25.71c0-1.3,0-1.9-.07-2.32,0-.64-.37-.83-1.49-.9V22.1h3.46Z"/></g></svg>