<svg xmlns="http://www.w3.org/2000/svg" xmlns:xlink="http://www.w3.org/1999/xlink" width="102" height="56" viewBox="0 0 102 56"><defs><style>.cls-1{fill:url(#linear-gradient);}.cls-2{fill:#f9f9f9;}</style><linearGradient id="linear-gradient" x1="50.12" y1="50.71" x2="51.89" y2="4.08" gradientUnits="userSpaceOnUse"><stop offset="0" stop-color="#040404"/><stop offset="1" stop-color="#3fa9f5"/></linearGradient></defs><g id="Layer_5" data-name="Layer 5"><rect class="cls-1" x="1" y="3" width="100" height="49" rx="12"/><path class="cls-2" d="M22.53,24.3a4.94,4.94,0,0,0-.45-1.17c-.22-.38-.36-.47-1.13-.47h-1.4v6.82c0,1.09.11,1.25,1.44,1.33v.39H16.92v-.39c1.3-.08,1.41-.22,1.41-1.33V22.66H17.06c-.77,0-1,.08-1.24.5a6.15,6.15,0,0,0-.46,1.14h-.42c.08-.86.17-1.74.21-2.53h.32c.21.34.37.33.76.33h5.55a.7.7,0,0,0,.71-.33h.34c0,.66.05,1.67.12,2.48Z"/><path class="cls-2" d="M32.4,31.31l-.52,0a2.49,2.49,0,0,1-2.18-1.21c-.52-.71-1-1.6-1.47-2.31-.28-.45-.46-.53-1.18-.53h-.49v2.2c0,1.19.16,1.26,1.28,1.37v.39H24.1v-.39c1.16-.13,1.26-.18,1.26-1.37V23.85c0-1.19-.16-1.23-1.26-1.36V22.1h3.57a4,4,0,0,1,2.24.47,2.11,2.11,0,0,1,.95,1.85,2.59,2.59,0,0,1-1.81,2.41c.26.44.86,1.37,1.28,2a11.68,11.68,0,0,0,1.11,1.45,2,2,0,0,0,1,.64Zm-5.17-4.55a2.22,2.22,0,0,0,1.54-.41,1.94,1.94,0,0,0,.77-1.72,1.88,1.88,0,0,0-2.07-2,1.24,1.24,0,0,0-.74.14c-.13.1-.17.24-.17.6v3.43Z"/><path class="cls-2" d="M40.51,22.49c-1,.11-1.15.26-1.71,1.16s-1.15,2-1.84,3.24a1.55,1.55,0,0,0-.21.82v1.73c0,1.16.13,1.24,1.43,1.37v.39h-4v-.39c1.28-.17,1.38-.2,1.38-1.37V27.63a1.45,1.45,0,0,0-.28-.81c-.49-.91-1-1.8-1.73-3.11-.54-1-.68-1.12-1.64-1.22V22.1h3.45v.39c-1,.14-1,.32-.7.8.59,1.08,1.25,2.34,1.83,3.39.51-.94,1.31-2.47,1.7-3.24s.28-.84-.83-1V22.1h3.17Z"/><path class="cls-2" d="M48.49,31.2v-.39c.91-.11,1-.25.82-.79s-.46-1.24-.75-2.12h-3c-.22.63-.43,1.17-.63,1.75-.31.91-.11,1,1,1.16v.39H42.7v-.39c.88-.11,1.11-.21,1.6-1.47L47.2,22l.45-.08,2.73,7.47c.45,1.22.57,1.33,1.57,1.44v.39Zm-1.4-7.46-1.35,3.58h2.62Z"/><path class="cls-2" d="M61.56,27.38c-.86.11-.92.19-.92,1v1.18a7.72,7.72,0,0,0,.08,1.33,14.53,14.53,0,0,1-3.18.5c-3.18,0-5.11-2-5.11-4.79s2.41-4.72,5.21-4.72a14.48,14.48,0,0,1,2.92.35c0,.52.09,1.37.21,2.26l-.42.08c-.34-1.19-.75-1.69-1.63-2a4.8,4.8,0,0,0-1.3-.18c-2.15,0-3.53,1.47-3.53,4,0,2.23,1.15,4.44,3.86,4.44a2.76,2.76,0,0,0,1.19-.23.84.84,0,0,0,.48-.9V28.61c0-1-.11-1.13-1.46-1.23V27h3.6Z"/><path class="cls-2" d="M68,31.2v-.39c.91-.11,1-.25.82-.79s-.46-1.24-.75-2.12H65c-.22.63-.43,1.17-.63,1.75-.31.91-.11,1,1,1.16v.39H62.16v-.39c.88-.11,1.11-.21,1.6-1.47L66.66,22l.44-.08c.89,2.4,1.85,5,2.74,7.47.44,1.22.57,1.33,1.56,1.44v.39Zm-1.41-7.46c-.44,1.2-.92,2.47-1.34,3.58h2.62Z"/><path class="cls-2" d="M72,31.2v-.39c1.15-.13,1.26-.18,1.26-1.37V23.88c0-1.21-.11-1.26-1.26-1.39V22.1h3.75v.39c-1.16.13-1.27.18-1.27,1.39v5.56c0,1.2.11,1.24,1.27,1.37v.39Z"/><path class="cls-2" d="M86.81,22.49c-.9.1-1.19.24-1.24.88,0,.45,0,1,0,2.34v5.62H85L79,24v3.5c0,1.26,0,1.89.07,2.3,0,.72.38.93,1.39,1v.39h-3.4v-.39c.86-.07,1.2-.28,1.26-1,0-.45.07-1.08.07-2.35V23.92a1.25,1.25,0,0,0-.28-.93c-.27-.35-.56-.43-1.25-.5V22.1H79l5.94,7V25.71c0-1.3,0-1.9-.07-2.32,0-.64-.36-.83-1.48-.9V22.1h3.46Z"/></g></svg>