<svg xmlns="http://www.w3.org/2000/svg" xmlns:xlink="http://www.w3.org/1999/xlink" width="102" height="49" viewBox="0 0 102 49"><defs><style>.cls-1{fill:url(#linear-gradient);}.cls-2{fill:#fff;}.cls-3{fill:#f9f9f9;}</style><linearGradient id="linear-gradient" x1="50.19" y1="45.42" x2="51.82" y2="2.38" gradientUnits="userSpaceOnUse"><stop offset="0" stop-color="#040404"/><stop offset="1" stop-color="#3fa9f5"/></linearGradient></defs><g id="Layer_2" data-name="Layer 2"><rect class="cls-1" x="1.5" y="1.5" width="99" height="45" rx="11.5"/><path class="cls-2" d="M89,2a11,11,0,0,1,11,11V35A11,11,0,0,1,89,46H13A11,11,0,0,1,2,35V13A11,11,0,0,1,13,2H89m0-1H13A12,12,0,0,0,1,13V35A12,12,0,0,0,13,47H89a12,12,0,0,0,12-12V13A12,12,0,0,0,89,1Z"/><path class="cls-3" d="M34.27,27.08a4.53,4.53,0,0,1-.52,0,2.47,2.47,0,0,1-2.18-1.2c-.52-.72-1-1.6-1.48-2.31-.28-.45-.46-.53-1.17-.53h-.49V25.2c0,1.2.15,1.27,1.27,1.38V27H26v-.39c1.17-.13,1.26-.18,1.26-1.38V19.62c0-1.19-.15-1.24-1.26-1.36v-.4h3.57a4,4,0,0,1,2.25.48,2.11,2.11,0,0,1,.95,1.85,2.6,2.6,0,0,1-1.81,2.41c.25.43.86,1.37,1.28,2a13.7,13.7,0,0,0,1.1,1.45,2,2,0,0,0,1,.64ZM29.1,22.53a2.22,2.22,0,0,0,1.54-.41,1.94,1.94,0,0,0,.77-1.72,1.89,1.89,0,0,0-2.07-2,1.18,1.18,0,0,0-.74.15c-.13.09-.17.23-.17.6v3.43Z"/><path class="cls-3" d="M42.08,24.74c-.08.37-.46,1.81-.6,2.23H34.67v-.39c1.3-.1,1.4-.23,1.4-1.38V19.67c0-1.24-.15-1.32-1.2-1.41v-.4h4.28c1.32,0,1.87,0,2,0,0,.35.07,1.4.13,2.14l-.42.07A4.85,4.85,0,0,0,40.47,19c-.22-.47-.55-.56-1.39-.56H37.75c-.43,0-.46,0-.46.44V22h1.55c1.06,0,1.13-.21,1.29-1.16h.44v2.88h-.44c-.18-1-.29-1.15-1.3-1.15H37.29v2.79c0,1,.31,1.07,1,1.08h1.3c.86,0,1-.13,1.3-.49a5.93,5.93,0,0,0,.76-1.29Z"/><path class="cls-3" d="M46.67,17.86a4,4,0,0,1,2.37.61,2.37,2.37,0,0,1,.92,2,2.9,2.9,0,0,1-3.08,2.87,3.26,3.26,0,0,1-.38,0l-1-.25v2.18c0,1.18.09,1.21,1.38,1.35V27H43.06v-.39c1.2-.13,1.26-.21,1.26-1.38V19.64c0-1.24-.16-1.27-1.26-1.38v-.4Zm-1.13,4.7a2.56,2.56,0,0,0,1,.18,2,2,0,0,0,2.1-2.24,2,2,0,0,0-2.19-2.16,1.22,1.22,0,0,0-.78.17c-.11.1-.15.27-.15.64Z"/><path class="cls-3" d="M58.15,24.64c-.08.44-.5,1.9-.64,2.33H51v-.39c1.28-.13,1.39-.2,1.39-1.39V19.63c0-1.19-.14-1.26-1.26-1.37v-.4h3.75v.4c-1.12.11-1.27.17-1.27,1.37v5.7c0,.86.11,1.05.91,1.07h1.11c.71,0,.92-.08,1.24-.43a4.84,4.84,0,0,0,.86-1.45Z"/><path class="cls-3" d="M64.66,27v-.39c.91-.11,1-.25.83-.79s-.47-1.24-.76-2.13h-3c-.22.63-.43,1.18-.63,1.76-.3.91-.11,1,1,1.16V27H58.88v-.39c.88-.11,1.1-.21,1.59-1.47l2.9-7.36.45-.08c.88,2.39,1.85,5,2.73,7.46.45,1.22.58,1.34,1.57,1.45V27Zm-1.4-7.47c-.45,1.21-.93,2.48-1.35,3.59h2.62Z"/><path class="cls-3" d="M75.54,18.26c-1,.11-1.15.26-1.71,1.16s-1.15,2-1.83,3.24a1.46,1.46,0,0,0-.21.82V25.2c0,1.17.12,1.25,1.42,1.38V27h-4v-.39c1.28-.17,1.38-.2,1.38-1.38V23.4a1.45,1.45,0,0,0-.28-.81c-.49-.92-1-1.8-1.73-3.11-.54-1-.68-1.13-1.64-1.22v-.4h3.45v.4c-1,.14-1,.32-.7.8.59,1.07,1.25,2.33,1.84,3.39.5-.94,1.3-2.47,1.69-3.24s.28-.84-.83-.95v-.4h3.17Z"/></g></svg>