<svg xmlns="http://www.w3.org/2000/svg" xmlns:xlink="http://www.w3.org/1999/xlink" width="60" height="40" viewBox="0 0 60 40"><defs><style>.cls-1{fill:#0b0c0c;}.cls-2{fill:#525656;}.cls-3{fill:#565b5b;}.cls-4{fill:#0e0f0f;}.cls-5{fill:#ea1845;}.cls-6{fill:url(#radial-gradient);}.cls-7{fill:#877e81;}.cls-8{fill:#070102;}.cls-9{fill:#f2f2f2;}.cls-10{fill:#0c0f11;}.cls-11{fill:#f2f3f4;}.cls-12{fill:#c13e54;}.cls-13{fill:#0c0c0c;}.cls-14{fill:#c66073;}.cls-15{fill:url(#linear-gradient);}.cls-16{fill:url(#linear-gradient-2);}.cls-17{fill:#f9f9f9;}</style><radialGradient id="radial-gradient" cx="1630.09" cy="2871.01" r="46.61" gradientTransform="translate(-292.99 -622.29) scale(0.19 0.22)" gradientUnits="userSpaceOnUse"><stop offset="0.08" stop-color="#fff"/><stop offset="1" stop-color="#6ff"/></radialGradient><linearGradient id="linear-gradient" x1="47.06" y1="3.02" x2="46.94" y2="18.87" gradientUnits="userSpaceOnUse"><stop offset="0" stop-color="#42210b"/><stop offset="0.96" stop-color="#c69c6d"/><stop offset="1" stop-color="#fff"/></linearGradient><linearGradient id="linear-gradient-2" x1="47.57" y1="17.99" x2="47.43" y2="37.01" xlink:href="#linear-gradient"/></defs><g id="Layer_4" data-name="Layer 4"><ellipse class="cls-1" cx="9.04" cy="32.13" rx="4.67" ry="5.04"/><ellipse class="cls-2" cx="10" cy="31.23" rx="2.68" ry="3.48"/><ellipse class="cls-1" cx="9.98" cy="31.68" rx="1.66" ry="1.41" transform="translate(-22.57 38.34) rotate(-84.08)"/><path class="cls-1" d="M33.48,32.64c0,4.18-4.6,7.53-7.53,6-1.65-.88-3-3.49-3-5.94v0c0-2.5,2.2-6,5.28-6S33.44,29.73,33.48,32.64Z"/><ellipse class="cls-3" cx="29.67" cy="31.68" rx="4.25" ry="6.15"/><ellipse class="cls-4" cx="28.61" cy="30.13" rx="1.97" ry="2.79"/><path class="cls-5" d="M5.38,20.62Q5.2,8.05,5.46,8a0,0,0,0,1,0,0C5.48,4.71,7.6,2,10.2,2H25.57c2.59,0,4.71,2.74,4.71,6.08q0,6.24.1,12.47Z"/><path class="cls-5" d="M33.28,21.22c0,2.47-.12,5.28-.89,5.46s-1.21-1.89-2.7-2a1.32,1.32,0,0,0-.83.18c-1,.64-.95,2.72-1.09,3.48-.91,5.24-21,4.73-23.94.3A7.89,7.89,0,0,1,2.7,26.2a22.44,22.44,0,0,1-.24-4h0a11.82,11.82,0,0,1,3-7c.85-.95,2.76-2.61,12.09-2.52,7.4.08,12.28.2,14.45,4A12.13,12.13,0,0,1,33.28,21.22Z"/><path class="cls-6" d="M28.27,14.62h0a3,3,0,0,1-.79.66c-2.75,1.55-9.64,1.14-9.64,1.14C12,16.08,8.05,17,7,14.8a6.56,6.56,0,0,1-.44-1.26,13.19,13.19,0,0,1-.11-2.45c.07-1.31.2-3.9,1.78-5.7a5,5,0,0,1,3.32-1.68H23.87a5.21,5.21,0,0,1,3.31,1.68C29.29,7.7,29,11.24,28.93,12A9.45,9.45,0,0,1,28.27,14.62Z"/><path class="cls-7" d="M30.18,28.23c-5.63,4.1-13,4.38-13,4.38-.65,0-12.65.42-13.09-2.28a1.89,1.89,0,0,1,.14-1.14c.41-.74,1.5-.48,1.91-.39a64,64,0,0,0,11,1.29,14.35,14.35,0,0,0,2.7-.22c.51-.1.94-.21,1.34-.33a22.87,22.87,0,0,0,7.31-3.07c.73-.51,1.6-1.21,2.33-.81a1.18,1.18,0,0,1,.62.9C31.44,27.31,30.51,28,30.18,28.23Z"/><path class="cls-8" d="M4.31,18.82l-.42,1.07A11.15,11.15,0,0,0,7.6,23.05a8.94,8.94,0,0,0,3.43,1L11.45,23A10.54,10.54,0,0,1,8,21.87,12.68,12.68,0,0,1,4.31,18.82Z"/><path class="cls-9" d="M13.4,26.51c-.79,1.15-3.18.59-3.87-1.05a2.54,2.54,0,0,1,0-2A2.16,2.16,0,0,1,13,23.29,3.07,3.07,0,0,1,13.4,26.51Z"/><path class="cls-9" d="M13,28.48,11.34,27a.6.6,0,0,1-.1-.75h0a.39.39,0,0,1,.61-.13l1.69,1.46a.63.63,0,0,1,.1.75h0A.4.4,0,0,1,13,28.48Z"/><path class="cls-9" d="M14.3,27.55l-1.69-1.46a.63.63,0,0,1-.1-.75h0a.4.4,0,0,1,.62-.13l1.68,1.46a.6.6,0,0,1,.1.75h0A.39.39,0,0,1,14.3,27.55Z"/><path class="cls-9" d="M14.79,26.05l-1.68-1.46a.62.62,0,0,1-.11-.75h0a.4.4,0,0,1,.62-.13l1.68,1.46a.62.62,0,0,1,.11.75h0A.4.4,0,0,1,14.79,26.05Z"/><rect class="cls-9" x="11.45" y="22.36" width="2.95" height="1.08" rx="0.43"/><ellipse class="cls-10" cx="14.85" cy="8.69" rx="2.16" ry="4.08"/><ellipse class="cls-10" cx="20.45" cy="8.69" rx="2.16" ry="4.08"/><ellipse class="cls-11" cx="15.56" cy="9.2" rx="1.35" ry="1.65"/><ellipse class="cls-11" cx="19.64" cy="9.2" rx="1.35" ry="1.65"/><path class="cls-12" d="M20.91,17.49c-1.69,1.78-2.53,2.67-3.59,2.64-1.84-.06-3.09-2.51-4.33-4.92-.77-1.5-.65-1.82-.59-1.92.42-.71,2.4,1.14,5.36,1.38,3.2.26,5.27-1.55,5.61-.84S21.74,16.61,20.91,17.49Z"/><path class="cls-13" d="M17,12.86c.48.85,2.38.06,2.41.2s-2.28,1.4-2.83.5.68-2.72.73-2.69S16.57,12.19,17,12.86Z"/><path class="cls-14" d="M18.63,16.56a1.72,1.72,0,0,1,1,1.26c.09.94-1,1.8-1.86,2a2.24,2.24,0,0,1-2.7-1.06c-.3-.71-.26-1.84.24-2.18a1,1,0,0,1,1.18.3c.57.65.44,1.88.53,1.88s-.11-1.8.55-2.3C17.93,16.22,18.46,16.48,18.63,16.56Z"/><path class="cls-8" d="M23.59,23.62l.22,1.21a8.84,8.84,0,0,0,4-2.19,16.33,16.33,0,0,0,2.78-3.33l-.22-1.21a17.7,17.7,0,0,1-2.81,3.22A10.44,10.44,0,0,1,23.59,23.62Z"/><path class="cls-9" d="M20.21,25.23c.26-1.65,2.45-3.25,3.6-2.48a1.84,1.84,0,0,1,.72,1.63c-.07,1.5-1.62,3.38-2.88,3.22A2,2,0,0,1,20.21,25.23Z"/><path class="cls-9" d="M22.1,23.69l-1.89-.55a.52.52,0,0,1-.25-.67h0c.09-.29.34-.49.56-.42l1.89.55a.53.53,0,0,1,.25.67h0C22.57,23.57,22.32,23.76,22.1,23.69Z"/><path class="cls-9" d="M20.92,25.21,19,25.38c-.23,0-.38-.23-.34-.55h0c0-.32.25-.61.48-.63L21.06,24c.22,0,.38.23.34.55h0C21.36,24.91,21.14,25.19,20.92,25.21Z"/><path class="cls-9" d="M20.49,26.76l-1.91.35c-.22,0-.38-.19-.36-.52h0a.72.72,0,0,1,.46-.67l1.91-.35c.22,0,.38.2.36.52h0A.72.72,0,0,1,20.49,26.76Z"/><path class="cls-9" d="M21.8,27.85l-1.86.74c-.22.09-.4-.1-.41-.43h0a.85.85,0,0,1,.4-.76l1.86-.74c.22-.09.4.11.4.43h0A.83.83,0,0,1,21.8,27.85Z"/><rect class="cls-15" x="35" y="3" width="24" height="16"/><rect class="cls-16" x="46" y="18" width="3" height="19"/><path class="cls-17" d="M39.26,6.83c1.31,0,1.79,1.55,1.79,3s-.48,3-1.79,3-1.81-1.52-1.81-3S37.94,6.83,39.26,6.83Zm0,.33c-.8,0-1,1.35-1,2.63s.24,2.67,1,2.67,1-1.37,1-2.66S40,7.16,39.26,7.16Z"/><path class="cls-17" d="M42.1,12.67v-.26c1-.06,1-.11,1-.8V8.08c0-.47-.06-.48-.44-.52l-.43,0V7.28a6.34,6.34,0,0,0,1.59-.45v4.78c0,.7.05.74,1,.8v.26Z"/><path class="cls-17" d="M46.17,13.25h-.48L48,6.52h.49Z"/><path class="cls-17" d="M49.47,12.67v-.26c1-.06,1-.11,1-.8V8.08c0-.47-.07-.48-.45-.52l-.42,0V7.28a6.59,6.59,0,0,0,1.59-.45v4.78c0,.7,0,.74,1,.8v.26Z"/><path class="cls-17" d="M55,6.83c1.3,0,1.79,1.55,1.79,3s-.49,3-1.79,3-1.82-1.52-1.82-3S53.64,6.83,55,6.83Zm0,.33c-.81,0-1,1.35-1,2.63s.24,2.67,1,2.67,1-1.37,1-2.66S55.73,7.16,55,7.16Z"/></g></svg>