<svg xmlns="http://www.w3.org/2000/svg" width="55" height="49" viewBox="0 0 55 49"><defs><style>.cls-1{fill:#1998d8;}.cls-2{fill:#fafbfc;}</style></defs><g id="Layer_3" data-name="Layer 3"><rect class="cls-1" x="6" y="4" width="42" height="42" rx="12"/><circle class="cls-2" cx="26.5" cy="24.5" r="10.5"/><circle class="cls-1" cx="26.5" cy="24.5" r="6.5"/><rect class="cls-2" x="27" y="11" width="2" height="4"/><rect class="cls-2" x="32" y="13" width="2" height="4" transform="translate(20.27 -18.94) rotate(45)"/><rect class="cls-2" x="37" y="22" width="2" height="4" transform="translate(62 -14) rotate(90)"/><rect class="cls-2" x="27" y="34" width="2" height="4"/><rect class="cls-2" x="14" y="22" width="2" height="4" transform="translate(39 9) rotate(90)"/><rect class="cls-2" x="35.13" y="16.7" width="2" height="4" transform="translate(36.46 -21.98) rotate(63.1)"/><rect class="cls-2" x="16.13" y="28.7" width="2" height="4" transform="translate(36.76 1.54) rotate(63.1)"/><rect class="cls-2" x="20.13" y="32.7" width="2" height="4" transform="translate(20.18 -5.92) rotate(30)"/><rect class="cls-2" x="36" y="27.11" width="2" height="4" transform="translate(78.94 7.75) rotate(114.83)"/><rect class="cls-2" x="33" y="31.11" width="2" height="4" transform="translate(81.35 30.12) rotate(132.16)"/><rect class="cls-2" x="21" y="12.11" width="2" height="4" transform="translate(47.99 16.73) rotate(153.1)"/><rect class="cls-2" x="16" y="16.11" width="2" height="4" transform="translate(41.82 18.89) rotate(135)"/></g></svg>