<svg xmlns="http://www.w3.org/2000/svg" width="55" height="49" viewBox="0 0 55 49"><defs><style>.cls-1{fill:#1998d8;}.cls-2{fill:#f5f6f7;}</style></defs><g id="Layer_3" data-name="Layer 3"><rect class="cls-1" x="6" y="4" width="42" height="42" rx="12"/><rect class="cls-2" x="14" y="22" width="10" height="6"/><path class="cls-2" d="M29,34,18,28V22l11-6V34Z"/><path class="cls-2" d="M34,32H33a10.46,10.46,0,0,0,2-6.32A10.66,10.66,0,0,0,33,20h1a10.66,10.66,0,0,1,2,5.68A10.46,10.46,0,0,1,34,32Z"/><path class="cls-2" d="M31.7,31h-1a7.81,7.81,0,0,0,2-5.26,8,8,0,0,0-2-4.74h1a8,8,0,0,1,2,4.74A7.81,7.81,0,0,1,31.7,31Z"/><path class="cls-2" d="M36.7,33h-1a13.22,13.22,0,0,0,0-14h1a13.22,13.22,0,0,1,0,14Z"/></g></svg>