<svg xmlns="http://www.w3.org/2000/svg" xmlns:xlink="http://www.w3.org/1999/xlink" width="1920" height="1080" viewBox="0 0 1920 1080"><defs><style>.cls-1{fill:url(#radial-gradient);}.cls-2{fill:#0b0c0c;}.cls-3{fill:#525656;}.cls-4{fill:#565b5b;}.cls-5{fill:#0e0f0f;}.cls-6{fill:#ea1845;}.cls-7{fill:url(#radial-gradient-2);}.cls-8{fill:#877e81;}.cls-9{fill:#070102;}.cls-10{fill:#f2f2f2;}.cls-11{fill:#0c0f11;}.cls-12{fill:#f2f3f4;}.cls-13{fill:#c13e54;}.cls-14{fill:#0c0c0c;}.cls-15{fill:#c66073;}</style><radialGradient id="radial-gradient" cx="960" cy="540" r="778.85" gradientUnits="userSpaceOnUse"><stop offset="0" stop-color="#fff"/><stop offset="1" stop-color="#9df4c4"/></radialGradient><radialGradient id="radial-gradient-2" cx="4813.86" cy="5093.89" r="46.61" gradientTransform="translate(-18140.21 -18135.09) scale(3.85 3.67)" gradientUnits="userSpaceOnUse"><stop offset="0.08" stop-color="#fff"/><stop offset="1" stop-color="#6ff"/></radialGradient></defs><g id="Layer_2" data-name="Layer 2"><rect class="cls-1" width="1920" height="1080"/></g><g id="Layer_1" data-name="Layer 1"><ellipse class="cls-2" cx="201.99" cy="945.49" rx="94.25" ry="84.01"/><ellipse class="cls-3" cx="221.34" cy="930.49" rx="54.07" ry="58.01"/><ellipse class="cls-2" cx="220.84" cy="937.99" rx="28.8" ry="27.48" transform="translate(-340.01 154.38) rotate(-22.34)"/><path class="cls-2" d="M695.07,954c.91,69.59-92.74,125.5-151.79,99.51-33.46-14.73-61.39-58.22-61.51-99V954c.18-41.79,44.48-99.52,106.65-99.52C647.71,854.48,694.44,905.38,695.07,954Z"/><ellipse class="cls-4" cx="618.18" cy="937.99" rx="85.82" ry="102.51"/><ellipse class="cls-5" cx="596.85" cy="911.99" rx="39.68" ry="46.51"/><path class="cls-6" d="M128.12,753.47q-3.72-209.67,1.61-209.93a.54.54,0,0,1,.4.26c0-55.76,42.8-101.38,95.12-101.38H535.44c52.32,0,95.13,45.62,95.13,101.38q1,104,2,208Z"/><path class="cls-6" d="M691.1,763.47c0,41.14-2.35,88-17.86,91-13.8,2.67-24.58-31.49-54.56-33-3.43-.18-10.15-.52-16.87,3-20.33,10.63-19.14,45.34-21.82,58-18.52,87.46-423.9,78.87-483.16,5-18.18-22.67-22.82-41-22.82-41-4.86-19.22-5-48.39-5-66h0c5.37-66,51.67-108.75,59.53-116,17.25-15.93,55.69-43.51,244.06-42,149.39,1.19,247.84,3.28,291.68,67C687.25,722.79,691.1,763.47,691.1,763.47Z"/><path class="cls-7" d="M589.91,653.45h0a61.62,61.62,0,0,1-15.88,11c-55.44,25.8-194.45,19-194.45,19-118-5.77-197.62,8.77-219.25-27-5.65-9.33-8.93-21-8.93-21a182.63,182.63,0,0,1-2.11-40.88c1.34-22,4-65.17,35.89-95.09,23.39-21.92,51.94-26.81,66.92-28.05h249c13.51,1.17,42.31,5.78,66.92,28.05,42.53,38.5,36.9,97.48,35.32,110A136.86,136.86,0,0,1,589.91,653.45Z"/><path class="cls-8" d="M628.56,880.33c-113.63,68.4-262.7,73-262.7,73-13.2.41-255.37,7-264.26-38-2.28-11.55,2.73-19,2.73-19,8.3-12.3,30.27-8.09,38.54-6.56,70.9,13.11,175.25,21.55,221.29,21.5a346.63,346.63,0,0,0,54.49-3.68c10.25-1.57,19.07-3.46,27.07-5.4,57.18-13.86,101.41-24.59,147.47-51.19,14.73-8.51,32.34-20.2,47.1-13.61,5.81,2.59,11.92,8.35,12.52,15.14C653.9,865.07,635.25,876.29,628.56,880.33Z"/><path class="cls-9" d="M106.42,723.41,98,741.22a218.39,218.39,0,0,0,74.79,52.85,215.71,215.71,0,0,0,69.3,16.64q4.23-8.9,8.45-17.8a246.68,246.68,0,0,1-144.09-69.5Z"/><path class="cls-10" d="M289.89,851.68c-16,19.24-64.23,9.82-78.19-17.49-4.52-8.86-7-22.62-.63-33.24,11.82-19.74,51-23.55,71.21-3C296.58,812.46,300.75,838.61,289.89,851.68Z"/><path class="cls-10" d="M282.29,884.58l-34-24.33a9.08,9.08,0,0,1-2.11-12.55h0a8.91,8.91,0,0,1,12.45-2.13l34,24.33a9.08,9.08,0,0,1,2.11,12.55h0A8.91,8.91,0,0,1,282.29,884.58Z"/><path class="cls-10" d="M308,869,274,844.7a9.06,9.06,0,0,1-2.11-12.55h0A8.91,8.91,0,0,1,284.38,830l34,24.33a9.08,9.08,0,0,1,2.11,12.55h0A8.91,8.91,0,0,1,308,869Z"/><path class="cls-10" d="M317.93,844,284,819.7a9.08,9.08,0,0,1-2.11-12.56h0A8.91,8.91,0,0,1,294.3,805l34,24.33a9.08,9.08,0,0,1,2.11,12.55h0A8.91,8.91,0,0,1,317.93,844Z"/><rect class="cls-10" x="250.61" y="782.47" width="59.53" height="18" rx="0.43"/><ellipse class="cls-11" cx="319.06" cy="554.44" rx="43.65" ry="68.01"/><ellipse class="cls-11" cx="432.16" cy="554.44" rx="43.65" ry="68.01"/><ellipse class="cls-12" cx="333.45" cy="562.94" rx="27.28" ry="27.5"/><ellipse class="cls-12" cx="415.79" cy="562.94" rx="27.28" ry="27.5"/><path class="cls-13" d="M441.42,701.24c-34,29.69-51,44.54-72.43,44-37.11-.92-62.4-41.78-87.3-82-15.54-25.1-13.13-30.29-11.91-32,8.46-11.86,48.41,19,108.14,23,64.65,4.36,106.38-25.81,113.1-14S458.22,686.57,441.42,701.24Z"/><path class="cls-14" d="M361.59,624c9.67,14.19,48.08,1.09,48.55,3.28.52,2.44-46,23.5-57.11,8.41-9.7-13.17,13.85-45.36,14.84-44.91C368.68,591.15,354,612.81,361.59,624Z"/><path class="cls-15" d="M395.46,685.79c7.45,3,18.72,10.64,19.84,21,1.68,15.57-20.32,29.9-37.7,34-18.3,4.32-45.12.5-54.42-17.73-6-11.79-5.21-30.6,4.81-36.28,6.95-3.92,17.52-.84,23.81,5,11.6,10.77,9,31.26,10.68,31.23,2,0-2.14-30,11.15-38.23C381.32,680,392,684.37,395.46,685.79Z"/><path class="cls-9" d="M495.57,803.51l4.4,20.14c17-3.08,46.38-11.34,80.33-36.48,25.13-18.61,43.93-39.93,56.12-55.59q-2.2-10.07-4.4-20.14c-13.22,15.75-32.27,35.8-56.81,53.72C542.41,789.12,513.87,799,495.57,803.51Z"/><path class="cls-10" d="M427.33,830.4c5.23-27.53,49.49-54.28,72.67-41.49a29.13,29.13,0,0,1,14.55,27.3c-1.53,25-32.67,56.28-58.18,53.63C438.29,868,423.78,849.11,427.33,830.4Z"/><path class="cls-10" d="M465.39,804.69l-38.1-9.24c-4.49-1.09-6.75-6.07-5-11.06h0c1.73-5,6.82-8.19,11.31-7.1l38.1,9.24c4.49,1.09,6.75,6.07,5,11.07h0C475,802.59,469.88,805.78,465.39,804.69Z"/><path class="cls-10" d="M441.62,830l-38.69,2.87c-4.56.33-7.67-3.8-6.9-9.19h0c.77-5.39,5.13-10.07,9.69-10.41l38.7-2.87c4.56-.34,7.66,3.79,6.89,9.18h0C450.54,824.94,446.18,829.63,441.62,830Z"/><path class="cls-10" d="M433,855.84l-38.49,5.83c-4.54.68-7.82-3.2-7.3-8.64h0c.53-5.44,4.67-10.45,9.21-11.14l38.5-5.82c4.53-.69,7.82,3.2,7.29,8.64h0C441.69,850.15,437.55,855.16,433,855.84Z"/><path class="cls-10" d="M459.38,874.06l-37.57,12.4c-4.43,1.46-8.08-1.83-8.1-7.31h0c0-5.48,3.57-11.16,8-12.62l37.57-12.4c4.42-1.46,8.07,1.83,8.1,7.31h0C467.41,866.92,463.81,872.6,459.38,874.06Z"/></g></svg>