<svg xmlns="http://www.w3.org/2000/svg" xmlns:xlink="http://www.w3.org/1999/xlink" width="1920" height="1080" viewBox="0 0 1920 1080"><defs><style>.cls-1{fill:url(#radial-gradient);}.cls-2{fill:#0b0c0c;}.cls-3{fill:#525656;}.cls-4{fill:#565b5b;}.cls-5{fill:#0e0f0f;}.cls-6{fill:#ea1845;}.cls-7{fill:url(#radial-gradient-2);}.cls-8{fill:#877e81;}.cls-9{fill:#070102;}.cls-10{fill:#f2f2f2;}.cls-11{fill:#0c0f11;}.cls-12{fill:#f2f3f4;}.cls-13{fill:#c13e54;}.cls-14{fill:#0c0c0c;}.cls-15{fill:#c66073;}.cls-16{fill:#0f1d84;}.cls-17{fill:#0e4751;}</style><radialGradient id="radial-gradient" cx="960" cy="540" r="778.85" gradientUnits="userSpaceOnUse"><stop offset="0" stop-color="#fff"/><stop offset="1" stop-color="#9df4c4"/></radialGradient><radialGradient id="radial-gradient-2" cx="4838.82" cy="5088.17" r="46.61" gradientTransform="translate(-18140.21 -18135.09) scale(3.85 3.67)" gradientUnits="userSpaceOnUse"><stop offset="0.08" stop-color="#fff"/><stop offset="1" stop-color="#6ff"/></radialGradient></defs><g id="Layer_2" data-name="Layer 2"><rect class="cls-1" width="1920" height="1080"/></g><g id="Layer_1" data-name="Layer 1"><ellipse class="cls-2" cx="297.99" cy="924.49" rx="94.25" ry="84.01"/><ellipse class="cls-3" cx="317.34" cy="909.49" rx="54.07" ry="58.01"/><ellipse class="cls-2" cx="316.84" cy="916.99" rx="28.8" ry="27.48" transform="translate(-324.82 189.3) rotate(-22.34)"/><path class="cls-2" d="M791.07,933c.91,69.59-92.74,125.5-151.79,99.51-33.46-14.73-61.39-58.22-61.51-99V933c.18-41.79,44.48-99.52,106.65-99.52C743.71,833.48,790.44,884.38,791.07,933Z"/><ellipse class="cls-4" cx="714.18" cy="916.99" rx="85.82" ry="102.51"/><ellipse class="cls-5" cx="692.85" cy="890.99" rx="39.68" ry="46.51"/><path class="cls-6" d="M224.12,732.47q-3.72-209.67,1.61-209.93a.54.54,0,0,1,.4.26c0-55.76,42.8-101.38,95.12-101.38H631.44c52.32,0,95.13,45.62,95.13,101.38q1,104,2,208Z"/><path class="cls-6" d="M787.1,742.47c0,41.14-2.35,88-17.86,91-13.8,2.67-24.58-31.49-54.56-33-3.43-.18-10.15-.52-16.87,3-20.33,10.63-19.14,45.34-21.82,58-18.52,87.46-423.9,78.87-483.16,5-18.18-22.67-22.82-41-22.82-41-4.86-19.22-5-48.39-5-66h0c5.37-66,51.67-108.75,59.53-116,17.25-15.93,55.69-43.51,244.06-42,149.39,1.19,247.84,3.28,291.68,67C783.25,701.79,787.1,742.47,787.1,742.47Z"/><path class="cls-7" d="M685.91,632.45h0a61.62,61.62,0,0,1-15.88,11c-55.44,25.8-194.45,19-194.45,19-118-5.77-197.62,8.77-219.25-27-5.65-9.33-8.93-21-8.93-21a182.63,182.63,0,0,1-2.11-40.88c1.34-22,4-65.17,35.89-95.09,23.39-21.92,51.94-26.81,66.92-28.05h249c13.51,1.17,42.31,5.78,66.92,28.05,42.53,38.5,36.9,97.48,35.32,110A136.86,136.86,0,0,1,685.91,632.45Z"/><path class="cls-8" d="M724.56,859.33c-113.63,68.4-262.7,73-262.7,73-13.2.41-255.37,7-264.26-38-2.28-11.55,2.73-19,2.73-19,8.3-12.3,30.27-8.09,38.54-6.56,70.9,13.11,175.25,21.55,221.29,21.5a346.63,346.63,0,0,0,54.49-3.68c10.25-1.57,19.07-3.46,27.07-5.4,57.18-13.86,101.41-24.59,147.47-51.19,14.73-8.51,32.34-20.2,47.1-13.61,5.81,2.59,11.92,8.35,12.52,15.14C749.9,844.07,731.25,855.29,724.56,859.33Z"/><path class="cls-9" d="M202.42,702.41,194,720.22a218.39,218.39,0,0,0,74.79,52.85,215.71,215.71,0,0,0,69.3,16.64q4.23-8.9,8.45-17.8a246.68,246.68,0,0,1-144.09-69.5Z"/><path class="cls-10" d="M385.89,830.68c-16,19.24-64.23,9.82-78.19-17.49-4.52-8.86-7-22.62-.63-33.24,11.82-19.74,51-23.55,71.21-3C392.58,791.46,396.75,817.61,385.89,830.68Z"/><path class="cls-10" d="M378.29,863.58l-34-24.33a9.08,9.08,0,0,1-2.11-12.55h0a8.91,8.91,0,0,1,12.45-2.13l34,24.33a9.08,9.08,0,0,1,2.11,12.55h0A8.91,8.91,0,0,1,378.29,863.58Z"/><path class="cls-10" d="M404,848,370,823.7a9.06,9.06,0,0,1-2.11-12.55h0A8.91,8.91,0,0,1,380.38,809l34,24.33a9.08,9.08,0,0,1,2.11,12.55h0A8.91,8.91,0,0,1,404,848Z"/><path class="cls-10" d="M413.93,823,380,798.7a9.08,9.08,0,0,1-2.11-12.56h0A8.91,8.91,0,0,1,390.3,784l34,24.33a9.08,9.08,0,0,1,2.11,12.55h0A8.91,8.91,0,0,1,413.93,823Z"/><rect class="cls-10" x="346.61" y="761.47" width="59.53" height="18" rx="0.43"/><ellipse class="cls-11" cx="415.06" cy="533.44" rx="43.65" ry="68.01"/><ellipse class="cls-11" cx="528.16" cy="533.44" rx="43.65" ry="68.01"/><ellipse class="cls-12" cx="429.45" cy="541.94" rx="27.28" ry="27.5"/><ellipse class="cls-12" cx="511.79" cy="541.94" rx="27.28" ry="27.5"/><path class="cls-13" d="M537.42,680.24c-34,29.69-51,44.54-72.43,44-37.11-.92-62.4-41.78-87.3-82-15.54-25.1-13.13-30.29-11.91-32,8.46-11.86,48.41,19,108.14,23,64.65,4.36,106.38-25.81,113.1-14S554.22,665.57,537.42,680.24Z"/><path class="cls-14" d="M457.59,603c9.67,14.19,48.08,1.09,48.55,3.28.52,2.44-46,23.5-57.11,8.41-9.7-13.17,13.85-45.36,14.84-44.91C464.68,570.15,450,591.81,457.59,603Z"/><path class="cls-15" d="M491.46,664.79c7.45,3,18.72,10.64,19.84,21,1.68,15.57-20.32,29.9-37.7,34-18.3,4.32-45.12.5-54.42-17.73-6-11.79-5.21-30.6,4.81-36.28,6.95-3.92,17.52-.84,23.81,5,11.6,10.77,9,31.26,10.68,31.23,2,0-2.14-30,11.15-38.23C477.32,659,488,663.37,491.46,664.79Z"/><path class="cls-9" d="M591.57,782.51l4.4,20.14c17-3.08,46.38-11.34,80.33-36.48,25.13-18.61,43.93-39.93,56.12-55.59q-2.2-10.07-4.4-20.14c-13.22,15.75-32.27,35.8-56.81,53.72C638.41,768.12,609.87,778,591.57,782.51Z"/><path class="cls-10" d="M523.33,809.4c5.23-27.53,49.49-54.28,72.67-41.49a29.13,29.13,0,0,1,14.55,27.3c-1.53,25-32.67,56.28-58.18,53.63C534.29,847,519.78,828.11,523.33,809.4Z"/><path class="cls-10" d="M561.39,783.69l-38.1-9.24c-4.49-1.09-6.75-6.07-5-11.06h0c1.73-5,6.82-8.19,11.31-7.1l38.1,9.24c4.49,1.09,6.75,6.07,5,11.07h0C571,781.59,565.88,784.78,561.39,783.69Z"/><path class="cls-10" d="M537.62,809l-38.69,2.87c-4.56.33-7.67-3.8-6.9-9.19h0c.77-5.39,5.13-10.07,9.69-10.41l38.7-2.87c4.56-.34,7.66,3.79,6.89,9.18h0C546.54,803.94,542.18,808.63,537.62,809Z"/><path class="cls-10" d="M529,834.84l-38.49,5.83c-4.54.68-7.82-3.2-7.3-8.64h0c.53-5.44,4.67-10.45,9.21-11.14l38.5-5.82c4.53-.69,7.82,3.2,7.29,8.64h0C537.69,829.15,533.55,834.16,529,834.84Z"/><path class="cls-10" d="M555.38,853.06l-37.57,12.4c-4.43,1.46-8.08-1.83-8.1-7.31h0c0-5.48,3.57-11.16,8-12.62l37.57-12.4c4.42-1.46,8.07,1.83,8.1,7.31h0C563.41,845.92,559.81,851.6,555.38,853.06Z"/><path class="cls-16" d="M921.47,566H937.4v18h17.4V566h16v51.54h-16V596.7H937.4v20.85H921.47Z"/><path class="cls-16" d="M981.35,566H1024v11H997.31v8.19h24.78v10.51H997.31v10.16h27.49v11.67H981.35Z"/><path class="cls-16" d="M1033.38,566h15.92v38.85h24.86v12.69h-40.78Z"/><path class="cls-16" d="M1081.33,566h26.47q8.65,0,13,4.11t4.3,11.71q0,7.81-4.69,12.2t-14.33,4.4h-8.71v19.12h-16Zm16,22h3.9q4.61,0,6.47-1.6a5.14,5.14,0,0,0,1.86-4.09,5.7,5.7,0,0,0-1.62-4.11q-1.61-1.7-6.08-1.69h-4.53Z"/><path class="cls-16" d="M1157.48,566h15.92v19.48L1190.09,566h21.18l-18.81,19.46,19.65,32.08H1192.5l-10.87-21.19L1173.4,605v12.58h-15.92Z"/><path class="cls-16" d="M1249.07,609H1231l-2.51,8.51h-16.26L1231.59,566H1249l19.37,51.54h-16.68Zm-3.3-11.14-5.69-18.53-5.63,18.53Z"/><path class="cls-16" d="M1264.81,566h48.41v12.73H1297v38.81h-15.93V578.74h-16.24Z"/><path class="cls-16" d="M1316.81,566h48.41v12.73H1349v38.81h-15.92V578.74h-16.24Z"/><path class="cls-16" d="M1367.22,566h17.69l10.38,17.39L1405.7,566h17.59l-20,30v21.59h-16V596Z"/><path class="cls-16" d="M1427.51,566h15.3v11.74l-3,23.59h-9.45l-2.89-23.59Zm.53,38.92h14.27v12.62H1428Z"/><path class="cls-17" d="M316.61,109.32H354l13.48,49.86,19.72-49.86h37.3l19.77,49.79,13.49-49.79H495l-28.12,89.06H428.28l-22.37-56.07-22.28,56.07H345Z"/><path class="cls-17" d="M507.83,109.32H613.44v19H547.32v14.16h61.33v18.17H547.32v17.55h68v20.17H507.83Z"/><path class="cls-17" d="M636.58,109.32H676v67.13h61.5v21.93H636.58Z"/><path class="cls-17" d="M837.28,161.93l34.54,7.29a39.93,39.93,0,0,1-11,16.95,48.59,48.59,0,0,1-18.57,10.27q-11.09,3.47-28.23,3.46-20.79,0-34-4.22a51.17,51.17,0,0,1-22.75-14.84q-9.57-10.62-9.57-27.2,0-22.09,16.83-34t47.63-11.87q24.1,0,37.89,6.8a43.47,43.47,0,0,1,20.49,20.9l-34.8,5.41A18.62,18.62,0,0,0,832,135a22.23,22.23,0,0,0-8.09-4.86,31.65,31.65,0,0,0-10.7-1.7q-13.39,0-20.53,7.52-5.4,5.58-5.39,17.54,0,14.81,6.43,20.29t18.1,5.5q11.31,0,17.09-4.44T837.28,161.93Z"/><path class="cls-17" d="M886,153.91q0-21.81,17.39-34t48.46-12.15q31.85,0,49.07,11.94t17.22,33.44q0,15.62-7.52,25.61t-21.75,15.55q-14.24,5.57-35.45,5.56-21.58,0-35.71-4.8a50.55,50.55,0,0,1-22.93-15.19Q886,169.53,886,153.91Zm39.4.12q0,13.5,7.18,19.38t19.53,5.9q12.71,0,19.66-5.77t7-20.72q0-12.58-7.26-18.38t-19.71-5.8q-11.91,0-19.13,5.89T925.4,154Z"/><path class="cls-17" d="M1038.93,109.32h51.83l20,54.19,19.84-54.19h51.8v89.06h-32.27V130.46l-24.87,67.92H1096l-24.82-67.92v67.92h-32.28Z"/><path class="cls-17" d="M1207.44,109.32h105.62v19h-66.12v14.16h61.33v18.17h-61.33v17.55h68v20.17H1207.44Z"/><path class="cls-17" d="M1386.66,109.32h119.79v22h-40.19v67.07h-39.41V131.31h-40.19Z"/><path class="cls-17" d="M1513.23,153.91q0-21.81,17.4-34t48.46-12.15q31.85,0,49.06,11.94t17.23,33.44q0,15.62-7.52,25.61t-21.75,15.55q-14.23,5.57-35.46,5.56-21.57,0-35.71-4.8A50.57,50.57,0,0,1,1522,179.91Q1513.23,169.53,1513.23,153.91Zm39.41.12q0,13.5,7.18,19.38t19.53,5.9q12.7,0,19.66-5.77t7-20.72q0-12.58-7.26-18.38t-19.71-5.8q-11.91,0-19.14,5.89T1552.64,154Z"/><path class="cls-17" d="M330.27,347.69V258.63H396q18.27,0,27.93,2.18a31.21,31.21,0,0,1,15.57,8.12,19.63,19.63,0,0,1,5.91,14.42,19.23,19.23,0,0,1-4.52,12.79,32.31,32.31,0,0,1-12.45,8.72,61.75,61.75,0,0,1-13.84,3.52,49.23,49.23,0,0,1,10.26,3.29,35.56,35.56,0,0,1,6.3,4.68,38.37,38.37,0,0,1,5.52,5.53l19.09,25.81H411.19l-21.07-27.22q-4-5.28-7.13-6.86a21.82,21.82,0,0,0-9.66-2.07h-3.48v36.15Zm39.58-53h16.62a84,84,0,0,0,10.44-1.22,11.66,11.66,0,0,0,6.39-2.79,6.82,6.82,0,0,0,2.48-5.17,7.29,7.29,0,0,0-3.91-6.62q-3.92-2.31-14.71-2.31H369.85Z"/><path class="cls-17" d="M468.24,258.63H573.86v19H507.74V291.8h61.33V310H507.74v17.56h68v20.17H468.24Z"/><path class="cls-17" d="M596.82,258.63h65.51q21.4,0,32.06,7.11T705,286q0,13.48-11.61,21.08T658,314.64H636.4v33.05H596.82Zm39.58,38h9.66q11.4,0,16-2.77t4.61-7.07q0-4.2-4-7.11t-15-2.92H636.4Z"/><path class="cls-17" d="M788.93,333H744.19L738,347.69H697.74l47.93-89.06h43l47.92,89.06H795.31Zm-8.17-19.26-14.08-32-13.93,32Z"/><path class="cls-17" d="M850.68,258.63h39.49v89.06H850.68Z"/><path class="cls-17" d="M919,347.69V258.63h65.68q18.27,0,27.92,2.18a31.2,31.2,0,0,1,15.58,8.12,19.63,19.63,0,0,1,5.91,14.42,19.23,19.23,0,0,1-4.52,12.79,32.31,32.31,0,0,1-12.45,8.72,61.75,61.75,0,0,1-13.84,3.52,49.23,49.23,0,0,1,10.26,3.29,35.56,35.56,0,0,1,6.3,4.68,38.37,38.37,0,0,1,5.52,5.53l19.08,25.81H999.88l-21.06-27.22q-4-5.28-7.13-6.86a21.88,21.88,0,0,0-9.66-2.07h-3.48v36.15Zm39.58-53h16.62a84,84,0,0,0,10.44-1.22,11.69,11.69,0,0,0,6.39-2.79,6.82,6.82,0,0,0,2.48-5.17,7.3,7.3,0,0,0-3.92-6.62c-2.6-1.54-7.51-2.31-14.7-2.31H958.55Z"/><path class="cls-17" d="M1201.36,311.24l34.53,7.29a40,40,0,0,1-11,17,48.74,48.74,0,0,1-18.57,10.27q-11.1,3.47-28.23,3.46-20.79,0-34-4.22a51.17,51.17,0,0,1-22.75-14.84q-9.57-10.63-9.57-27.2,0-22.11,16.83-34t47.63-11.87q24.1,0,37.89,6.8a43.41,43.41,0,0,1,20.48,20.9l-34.79,5.41a18.79,18.79,0,0,0-3.83-6,22.31,22.31,0,0,0-8.09-4.86,31.65,31.65,0,0,0-10.7-1.71q-13.4,0-20.53,7.53-5.4,5.58-5.4,17.54,0,14.81,6.44,20.29t18.1,5.49q11.3,0,17.09-4.43T1201.36,311.24Z"/><path class="cls-17" d="M1333.44,333H1288.7l-6.22,14.7h-40.24l47.94-89.06h43l47.93,89.06h-41.27Zm-8.18-19.26-14.07-32-13.93,32Z"/><path class="cls-17" d="M1394.14,347.69V258.63h65.68q18.27,0,27.92,2.18a31.2,31.2,0,0,1,15.58,8.12,19.63,19.63,0,0,1,5.91,14.42,19.23,19.23,0,0,1-4.52,12.79,32.31,32.31,0,0,1-12.45,8.72,61.75,61.75,0,0,1-13.84,3.52,49.23,49.23,0,0,1,10.26,3.29,35.56,35.56,0,0,1,6.3,4.68,38.37,38.37,0,0,1,5.52,5.53l19.08,25.81h-44.53L1454,320.47q-4-5.28-7.13-6.86a21.88,21.88,0,0,0-9.66-2.07h-3.48v36.15Zm39.58-53h16.62a84,84,0,0,0,10.44-1.22,11.69,11.69,0,0,0,6.39-2.79,6.82,6.82,0,0,0,2.48-5.17,7.3,7.3,0,0,0-3.92-6.62q-3.92-2.31-14.7-2.31h-17.31Z"/><path class="cls-17" d="M1525.33,318.23l37.49-1.64q1.22,6.38,5,9.72,6.09,5.4,17.4,5.4,8.43,0,13-2.76t4.56-6.41c0-2.31-1.45-4.37-4.35-6.2s-9.62-3.54-20.18-5.16q-25.92-4.06-37-10.81t-11.14-17.2q0-6.85,5.7-13t17.14-9.6q11.43-3.5,31.36-3.49,24.45,0,37.28,6.35t15.27,20.2l-37.15,1.52a13.2,13.2,0,0,0-6.22-8.75q-4.74-2.73-13.1-2.74-6.87,0-10.35,2t-3.48,4.95q0,2.13,2.87,3.83t13.23,3.28q25.83,3.88,37,7.87t16.27,9.87a19.68,19.68,0,0,1,5.09,13.18q0,8.57-6.79,15.8t-19,11q-12.18,3.75-30.71,3.74-32.53,0-45.06-8.75T1525.33,318.23Z"/></g></svg>