<svg xmlns="http://www.w3.org/2000/svg" xmlns:xlink="http://www.w3.org/1999/xlink" width="1920" height="1080" viewBox="0 0 1920 1080"><defs><style>.cls-1{fill:url(#radial-gradient);}.cls-2{fill:#0b0c0c;}.cls-3{fill:#525656;}.cls-4{fill:#565b5b;}.cls-5{fill:#0e0f0f;}.cls-6{fill:#ea1845;}.cls-7{fill:url(#radial-gradient-2);}.cls-8{fill:#877e81;}.cls-9{fill:#070102;}.cls-10{fill:#f2f2f2;}.cls-11{fill:#0c0f11;}.cls-12{fill:#f2f3f4;}.cls-13{fill:#c13e54;}.cls-14{fill:#0c0c0c;}.cls-15{fill:#c66073;}.cls-16{fill:#0071bc;}.cls-17{fill:#0e4751;}</style><radialGradient id="radial-gradient" cx="960" cy="540" r="778.85" gradientUnits="userSpaceOnUse"><stop offset="0" stop-color="#fff"/><stop offset="1" stop-color="#9df4c4"/></radialGradient><radialGradient id="radial-gradient-2" cx="3505.85" cy="5096.88" r="46.61" gradientTransform="translate(-12617.83 -18135.09) scale(3.85 3.67)" gradientUnits="userSpaceOnUse"><stop offset="0.08" stop-color="#fff"/><stop offset="1" stop-color="#6ff"/></radialGradient></defs><g id="Layer_3" data-name="Layer 3"><rect class="cls-1" width="1920" height="1080"/></g><g id="Layer_1" data-name="Layer 1"><ellipse class="cls-2" cx="692.99" cy="956.49" rx="94.25" ry="84.01"/><ellipse class="cls-3" cx="712.34" cy="941.49" rx="54.07" ry="58.01"/><ellipse class="cls-2" cx="711.84" cy="948.99" rx="28.8" ry="27.48" transform="translate(-307.33 341.87) rotate(-22.34)"/><path class="cls-2" d="M1186.07,965c.91,69.59-92.74,125.5-151.79,99.51-33.46-14.73-61.39-58.22-61.51-99V965c.18-41.79,44.48-99.52,106.65-99.52C1138.71,865.48,1185.44,916.38,1186.07,965Z"/><ellipse class="cls-4" cx="1109.18" cy="948.99" rx="85.82" ry="102.51"/><ellipse class="cls-5" cx="1087.85" cy="922.99" rx="39.68" ry="46.51"/><path class="cls-6" d="M619.12,764.47q-3.72-209.67,1.61-209.93a.54.54,0,0,1,.4.26c0-55.76,42.8-101.38,95.12-101.38h310.19c52.32,0,95.13,45.62,95.13,101.38q1,104,2,208Z"/><path class="cls-6" d="M1182.1,774.47c0,41.14-2.35,88-17.86,91-13.8,2.67-24.58-31.49-54.56-33-3.43-.18-10.15-.52-16.87,3-20.33,10.63-19.14,45.34-21.82,58-18.52,87.46-423.9,78.87-483.16,5-18.18-22.67-22.82-41-22.82-41-4.86-19.22-5-48.39-5-66h0c5.37-66,51.67-108.75,59.53-116,17.25-15.93,55.69-43.51,244.06-42,149.39,1.19,247.84,3.28,291.68,67C1178.25,733.79,1182.1,774.47,1182.1,774.47Z"/><path class="cls-7" d="M1080.91,664.45h0a61.62,61.62,0,0,1-15.88,11c-55.44,25.8-194.45,19-194.45,19-118-5.77-197.62,8.77-219.25-27-5.65-9.33-8.93-21-8.93-21a182.63,182.63,0,0,1-2.11-40.88c1.34-22,4-65.17,35.89-95.09,23.39-21.92,51.94-26.81,66.92-28.05h249c13.51,1.17,42.31,5.78,66.92,28.05,42.53,38.5,36.9,97.48,35.32,110A136.86,136.86,0,0,1,1080.91,664.45Z"/><path class="cls-8" d="M1119.56,891.33c-113.63,68.4-262.7,73-262.7,73-13.2.41-255.37,7-264.26-38-2.28-11.55,2.73-19,2.73-19,8.3-12.3,30.27-8.09,38.54-6.56,70.9,13.11,175.25,21.55,221.29,21.5a346.63,346.63,0,0,0,54.49-3.68c10.25-1.57,19.07-3.46,27.07-5.4,57.18-13.86,101.41-24.59,147.47-51.19,14.73-8.51,32.34-20.2,47.1-13.61,5.81,2.59,11.92,8.35,12.52,15.14C1144.9,876.07,1126.25,887.29,1119.56,891.33Z"/><path class="cls-9" d="M597.42,734.41,589,752.22a218.39,218.39,0,0,0,74.79,52.85,215.71,215.71,0,0,0,69.3,16.64q4.23-8.9,8.45-17.8a246.68,246.68,0,0,1-144.09-69.5Z"/><path class="cls-10" d="M780.89,862.68c-16,19.24-64.23,9.82-78.19-17.49-4.52-8.86-7-22.62-.63-33.24,11.82-19.74,51-23.55,71.21-3C787.58,823.46,791.75,849.61,780.89,862.68Z"/><path class="cls-10" d="M773.29,895.58l-34-24.33a9.08,9.08,0,0,1-2.11-12.55h0a8.91,8.91,0,0,1,12.45-2.13l34,24.33a9.08,9.08,0,0,1,2.11,12.55h0A8.91,8.91,0,0,1,773.29,895.58Z"/><path class="cls-10" d="M799,880,765,855.7a9.06,9.06,0,0,1-2.11-12.55h0A8.91,8.91,0,0,1,775.38,841l34,24.33a9.08,9.08,0,0,1,2.11,12.55h0A8.91,8.91,0,0,1,799,880Z"/><path class="cls-10" d="M808.93,855,775,830.7a9.08,9.08,0,0,1-2.11-12.56h0A8.91,8.91,0,0,1,785.3,816l34,24.33a9.08,9.08,0,0,1,2.11,12.55h0A8.91,8.91,0,0,1,808.93,855Z"/><rect class="cls-10" x="741.61" y="793.47" width="59.53" height="18" rx="0.43"/><ellipse class="cls-11" cx="810.06" cy="565.44" rx="43.65" ry="68.01"/><ellipse class="cls-11" cx="923.16" cy="565.44" rx="43.65" ry="68.01"/><ellipse class="cls-12" cx="824.45" cy="573.94" rx="27.28" ry="27.5"/><ellipse class="cls-12" cx="906.79" cy="573.94" rx="27.28" ry="27.5"/><path class="cls-13" d="M932.42,712.24c-34,29.69-51,44.54-72.43,44-37.11-.92-62.4-41.78-87.3-82-15.54-25.1-13.13-30.29-11.91-32,8.46-11.86,48.41,19,108.14,23,64.65,4.36,106.38-25.81,113.1-14S949.22,697.57,932.42,712.24Z"/><path class="cls-14" d="M852.59,635c9.67,14.19,48.08,1.09,48.55,3.28.52,2.44-46,23.5-57.11,8.41-9.7-13.17,13.85-45.36,14.84-44.91C859.68,602.15,845,623.81,852.59,635Z"/><path class="cls-15" d="M886.46,696.79c7.45,3,18.72,10.64,19.84,21,1.68,15.57-20.32,29.9-37.7,34-18.3,4.32-45.12.5-54.42-17.73-6-11.79-5.21-30.6,4.81-36.28,7-3.92,17.52-.84,23.81,5,11.6,10.77,9,31.26,10.68,31.23,2,0-2.14-30,11.15-38.23C872.32,691,883,695.37,886.46,696.79Z"/><path class="cls-9" d="M986.57,814.51l4.4,20.14c17-3.08,46.38-11.34,80.33-36.48,25.13-18.61,43.93-39.93,56.12-55.59q-2.2-10.07-4.4-20.14c-13.22,15.75-32.27,35.8-56.81,53.72C1033.41,800.12,1004.87,810,986.57,814.51Z"/><path class="cls-10" d="M918.33,841.4c5.23-27.53,49.49-54.28,72.67-41.49a29.13,29.13,0,0,1,14.55,27.3c-1.53,25-32.67,56.28-58.18,53.63C929.29,879,914.78,860.11,918.33,841.4Z"/><path class="cls-10" d="M956.39,815.69l-38.1-9.24c-4.49-1.09-6.75-6.07-5-11.06h0c1.73-5,6.82-8.19,11.31-7.1l38.1,9.24c4.49,1.09,6.75,6.07,5,11.07h0C966,813.59,960.88,816.78,956.39,815.69Z"/><path class="cls-10" d="M932.62,841l-38.69,2.87c-4.56.33-7.67-3.8-6.9-9.19h0c.77-5.39,5.13-10.07,9.69-10.41l38.7-2.87c4.56-.34,7.66,3.79,6.89,9.18h0C941.54,835.94,937.18,840.63,932.62,841Z"/><path class="cls-10" d="M924,866.84l-38.49,5.83c-4.54.68-7.82-3.2-7.3-8.64h0c.53-5.44,4.67-10.45,9.21-11.14l38.5-5.82c4.53-.69,7.82,3.2,7.29,8.64h0C932.69,861.15,928.55,866.16,924,866.84Z"/><path class="cls-10" d="M950.38,885.06l-37.57,12.4c-4.43,1.46-8.08-1.83-8.1-7.31h0c0-5.48,3.57-11.16,8-12.62l37.57-12.4c4.42-1.46,8.07,1.83,8.1,7.31h0C958.41,877.92,954.81,883.6,950.38,885.06Z"/><path class="cls-16" d="M124.91,299.78h37.43l13.48,49.86,19.72-49.86h37.3l19.77,49.8,13.5-49.8h37.23l-28.11,89.07H236.58l-22.37-56.08-22.28,56.08H153.29Z"/><path class="cls-16" d="M308.21,344.38q0-21.83,17.4-34t48.46-12.15q31.85,0,49.06,11.94t17.23,33.45q0,15.62-7.53,25.6t-21.74,15.56q-14.23,5.55-35.46,5.56-21.57,0-35.71-4.8A50.65,50.65,0,0,1,317,370.38Q308.21,360,308.21,344.38Zm39.41.12q0,13.49,7.18,19.38t19.53,5.89Q387,369.77,394,364t7-20.72q0-12.57-7.26-18.38T374,319.1q-11.91,0-19.14,5.89T347.62,344.5Z"/><path class="cls-16" d="M445.41,299.78h37.43l13.47,49.86L516,299.78h37.29l19.78,49.8,13.49-49.8h37.23l-28.11,89.07H557.08l-22.37-56.08-22.28,56.08H473.78Z"/><path class="cls-16" d="M625.23,364.06h37.84v24.79H625.23Z"/><path class="cls-16" d="M684.56,364.06H722.4v24.79H684.56Z"/><path class="cls-16" d="M743.89,364.06h37.84v24.79H743.89Z"/><path class="cls-16" d="M792.61,299.78h43.77l25.7,30.05,25.74-30.05h43.54l-49.58,51.76v37.31h-39.5V351.54Z"/><path class="cls-16" d="M928.41,344.38q0-21.83,17.39-34t48.46-12.15q31.85,0,49.07,11.94t17.22,33.45q0,15.62-7.52,25.6t-21.75,15.56q-14.24,5.55-35.45,5.56-21.58,0-35.71-4.8a50.63,50.63,0,0,1-22.93-15.19Q928.4,360,928.41,344.38Zm39.4.12q0,13.49,7.18,19.38t19.53,5.89q12.71,0,19.66-5.77t7-20.72q0-12.57-7.26-18.38t-19.71-5.8q-11.91,0-19.13,5.89T967.81,344.5Z"/><path class="cls-16" d="M1164.77,299.78h39.32v53.07a32.7,32.7,0,0,1-3.52,14.9,33.21,33.21,0,0,1-11,12.26,48.48,48.48,0,0,1-15.79,7.38q-11.48,3-27.57,3-9.32,0-20.32-.91a71.58,71.58,0,0,1-18.4-3.62,46.6,46.6,0,0,1-13.52-7.68q-6.14-5-8.4-10.26-3.66-8.49-3.65-15V299.78h39.32v54.33a13.17,13.17,0,0,0,5.78,11.38q5.79,4.1,16,4.1t16-4a13.13,13.13,0,0,0,5.78-11.44Z"/><path class="cls-16" d="M1276.47,299.78h37.44l13.47,49.86,19.73-49.86h37.29l19.77,49.8,13.5-49.8h37.23l-28.11,89.07h-38.65l-22.36-56.08-22.29,56.08h-38.64Z"/><path class="cls-16" d="M1459.77,344.38q0-21.83,17.4-34t48.46-12.15q31.84,0,49.07,11.94t17.22,33.45q0,15.62-7.52,25.6t-21.75,15.56q-14.24,5.55-35.45,5.56-21.59,0-35.72-4.8a50.65,50.65,0,0,1-22.92-15.19Q1459.77,360,1459.77,344.38Zm39.41.12q0,13.49,7.18,19.38t19.53,5.89q12.7,0,19.66-5.77t7-20.72q0-12.57-7.26-18.38t-19.71-5.8q-11.91,0-19.14,5.89T1499.18,344.5Z"/><path class="cls-16" d="M1613.41,299.78h36.8l48,49.28V299.78h37.15v89.07h-37.15l-47.76-48.91v48.91h-37.06Z"/><path class="cls-17" d="M298.77,142.5l23.69,9.43q-2.4,13.13-7.52,21.92a36,36,0,0,1-12.74,13.28q-7.62,4.49-19.37,4.48-14.25,0-23.3-5.45T243.93,167q-6.57-13.74-6.57-35.18,0-28.59,11.55-43.94t32.67-15.35q16.53,0,26,8.8t14.05,27l-23.87,7a31.5,31.5,0,0,0-2.62-7.7,17.87,17.87,0,0,0-5.55-6.29,12.88,12.88,0,0,0-7.34-2.2q-9.19,0-14.09,9.73-3.69,7.23-3.7,22.68,0,19.16,4.42,26.26t12.41,7.1q7.75,0,11.73-5.73T298.77,142.5Z"/><path class="cls-17" d="M332.18,132.12q0-28.2,11.94-43.93t33.23-15.71q21.84,0,33.66,15.44t11.81,43.26q0,20.2-5.16,33.12t-14.92,20.12q-9.75,7.2-24.31,7.19-14.81,0-24.5-6.21t-15.72-19.64Q332.18,152.32,332.18,132.12Zm27,.16q0,17.44,4.93,25.07T377.53,165A15.15,15.15,0,0,0,391,157.51q4.77-7.47,4.77-26.8,0-16.28-5-23.77t-13.52-7.51q-8.18,0-13.12,7.63T359.21,132.28Z"/><path class="cls-17" d="M437.56,74.44H462.8l32.94,63.74V74.44h25.48V189.65H495.74L463,126.39v63.26H437.56Z"/><path class="cls-17" d="M583.16,147.92V124h41.77v49.12q-12,10.77-21.21,14.65t-21.87,3.89q-15.58,0-25.39-7t-15.22-20.83q-5.4-13.83-5.4-31.74,0-18.87,5.91-32.81t17.3-21.18q8.9-5.58,23.93-5.58,14.5,0,21.69,3.46a29.42,29.42,0,0,1,11.94,10.72q4.74,7.28,7.13,18.43l-26.08,6.13q-1.6-6.52-5.46-10a14.17,14.17,0,0,0-9.82-3.46q-8.88,0-14.17,8.14t-5.28,25.73q0,18.71,5.34,26.72a16.91,16.91,0,0,0,14.89,8,22.16,22.16,0,0,0,8.65-1.73,42.56,42.56,0,0,0,9.43-5.9V147.92Z"/><path class="cls-17" d="M641.34,189.65V74.44h45q12.54,0,19.16,2.83t10.68,10.49q4,7.67,4.06,18.67A40.35,40.35,0,0,1,717.18,123a29.45,29.45,0,0,1-8.54,11.28,28.26,28.26,0,0,1-9.49,4.55,25,25,0,0,1,7,4.25,34.06,34.06,0,0,1,4.32,6.06,47.82,47.82,0,0,1,3.79,7.16l13.09,33.38H696.84l-14.45-35.21q-2.75-6.84-4.89-8.88a9.56,9.56,0,0,0-6.62-2.67h-2.39v46.76Zm27.15-68.53h11.4a31.68,31.68,0,0,0,7.16-1.57,7.21,7.21,0,0,0,4.38-3.61,12.94,12.94,0,0,0,1.7-6.68q0-5.58-2.68-8.57t-10.08-3H668.49Z"/><path class="cls-17" d="M789.82,170.63H759.13l-4.26,19h-27.6L760.15,74.44h29.48L822.5,189.65H794.2Zm-5.61-24.91-9.65-41.42L765,145.72Z"/><path class="cls-17" d="M816.54,74.44H898.7v28.45H871.14v86.76h-27V102.89H816.54Z"/><path class="cls-17" d="M967.86,74.44h27v68.64a74.67,74.67,0,0,1-2.41,19.28,45,45,0,0,1-7.58,15.86Q979.68,185,974,187.76q-7.87,3.86-18.92,3.85a91.44,91.44,0,0,1-13.93-1.17,30.22,30.22,0,0,1-12.62-4.68,35.31,35.31,0,0,1-9.28-9.93,40.9,40.9,0,0,1-5.76-13.27,88.94,88.94,0,0,1-2.5-19.48V74.44h27v70.27q0,9.43,4,14.73a14.09,14.09,0,0,0,22,.08q4-5.24,4-14.81Z"/><path class="cls-17" d="M1012.74,74.44h27v86.84H1082v28.37h-69.22Z"/><path class="cls-17" d="M1148,170.63h-30.69l-4.26,19h-27.6l32.88-115.21h29.48l32.87,115.21h-28.3Zm-5.61-24.91-9.65-41.42-9.56,41.42Z"/><path class="cls-17" d="M1174.75,74.44h82.16v28.45h-27.57v86.76h-27V102.89h-27.56Z"/><path class="cls-17" d="M1270.22,74.44h27.09V189.65h-27.09Z"/><path class="cls-17" d="M1313.3,132.12q0-28.2,11.94-43.93t33.23-15.71q21.85,0,33.66,15.44t11.81,43.26q0,20.2-5.16,33.12t-14.91,20.12q-9.76,7.2-24.32,7.19-14.8,0-24.5-6.21t-15.72-19.64Q1313.3,152.32,1313.3,132.12Zm27,.16q0,17.44,4.93,25.07t13.39,7.62a15.14,15.14,0,0,0,13.49-7.46q4.77-7.47,4.77-26.8,0-16.28-5-23.77t-13.51-7.51q-8.19,0-13.13,7.63T1340.33,132.28Z"/><path class="cls-17" d="M1418.68,74.44h25.24l32.94,63.74V74.44h25.48V189.65h-25.48l-32.76-63.26v63.26h-25.42Z"/><path class="cls-17" d="M1515.59,151.53l25.72-2.12q.84,8.25,3.4,12.58,4.17,7,11.93,7,5.79,0,8.93-3.58a12.38,12.38,0,0,0,.14-16.3q-3-3.54-13.84-6.68-17.77-5.26-25.36-14t-7.64-22.24a37.3,37.3,0,0,1,3.91-16.78A28.83,28.83,0,0,1,1534.54,77q7.85-4.53,21.51-4.52,16.77,0,25.57,8.21t10.47,26.13l-25.48,2q-1-7.77-4.27-11.31t-9-3.54q-4.71,0-7.1,2.63a9.21,9.21,0,0,0-2.38,6.41,7.25,7.25,0,0,0,2,5q1.92,2.28,9.07,4.24,17.73,5,25.39,10.18a30.59,30.59,0,0,1,11.16,12.77,40.45,40.45,0,0,1,3.49,17,45.29,45.29,0,0,1-4.65,20.44,32.73,32.73,0,0,1-13,14.18q-8.36,4.83-21.06,4.83-22.32,0-30.91-11.31T1515.59,151.53Z"/><path class="cls-17" d="M1607,74.44h26v26.25l-5,52.73h-16L1607,100.69Zm.89,87h24.23v28.21H1607.9Z"/><path class="cls-17" d="M1647.7,74.44h26v26.25l-5,52.73H1652.6l-4.9-52.73Zm.9,87h24.23v28.21H1648.6Z"/></g></svg>